<svg viewBox="0 0 40 40" fill="none" xmlns="http://www.w3.org/2000/svg">
<path d="M10.2978 15.234C11.4729 15.234 12.4255 14.2814 12.4255 13.1064C12.4255 11.9313 11.4729 10.9787 10.2978 10.9787C9.12275 10.9787 8.17017 11.9313 8.17017 13.1064C8.17017 14.2814 9.12275 15.234 10.2978 15.234Z" fill="#2F80ED"/>
<path d="M17.7872 15.234C18.9623 15.234 19.9149 14.2814 19.9149 13.1064C19.9149 11.9313 18.9623 10.9787 17.7872 10.9787C16.6121 10.9787 15.6595 11.9313 15.6595 13.1064C15.6595 14.2814 16.6121 15.234 17.7872 15.234Z" fill="#2F80ED"/>
<path d="M10.2978 22.383C11.4729 22.383 12.4255 21.4304 12.4255 20.2553C12.4255 19.0803 11.4729 18.1277 10.2978 18.1277C9.12275 18.1277 8.17017 19.0803 8.17017 20.2553C8.17017 21.4304 9.12275 22.383 10.2978 22.383Z" fill="#2F80ED"/>
<path d="M17.7872 22.383C18.9623 22.383 19.9149 21.4304 19.9149 20.2553C19.9149 19.0803 18.9623 18.1277 17.7872 18.1277C16.6121 18.1277 15.6595 19.0803 15.6595 20.2553C15.6595 21.4304 16.6121 22.383 17.7872 22.383Z" fill="#2F80ED"/>
<path d="M10.2978 29.5319C11.4729 29.5319 12.4255 28.5793 12.4255 27.4043C12.4255 26.2292 11.4729 25.2766 10.2978 25.2766C9.12275 25.2766 8.17017 26.2292 8.17017 27.4043C8.17017 28.5793 9.12275 29.5319 10.2978 29.5319Z" fill="#2F80ED"/>
<path d="M17.7872 29.5319C18.9623 29.5319 19.9149 28.5793 19.9149 27.4043C19.9149 26.2292 18.9623 25.2766 17.7872 25.2766C16.6121 25.2766 15.6595 26.2292 15.6595 27.4043C15.6595 28.5793 16.6121 29.5319 17.7872 29.5319Z" fill="#2F80ED"/>
<path d="M28.0851 22.8085H32.3404C33.0212 22.8085 33.617 22.2128 33.617 21.5319C33.617 20.8511 33.0212 20.2553 32.3404 20.2553H28.0851C27.4042 20.2553 26.8085 20.8511 26.8085 21.5319C26.8085 22.2128 27.4042 22.8085 28.0851 22.8085Z" fill="#2F80ED"/>
<path d="M28.0851 27.0638H32.3404C33.0212 27.0638 33.617 26.4681 33.617 25.7872C33.617 25.1064 33.0212 24.5107 32.3404 24.5107H28.0851C27.4042 24.5107 26.8085 25.1064 26.8085 25.7872C26.8085 26.4681 27.4042 27.0638 28.0851 27.0638Z" fill="#2F80ED"/>
<path d="M28.0851 31.3192H32.3404C33.0212 31.3192 33.617 30.7234 33.617 30.0426C33.617 29.3617 33.0212 28.766 32.3404 28.766H28.0851C27.4042 28.766 26.8085 29.3617 26.8085 30.0426C26.8085 30.7234 27.4042 31.3192 28.0851 31.3192Z" fill="#2F80ED"/>
<path d="M38.7234 33.7872H37.4468V18.8936C37.4468 16.766 35.7447 15.0638 33.617 15.0638H26.8085C26.383 15.0638 25.9574 15.1489 25.5319 15.3191V7.82979C25.5319 5.70213 23.8298 4 21.7021 4H6.38298C4.25532 4 2.55319 5.70213 2.55319 7.82979V33.7872H1.2766C0.595745 33.7872 0 34.383 0 35.0638C0 35.7447 0.595745 36.3404 1.2766 36.3404H38.7234C39.4043 36.3404 40 35.7447 40 35.0638C40 34.383 39.4043 33.7872 38.7234 33.7872ZM26.8085 17.617H33.617C34.2979 17.617 34.8936 18.2128 34.8936 18.8936V33.7872H25.5319V18.8936C25.5319 18.2128 26.1277 17.617 26.8085 17.617ZM5.10638 7.82979C5.10638 7.14894 5.70213 6.55319 6.38298 6.55319H21.7021C22.383 6.55319 22.9787 7.14894 22.9787 7.82979V18.8936V33.7872H5.10638V7.82979Z" fill="#2F80ED"/>
</svg>
