<svg width="18" height="17" viewBox="0 0 18 17" fill="none" xmlns="http://www.w3.org/2000/svg">
<path d="M14.1344 6.00039C14.4764 6.00039 14.8094 5.71239 14.8094 5.32539V3.75039H16.3844C16.7264 3.75039 17.0594 3.46239 17.0594 3.07539C17.0594 2.69739 16.7624 2.40039 16.3844 2.40039H14.8094V0.825391C14.8094 0.447391 14.5124 0.150391 14.1344 0.150391C13.7564 0.150391 13.4594 0.447391 13.4594 0.825391V2.40039H11.8844C11.5064 2.40039 11.2094 2.69739 11.2094 3.07539C11.2094 3.44439 11.5064 3.75039 11.8844 3.75039H13.4594V5.32539C13.4594 5.69439 13.7564 6.00039 14.1344 6.00039ZM8.05937 16.3504C12.0374 16.3504 15.2594 13.1284 15.2594 9.15039C15.2594 8.74539 15.2234 8.32239 15.1514 7.89939C15.0974 7.59339 14.8094 7.35039 14.4854 7.35039C14.1164 7.35039 13.8104 7.65639 13.8104 8.02539C13.8104 8.17839 13.9094 8.58339 13.9094 9.15039C13.9094 12.3814 11.2904 15.0004 8.05937 15.0004C4.82838 15.0004 2.20938 12.3814 2.20938 9.15039C2.20938 5.91939 4.82838 3.30039 8.05937 3.30039C8.51837 3.30039 9.07638 3.39939 9.18437 3.39939C9.55338 3.39939 9.85938 3.09339 9.85938 2.72439C9.85938 2.39139 9.60738 2.13939 9.30138 2.05839C9.08538 2.00439 8.66237 1.95039 8.05937 1.95039C4.08138 1.95039 0.859375 5.17239 0.859375 9.15039C0.859375 13.1284 4.08138 16.3504 8.05937 16.3504ZM5.80938 8.70039C6.55638 8.70039 7.15938 8.09739 7.15938 7.35039C7.15938 6.60339 6.55638 6.00039 5.80938 6.00039C5.06238 6.00039 4.45938 6.60339 4.45938 7.35039C4.45938 8.09739 5.06238 8.70039 5.80938 8.70039ZM10.3094 8.70039C11.0564 8.70039 11.6594 8.09739 11.6594 7.35039C11.6594 6.60339 11.0564 6.00039 10.3094 6.00039C9.56238 6.00039 8.95938 6.60339 8.95938 7.35039C8.95938 8.09739 9.56238 8.70039 10.3094 8.70039ZM8.05937 13.6504C10.6424 13.6504 11.6594 11.6704 11.6594 10.7254C11.6594 10.3654 11.3804 10.0504 10.9844 10.0504H5.13438C4.73838 10.0504 4.45938 10.3654 4.45938 10.7254C4.45938 11.7064 5.51237 13.6504 8.05937 13.6504Z" fill="#696969"/>
</svg>
