<svg width="16" height="16" viewBox="0 0 16 16" fill="none" xmlns="http://www.w3.org/2000/svg">
<mask id="mask0_11082_939" style="mask-type:alpha" maskUnits="userSpaceOnUse" x="0" y="0" width="16" height="16">
<rect width="16" height="16" fill="#D9D9D9"/>
</mask>
<g mask="url(#mask0_11082_939)">
<path d="M8.00008 15C7.44453 15 6.9723 14.8056 6.58342 14.4167C6.19453 14.0278 6.00008 13.5556 6.00008 13C6.00008 12.5667 6.12508 12.1778 6.37508 11.8333C6.62508 11.4889 6.94453 11.25 7.33342 11.1167V9.9C7.21119 9.85556 7.09453 9.80278 6.98341 9.74167C6.8723 9.68056 6.7723 9.60556 6.68341 9.51667L5.63341 10.1333C5.64453 10.1889 5.65286 10.2472 5.65841 10.3083C5.66397 10.3694 5.66675 10.4333 5.66675 10.5C5.66675 11.0556 5.4723 11.5278 5.08341 11.9167C4.69453 12.3056 4.2223 12.5 3.66675 12.5C3.11119 12.5 2.63897 12.3056 2.25008 11.9167C1.86119 11.5278 1.66675 11.0556 1.66675 10.5C1.66675 9.94444 1.86119 9.47222 2.25008 9.08333C2.63897 8.69444 3.11119 8.5 3.66675 8.5C3.9223 8.5 4.16119 8.54167 4.38341 8.625C4.60564 8.70833 4.80564 8.82778 4.98341 8.98333L6.01675 8.38333C6.00564 8.32778 5.9973 8.26667 5.99175 8.2C5.98619 8.13333 5.98341 8.06667 5.98341 8C5.98341 7.93333 5.98619 7.86944 5.99175 7.80833C5.9973 7.74722 6.00564 7.68889 6.01675 7.63333L4.98341 7.01667C4.80564 7.17222 4.60564 7.29167 4.38341 7.375C4.16119 7.45833 3.9223 7.5 3.66675 7.5C3.11119 7.5 2.63897 7.30556 2.25008 6.91667C1.86119 6.52778 1.66675 6.05556 1.66675 5.5C1.66675 4.94444 1.86119 4.47222 2.25008 4.08333C2.63897 3.69444 3.11119 3.5 3.66675 3.5C4.2223 3.5 4.69453 3.69444 5.08341 4.08333C5.4723 4.47222 5.66675 4.94444 5.66675 5.5C5.66675 5.56667 5.66397 5.63333 5.65841 5.7C5.65286 5.76667 5.64453 5.82778 5.63341 5.88333L6.68341 6.48333C6.7723 6.39444 6.8723 6.32222 6.98341 6.26667C7.09453 6.21111 7.21119 6.16111 7.33342 6.11667V4.9C6.94453 4.76667 6.62508 4.525 6.37508 4.175C6.12508 3.825 6.00008 3.43333 6.00008 3C6.00008 2.44444 6.19453 1.97222 6.58342 1.58333C6.9723 1.19444 7.44453 1 8.00008 1C8.55564 1 9.02786 1.19444 9.41675 1.58333C9.80564 1.97222 10.0001 2.44444 10.0001 3C10.0001 3.43333 9.87508 3.825 9.62508 4.175C9.37508 4.525 9.05564 4.76667 8.66675 4.9V6.11667C8.78897 6.16111 8.90286 6.21389 9.00841 6.275C9.11397 6.33611 9.21119 6.41111 9.30008 6.5L10.3667 5.86667C10.3556 5.81111 10.3473 5.75278 10.3417 5.69167C10.3362 5.63056 10.3334 5.56667 10.3334 5.5C10.3334 4.94444 10.5279 4.47222 10.9167 4.08333C11.3056 3.69444 11.7779 3.5 12.3334 3.5C12.889 3.5 13.3612 3.69444 13.7501 4.08333C14.139 4.47222 14.3334 4.94444 14.3334 5.5C14.3334 6.05556 14.139 6.52778 13.7501 6.91667C13.3612 7.30556 12.889 7.5 12.3334 7.5C12.0779 7.5 11.8417 7.45833 11.6251 7.375C11.4084 7.29167 11.2112 7.17222 11.0334 7.01667L9.95008 7.65C9.96119 7.70556 9.96953 7.76389 9.97508 7.825C9.98064 7.88611 9.98342 7.94444 9.98342 8C9.98342 8.05556 9.98064 8.11667 9.97508 8.18333C9.96953 8.25 9.96119 8.31111 9.95008 8.36667L11.0334 8.98333C11.2112 8.82778 11.4084 8.70833 11.6251 8.625C11.8417 8.54167 12.0779 8.5 12.3334 8.5C12.889 8.5 13.3612 8.69444 13.7501 9.08333C14.139 9.47222 14.3334 9.94444 14.3334 10.5C14.3334 11.0556 14.139 11.5278 13.7501 11.9167C13.3612 12.3056 12.889 12.5 12.3334 12.5C11.7779 12.5 11.3056 12.3056 10.9167 11.9167C10.5279 11.5278 10.3334 11.0556 10.3334 10.5C10.3334 10.4333 10.3362 10.3694 10.3417 10.3083C10.3473 10.2472 10.3556 10.1889 10.3667 10.1333L9.30008 9.51667C9.21119 9.60556 9.11397 9.67778 9.00841 9.73333C8.90286 9.78889 8.78897 9.83889 8.66675 9.88333V11.1167C9.05564 11.25 9.37508 11.4889 9.62508 11.8333C9.87508 12.1778 10.0001 12.5667 10.0001 13C10.0001 13.5556 9.80564 14.0278 9.41675 14.4167C9.02786 14.8056 8.55564 15 8.00008 15ZM8.00008 13.6667C8.18897 13.6667 8.3473 13.6028 8.47508 13.475C8.60286 13.3472 8.66675 13.1889 8.66675 13C8.66675 12.8111 8.60286 12.6528 8.47508 12.525C8.3473 12.3972 8.18897 12.3333 8.00008 12.3333C7.81119 12.3333 7.65286 12.3972 7.52508 12.525C7.3973 12.6528 7.33342 12.8111 7.33342 13C7.33342 13.1889 7.3973 13.3472 7.52508 13.475C7.65286 13.6028 7.81119 13.6667 8.00008 13.6667ZM3.66675 11.1667C3.85564 11.1667 4.01397 11.1028 4.14175 10.975C4.26953 10.8472 4.33341 10.6889 4.33341 10.5C4.33341 10.3111 4.26953 10.1528 4.14175 10.025C4.01397 9.89722 3.85564 9.83333 3.66675 9.83333C3.47786 9.83333 3.31953 9.89722 3.19175 10.025C3.06397 10.1528 3.00008 10.3111 3.00008 10.5C3.00008 10.6889 3.06397 10.8472 3.19175 10.975C3.31953 11.1028 3.47786 11.1667 3.66675 11.1667ZM12.3334 11.1667C12.5223 11.1667 12.6806 11.1028 12.8084 10.975C12.9362 10.8472 13.0001 10.6889 13.0001 10.5C13.0001 10.3111 12.9362 10.1528 12.8084 10.025C12.6806 9.89722 12.5223 9.83333 12.3334 9.83333C12.1445 9.83333 11.9862 9.89722 11.8584 10.025C11.7306 10.1528 11.6667 10.3111 11.6667 10.5C11.6667 10.6889 11.7306 10.8472 11.8584 10.975C11.9862 11.1028 12.1445 11.1667 12.3334 11.1667ZM8.00008 8.66667C8.18897 8.66667 8.3473 8.60278 8.47508 8.475C8.60286 8.34722 8.66675 8.18889 8.66675 8C8.66675 7.81111 8.60286 7.65278 8.47508 7.525C8.3473 7.39722 8.18897 7.33333 8.00008 7.33333C7.81119 7.33333 7.65286 7.39722 7.52508 7.525C7.3973 7.65278 7.33342 7.81111 7.33342 8C7.33342 8.18889 7.3973 8.34722 7.52508 8.475C7.65286 8.60278 7.81119 8.66667 8.00008 8.66667ZM3.66675 6.16667C3.85564 6.16667 4.01397 6.10278 4.14175 5.975C4.26953 5.84722 4.33341 5.68889 4.33341 5.5C4.33341 5.31111 4.26953 5.15278 4.14175 5.025C4.01397 4.89722 3.85564 4.83333 3.66675 4.83333C3.47786 4.83333 3.31953 4.89722 3.19175 5.025C3.06397 5.15278 3.00008 5.31111 3.00008 5.5C3.00008 5.68889 3.06397 5.84722 3.19175 5.975C3.31953 6.10278 3.47786 6.16667 3.66675 6.16667ZM12.3334 6.16667C12.5223 6.16667 12.6806 6.10278 12.8084 5.975C12.9362 5.84722 13.0001 5.68889 13.0001 5.5C13.0001 5.31111 12.9362 5.15278 12.8084 5.025C12.6806 4.89722 12.5223 4.83333 12.3334 4.83333C12.1445 4.83333 11.9862 4.89722 11.8584 5.025C11.7306 5.15278 11.6667 5.31111 11.6667 5.5C11.6667 5.68889 11.7306 5.84722 11.8584 5.975C11.9862 6.10278 12.1445 6.16667 12.3334 6.16667ZM8.00008 3.66667C8.18897 3.66667 8.3473 3.60278 8.47508 3.475C8.60286 3.34722 8.66675 3.18889 8.66675 3C8.66675 2.81111 8.60286 2.65278 8.47508 2.525C8.3473 2.39722 8.18897 2.33333 8.00008 2.33333C7.81119 2.33333 7.65286 2.39722 7.52508 2.525C7.3973 2.65278 7.33342 2.81111 7.33342 3C7.33342 3.18889 7.3973 3.34722 7.52508 3.475C7.65286 3.60278 7.81119 3.66667 8.00008 3.66667Z" fill="#1C1B1F"/>
</g>
</svg>
