<svg width="16" height="16" viewBox="0 0 16 16" fill="none" xmlns="http://www.w3.org/2000/svg">
<mask id="mask0_6025_43958" style="mask-type:alpha" maskUnits="userSpaceOnUse" x="0" y="0" width="16" height="16">
<rect width="16" height="16" fill="#D9D9D9"/>
</mask>
<g mask="url(#mask0_6025_43958)">
<path d="M3.66667 11.6673C2.64444 11.6673 1.77778 11.3118 1.06667 10.6007C0.355556 9.88954 0 9.02287 0 8.00065C0 6.97843 0.355556 6.11176 1.06667 5.40065C1.77778 4.68954 2.64444 4.33398 3.66667 4.33398C4.07778 4.33398 4.47222 4.40621 4.85 4.55065C5.22778 4.6951 5.56667 4.90065 5.86667 5.16732L7 6.20065L6 7.10065L4.96667 6.16732C4.78889 6.01176 4.58889 5.88954 4.36667 5.80065C4.14444 5.71176 3.91111 5.66732 3.66667 5.66732C3.02222 5.66732 2.47222 5.8951 2.01667 6.35065C1.56111 6.80621 1.33333 7.35621 1.33333 8.00065C1.33333 8.6451 1.56111 9.1951 2.01667 9.65065C2.47222 10.1062 3.02222 10.334 3.66667 10.334C3.91111 10.334 4.14444 10.2895 4.36667 10.2007C4.58889 10.1118 4.78889 9.98954 4.96667 9.83398L10.1333 5.16732C10.4333 4.90065 10.7722 4.6951 11.15 4.55065C11.5278 4.40621 11.9222 4.33398 12.3333 4.33398C13.3556 4.33398 14.2222 4.68954 14.9333 5.40065C15.6444 6.11176 16 6.97843 16 8.00065C16 9.02287 15.6444 9.88954 14.9333 10.6007C14.2222 11.3118 13.3556 11.6673 12.3333 11.6673C11.9222 11.6673 11.5278 11.5951 11.15 11.4507C10.7722 11.3062 10.4333 11.1007 10.1333 10.834L9 9.80065L10 8.90065L11.0333 9.83398C11.2111 9.98954 11.4111 10.1118 11.6333 10.2007C11.8556 10.2895 12.0889 10.334 12.3333 10.334C12.9778 10.334 13.5278 10.1062 13.9833 9.65065C14.4389 9.1951 14.6667 8.6451 14.6667 8.00065C14.6667 7.35621 14.4389 6.80621 13.9833 6.35065C13.5278 5.8951 12.9778 5.66732 12.3333 5.66732C12.0889 5.66732 11.8556 5.71176 11.6333 5.80065C11.4111 5.88954 11.2111 6.01176 11.0333 6.16732L5.86667 10.834C5.56667 11.1007 5.22778 11.3062 4.85 11.4507C4.47222 11.5951 4.07778 11.6673 3.66667 11.6673Z" fill="#1C1B1F"/>
</g>
</svg>
