<?xml version="1.0" encoding="UTF-8" standalone="no"?>
<svg
   width="400"
   height="399.99997"
   viewBox="0 0 400 399.99997"
   fill="none"
   version="1.1"
   id="svg4"
   sodipodi:docname="Android Logo 2023.svg"
   inkscape:version="1.3 (0e150ed6c4, 2023-07-21)"
   inkscape:export-filename="android.svg"
   inkscape:export-xdpi="96"
   inkscape:export-ydpi="96"
   xmlns:inkscape="http://www.inkscape.org/namespaces/inkscape"
   xmlns:sodipodi="http://sodipodi.sourceforge.net/DTD/sodipodi-0.dtd"
   xmlns="http://www.w3.org/2000/svg"
   xmlns:svg="http://www.w3.org/2000/svg">
  <defs
     id="defs4" />
  <sodipodi:namedview
     id="namedview4"
     pagecolor="#ffffff"
     bordercolor="#000000"
     borderopacity="0.25"
     inkscape:showpageshadow="2"
     inkscape:pageopacity="0.0"
     inkscape:pagecheckerboard="0"
     inkscape:deskcolor="#d1d1d1"
     inkscape:zoom="0.35891574"
     inkscape:cx="1330.3958"
     inkscape:cy="72.4404"
     inkscape:window-width="1728"
     inkscape:window-height="992"
     inkscape:window-x="-8"
     inkscape:window-y="-8"
     inkscape:window-maximized="1"
     inkscape:current-layer="svg4"
     showgrid="false" />
  <path
     id="path1"
     style="fill:#000000;stroke-width:0.594257"
     d="m 324.7197,83.568101 c -1.15286,-0.0975 -2.31172,-0.0881 -3.46458,0.029 -0.95081,0.0975 -1.89538,0.27401 -2.83431,0.51765 -3.33973,0.88723 -6.44198,2.72053 -8.85467,5.3727 -0.86761,0.95556 -1.65215,2.00861 -2.32366,3.1686 -2.83461,4.88538 -5.66969,9.781869 -8.49835,14.667249 l -11.83754,20.41832 c -4.03501,6.97241 -8.08113,13.93571 -12.11613,20.90812 -0.43975,0.76004 -0.88568,1.52039 -1.32543,2.29114 -0.61209,-0.24424 -1.21829,-0.48779 -1.83037,-0.72193 -22.24899,-8.4836 -46.38753,-13.12474 -71.61957,-13.12474 -0.68933,0 -1.37303,-2.2e-4 -2.06831,0.009 -22.4332,0.22404 -43.98655,4.12456 -64.09621,11.12608 -2.32354,0.80937 -4.62397,1.66773 -6.90592,2.56506 -0.41003,-0.71192 -0.83196,-1.42369 -1.23605,-2.13562 -4.03501,-6.97241 -8.08112,-13.93455 -12.11613,-20.90696 -3.94587,-6.80602 -7.89167,-13.61287 -11.83754,-20.41948 -2.840548,-4.88538 -5.67563,-9.780709 -8.498351,-14.666089 -0.677453,-1.16059 -1.456049,-2.21304 -2.323664,-3.1686 -2.412683,-2.65276 -5.514943,-4.48663 -8.854667,-5.37386 -0.938927,-0.24364 -1.883379,-0.41903 -2.840133,-0.51649 -1.146916,-0.11707 -2.305896,-0.12647 -3.458754,-0.029 -2.745468,0.23414 -5.425508,1.08181 -7.826306,2.51515 -2.709812,1.60865 -4.849554,3.81371 -6.370852,6.34881 -0.43975,0.74104 -0.831484,1.51066 -1.158325,2.30043 -0.332784,0.78976 -0.618265,1.60027 -0.832198,2.42926 -0.885444,3.344469 -0.83826,6.941769 0.261117,10.364679 0.404094,1.22893 0.927873,2.42818 1.599383,3.58876 2.840549,4.88538 5.674501,9.78071 8.497222,14.66609 3.951809,6.80662 7.897498,13.61347 11.843365,20.41949 4.035005,6.97241 8.076428,13.93454 12.111433,20.90696 0.02971,0.0582 0.07125,0.11702 0.100965,0.17525 -8.141203,5.06128 -15.884075,10.66838 -23.193437,16.8017 -4.379555,3.67667 -8.599731,7.52825 -12.64068,11.55553 -8.052183,8.00582 -15.426793,16.69405 -22.046697,25.96744 -5.395854,7.56727 -10.279815,15.51447 -14.594121,23.81324 -3.363495,6.45541 -6.394384,13.11519 -9.056656,19.96102 -3.1495622,8.08367 -5.7889548,16.4301 -7.8866822,24.98204 -1.1944566,4.89548 -2.2099825,9.84923 -3.0478849,14.88081 -0.1366791,0.80937 -0.2617108,1.62916 -0.3865048,2.43855 C 0.70086675,310.60978 0.3208988,313.54388 0,316.49852 h 400 c -0.3209,-2.95464 -0.70105,-5.88874 -1.14674,-8.80476 l 0.0303,-0.0197 c -0.13074,-0.81889 -0.25565,-1.62802 -0.39233,-2.43739 -0.82602,-5.02208 -1.85462,-9.98534 -3.04907,-14.88081 -2.09773,-8.55194 -4.73593,-16.89953 -7.8855,-24.9832 -2.66227,-6.84583 -5.6931,-13.50561 -9.05659,-19.96102 -4.32619,-8.28868 -9.2054,-16.24599 -14.59531,-23.81325 -6.60814,-9.27338 -13.98858,-17.96161 -22.0467,-25.96743 -3.38132,-3.36468 -6.88156,-6.61191 -10.49464,-9.72284 -7.82636,-6.7573 -16.18792,-12.90938 -24.99481,-18.40922 0.0773,-0.12717 0.14328,-0.26398 0.22053,-0.39115 4.03501,-6.97182 8.08225,-13.93398 12.11726,-20.90579 3.94587,-6.80661 7.89173,-13.61346 11.8376,-20.41948 2.84055,-4.88538 5.67444,-9.78071 8.49716,-14.66609 0.67151,-1.16059 1.20004,-2.36043 1.5982,-3.58876 1.10532,-3.42292 1.15357,-7.02078 0.26813,-10.365849 -0.22582,-0.82839 -0.49942,-1.63833 -0.8322,-2.4281 -0.33279,-0.79036 -0.71858,-1.56055 -1.15833,-2.30159 -1.50941,-2.5351 -3.66686,-4.7384 -6.37667,-6.34764 -2.39486,-1.42325 -5.07502,-2.27267 -7.82048,-2.51631 z M 288.60349,222.96794 c 6.52999,0.0211 13.52446,3.88597 18.03897,10.6769 6.57242,9.87715 5.40702,22.2039 -2.59756,27.53201 -7.9987,5.3287 -19.81176,1.64054 -26.3783,-8.2372 -6.57248,-9.87715 -5.40827,-22.2033 2.59637,-27.53201 2.49962,-1.66503 5.37232,-2.44929 8.34052,-2.4397 z m -176.8588,0.0336 c 2.96843,-0.01 5.84137,0.77565 8.34283,2.44087 8.00464,5.32811 9.16885,17.65427 2.59637,27.532 -6.56654,9.87714 -18.38061,13.56589 -26.38525,8.2372 -7.998699,-5.3281 -9.162908,-17.65544 -2.596368,-27.53316 4.518552,-6.79053 11.511888,-10.65588 18.042418,-10.67691 z" />
</svg>
