<svg viewBox="0 0 32 32" fill="none" xmlns="http://www.w3.org/2000/svg">
<mask id="mask">
<rect width="100%" height="100%" rx="4" fill="white"/>
<path d="M20.4607 11.6561C20.8243 12.0077 20.8485 12.5777 20.4972 12.9413L15.3941 18.3975C15.2243 18.5915 14.9818 18.6884 14.7274 18.6884C14.4729 18.6884 14.2425 18.5915 14.0607 18.3975L11.5152 15.6695C11.1636 15.3057 11.1878 14.7359 11.5516 14.3844C11.9152 14.0448 12.4972 14.069 12.8365 14.4328L14.7274 16.4455L19.1758 11.7048C19.5152 11.341 20.0969 11.3166 20.4607 11.6561Z" fill="black" />
<path d="M26 10.3949V19.7065C26 21.5978 24.4485 23.1013 22.5576 23.1013H15.4789L9.93934 26.8478C9.66045 27.0418 9.30911 27.0418 9.01822 26.8962C8.95756 26.872 8.89711 26.8236 8.83645 26.7749C8.77578 26.7265 8.72734 26.6658 8.67889 26.6051C8.56978 26.4476 8.52134 26.2778 8.52134 26.0958V22.98C7.07889 22.592 6.01222 21.2705 6 19.7065V10.3949C6 8.50333 7.55156 7 9.43023 7H22.5576C24.4485 7 26 8.50333 26 10.3949ZM24.1818 19.7065V10.3949C24.1818 9.534 23.4667 8.81867 22.5576 8.81867H9.43023C8.53334 8.81867 7.83022 9.52178 7.818 10.3949V19.7065C7.83022 20.5673 8.53311 21.2827 9.43023 21.2827C9.93934 21.2827 10.3393 21.6949 10.3393 22.192V24.3865L14.6909 21.4402C14.7516 21.4038 14.812 21.3676 14.8849 21.3433C14.8849 21.3433 14.8849 21.3433 14.8971 21.3433C14.9213 21.3191 14.9578 21.3191 14.994 21.3191C15.0667 21.2949 15.1273 21.2827 15.2 21.2827H22.5576C23.0182 21.2827 23.4182 21.1009 23.7211 20.8098C24.0122 20.5189 24.1818 20.1309 24.1818 19.7065Z" fill="black" />
</mask>
<rect mask="url(#mask)" width="100%" height="100%" rx="4" fill="#343CED"/>
</svg>
