<svg width="16" height="16" viewBox="0 0 16 16" fill="none" xmlns="http://www.w3.org/2000/svg">
  <path d="M9.95651 6.66981C9.66951 6.37138 9.6789 5.89633 9.97723 5.60915L12.1358 3.53203L10.9971 3.53134L10.9978 2.78073L10.9971 2.03012L14.7474 2.03081L14.7474 5.78041C14.7474 6.19462 14.411 6.53102 13.9968 6.53102C13.5829 6.53081 13.2471 6.19501 13.2469 5.7811L13.2469 4.54504L11.0172 6.69053C10.7187 6.97754 10.2437 6.96815 9.95651 6.66981ZM10.9971 3.53134C10.583 3.5313 10.2465 3.19491 10.2465 2.78073C10.2465 2.36654 10.583 2.03015 10.9971 2.03012V3.53134Z" fill="#1B1B1B"/>
  <path d="M9.25934 9.46228C9.02502 9.22796 8.70682 9.0964 8.37546 9.09629L2.20346 9.09629C1.78925 9.09629 1.45354 8.76059 1.45354 8.34637C1.45354 7.93216 1.78925 7.59645 2.20346 7.59645L8.37546 7.59645C9.10465 7.59657 9.80437 7.88599 10.32 8.40162L13.453 11.5346L13.4536 10.3462C13.4538 9.93205 13.7894 9.59624 14.2036 9.59624C14.6177 9.59629 14.9534 9.93208 14.9535 10.3462L14.9535 14.0958L11.2032 14.0965C10.7892 14.0963 10.4534 13.7606 10.4533 13.3465C10.4533 12.9324 10.7891 12.5968 11.2032 12.5966L12.393 12.5959L9.25934 9.46228Z" fill="#1B1B1B"/>
  <path d="M4.73913 2.74C4.19577 3.1772 3 3.36336 3 3.50306C3 3.64275 4.18419 3.68883 4.73913 4.04061C5.40192 4.46076 5.21717 6 5.5 6C5.78283 6 5.64195 4.4654 6.26087 4.04061C6.73582 3.71462 8 3.62899 8 3.50306C8 3.37712 6.73024 3.15062 6.26087 2.74C5.42731 2.01079 5.84677 1 5.5 1C5.15323 1 5.62366 2.02829 4.73913 2.74Z" fill="#1B1B1B" stroke="#1B1B1B" stroke-width="0.328571"/>
  </svg>
  