<svg width="16" height="16" viewBox="0 0 16 16" fill="none" xmlns="http://www.w3.org/2000/svg">
<mask id="mask0_6025_43964" style="mask-type:alpha" maskUnits="userSpaceOnUse" x="0" y="0" width="16" height="16">
<rect width="16" height="16" fill="#D9D9D9"/>
</mask>
<g mask="url(#mask0_6025_43964)">
<path d="M7.99999 13.334C7.46666 12.9118 6.88888 12.584 6.26666 12.3507C5.64443 12.1173 4.99999 12.0007 4.33332 12.0007C3.86666 12.0007 3.40832 12.0618 2.95832 12.184C2.50832 12.3062 2.07777 12.4784 1.66666 12.7007C1.43332 12.8229 1.20832 12.8173 0.991657 12.684C0.77499 12.5507 0.666656 12.3562 0.666656 12.1007V4.06732C0.666656 3.9451 0.697212 3.82843 0.758323 3.71732C0.819434 3.60621 0.911101 3.52287 1.03332 3.46732C1.54443 3.20065 2.07777 3.00065 2.63332 2.86732C3.18888 2.73398 3.75555 2.66732 4.33332 2.66732C4.97777 2.66732 5.60832 2.75065 6.22499 2.91732C6.84166 3.08398 7.43332 3.33398 7.99999 3.66732V11.734C8.56666 11.3784 9.1611 11.1118 9.78332 10.934C10.4055 10.7562 11.0333 10.6673 11.6667 10.6673C12.0667 10.6673 12.4583 10.7007 12.8417 10.7673C13.225 10.834 13.6111 10.934 14 11.0673V3.06732C14.1667 3.12287 14.3305 3.18121 14.4917 3.24232C14.6528 3.30343 14.8111 3.37843 14.9667 3.46732C15.0889 3.52287 15.1805 3.60621 15.2417 3.71732C15.3028 3.82843 15.3333 3.9451 15.3333 4.06732V12.1007C15.3333 12.3562 15.225 12.5507 15.0083 12.684C14.7917 12.8173 14.5667 12.8229 14.3333 12.7007C13.9222 12.4784 13.4917 12.3062 13.0417 12.184C12.5917 12.0618 12.1333 12.0007 11.6667 12.0007C11 12.0007 10.3555 12.1173 9.73332 12.3507C9.1111 12.584 8.53332 12.9118 7.99999 13.334ZM9.33332 10.0007V3.66732L12.6667 0.333984V7.00065L9.33332 10.0007ZM6.66666 11.084V4.48398C6.29999 4.32843 5.91943 4.20898 5.52499 4.12565C5.13055 4.04232 4.73332 4.00065 4.33332 4.00065C3.92221 4.00065 3.52221 4.03954 3.13332 4.11732C2.74443 4.1951 2.36666 4.31176 1.99999 4.46732V11.084C2.38888 10.9395 2.77499 10.834 3.15832 10.7673C3.54166 10.7007 3.93332 10.6673 4.33332 10.6673C4.73332 10.6673 5.12499 10.7007 5.50832 10.7673C5.89166 10.834 6.27777 10.9395 6.66666 11.084Z" fill="#1C1B1F"/>
</g>
</svg>
