<svg width="24" height="24" viewBox="0 0 24 24" fill="none" xmlns="http://www.w3.org/2000/svg">
<path fill-rule="evenodd" clip-rule="evenodd" d="M0.875 3C0.875 2.37868 1.37868 1.875 2 1.875H8C9.35923 1.875 10.6628 2.41495 11.6239 3.37608C12.585 4.3372 13.125 5.64077 13.125 7V21C13.125 21.6213 12.6213 22.125 12 22.125C11.3787 22.125 10.875 21.6213 10.875 21C10.875 20.5027 10.6775 20.0258 10.3258 19.6742C9.97419 19.3225 9.49728 19.125 9 19.125H2C1.37868 19.125 0.875 18.6213 0.875 18V3Z" fill="#343CED"/>
<path fill-rule="evenodd" clip-rule="evenodd" d="M0.875 3C0.875 2.37868 1.37868 1.875 2 1.875H8C9.35923 1.875 10.6628 2.41495 11.6239 3.37608C12.585 4.3372 13.125 5.64077 13.125 7V21C13.125 21.6213 12.6213 22.125 12 22.125C11.3787 22.125 10.875 21.6213 10.875 21C10.875 20.5027 10.6775 20.0258 10.3258 19.6742C9.97419 19.3225 9.49728 19.125 9 19.125H2C1.37868 19.125 0.875 18.6213 0.875 18V3Z" fill="#343CED"/>
<path fill-rule="evenodd" clip-rule="evenodd" d="M12.3761 3.37608C13.3372 2.41495 14.6408 1.875 16 1.875H22C22.6213 1.875 23.125 2.37868 23.125 3V18C23.125 18.6213 22.6213 19.125 22 19.125H15C14.5027 19.125 14.0258 19.3225 13.6742 19.6742C13.3225 20.0258 13.125 20.5027 13.125 21C13.125 21.6213 12.6213 22.125 12 22.125C11.3787 22.125 10.875 21.6213 10.875 21V7C10.875 5.64077 11.415 4.3372 12.3761 3.37608ZM13.125 17.3258C13.7003 17.0322 14.3421 16.875 15 16.875H20.875V4.125H16C15.2375 4.125 14.5062 4.4279 13.9671 4.96707C13.4279 5.50623 13.125 6.2375 13.125 7V17.3258Z" fill="#343CED"/>
</svg>
