<svg viewBox="0 0 10 12" fill="none" xmlns="http://www.w3.org/2000/svg">
<path d="M3.48301 7.33333L4.99967 6.41667L6.51634 7.33333L6.11634 5.6L7.44967 4.45L5.69967 4.3L4.99967 2.66667L4.29967 4.3L2.54967 4.45L3.88301 5.6L3.48301 7.33333ZM0.333008 12V1.33333C0.333008 0.966667 0.463563 0.652778 0.724674 0.391667C0.985786 0.130556 1.29967 0 1.66634 0H8.33301C8.69967 0 9.01356 0.130556 9.27467 0.391667C9.53579 0.652778 9.66634 0.966667 9.66634 1.33333V12L4.99967 10L0.333008 12ZM1.66634 9.96667L4.99967 8.53333L8.33301 9.96667V1.33333H1.66634V9.96667Z" fill="currentColor"/>
</svg>
