<svg width="16" height="16" viewBox="0 0 16 16" fill="none" xmlns="http://www.w3.org/2000/svg">
<path d="M8 15C7.16667 15 6.40972 14.7695 5.72917 14.3085C5.04861 13.8475 4.56944 13.2269 4.29167 12.4468H2.75C2.5375 12.4468 2.35938 12.3738 2.21563 12.2279C2.07188 12.0819 2 11.9011 2 11.6853C2 11.4696 2.07188 11.2872 2.21563 11.1383C2.35938 10.9894 2.5375 10.9149 2.75 10.9149H4V9.6383H2.75C2.5375 9.6383 2.35938 9.56532 2.21563 9.41936C2.07188 9.2734 2 9.09255 2 8.87681C2 8.66106 2.07188 8.47872 2.21563 8.32979C2.35938 8.18085 2.5375 8.10638 2.75 8.10638H4V6.82979H2.75C2.5375 6.82979 2.35938 6.75681 2.21563 6.61085C2.07188 6.46489 2 6.28404 2 6.0683C2 5.85255 2.07188 5.67021 2.21563 5.52128C2.35938 5.37234 2.5375 5.29787 2.75 5.29787H4.29167C4.40278 4.92908 4.58194 4.59511 4.82917 4.29596C5.07639 3.99681 5.3625 3.73504 5.6875 3.51064L4.52083 2.31915C4.36806 2.16312 4.29514 1.98227 4.30208 1.7766C4.30903 1.57092 4.38889 1.39007 4.54167 1.23404C4.69444 1.07801 4.86806 1 5.0625 1C5.25694 1 5.43056 1.07801 5.58333 1.23404L7.16667 2.82979C7.4425 2.75887 7.72326 2.7234 8.00896 2.7234C8.29465 2.7234 8.57639 2.75887 8.85417 2.82979L10.4167 1.23404C10.5694 1.07801 10.7477 1 10.9515 1C11.1551 1 11.331 1.07801 11.4792 1.23404C11.6319 1.39007 11.7083 1.57092 11.7083 1.7766C11.7083 1.98227 11.6319 2.16312 11.4792 2.31915L10.3125 3.51064C10.6319 3.73759 10.9097 4 11.1458 4.29787C11.3819 4.59574 11.5694 4.92908 11.7083 5.29787H13.25C13.4625 5.29787 13.6406 5.37085 13.7844 5.51681C13.9281 5.66277 14 5.84362 14 6.05936C14 6.27511 13.9281 6.45745 13.7844 6.60638C13.6406 6.75532 13.4625 6.82979 13.25 6.82979H12V8.10638H13.25C13.4625 8.10638 13.6406 8.17936 13.7844 8.32532C13.9281 8.47128 14 8.65213 14 8.86787C14 9.08362 13.9281 9.26596 13.7844 9.41489C13.6406 9.56383 13.4625 9.6383 13.25 9.6383H12V10.9149H13.25C13.4625 10.9149 13.6406 10.9879 13.7844 11.1338C13.9281 11.2798 14 11.4606 14 11.6764C14 11.8921 13.9281 12.0745 13.7844 12.2234C13.6406 12.3723 13.4625 12.4468 13.25 12.4468H11.7083C11.4306 13.2269 10.9514 13.8475 10.2708 14.3085C9.59028 14.7695 8.83333 15 8 15ZM8 13.4681C8.67597 13.4681 9.25472 13.2199 9.73625 12.7234C10.2176 12.2269 10.4722 11.6241 10.5 10.9149V6.82979C10.5278 6.12057 10.2951 5.51773 9.80208 5.02128C9.30903 4.52482 8.71181 4.2766 8.01042 4.2766C7.30903 4.2766 6.71875 4.52482 6.23958 5.02128C5.76042 5.51773 5.51389 6.12057 5.5 6.82979V10.9149C5.48611 11.6241 5.72222 12.2269 6.20833 12.7234C6.69444 13.2199 7.29167 13.4681 8 13.4681ZM7.24813 10.9149H8.74458C8.95653 10.9149 9.13542 10.8419 9.28125 10.696C9.42708 10.55 9.5 10.3691 9.5 10.1534C9.5 9.93766 9.42833 9.75532 9.285 9.60638C9.14153 9.45745 8.96382 9.38298 8.75188 9.38298H7.25542C7.04347 9.38298 6.86458 9.45596 6.71875 9.60191C6.57292 9.74787 6.5 9.92872 6.5 10.1445C6.5 10.3602 6.57167 10.5426 6.715 10.6915C6.85847 10.8404 7.03618 10.9149 7.24813 10.9149ZM7.24813 8.3617H8.74458C8.95653 8.3617 9.13542 8.28872 9.28125 8.14277C9.42708 7.99681 9.5 7.81596 9.5 7.60021C9.5 7.38447 9.42833 7.20213 9.285 7.05319C9.14153 6.90425 8.96382 6.82979 8.75188 6.82979H7.25542C7.04347 6.82979 6.86458 6.90277 6.71875 7.04872C6.57292 7.19468 6.5 7.37553 6.5 7.59128C6.5 7.80702 6.57167 7.98936 6.715 8.1383C6.85847 8.28723 7.03618 8.3617 7.24813 8.3617Z" fill="#1F1F1F"/>
</svg>
