<svg width="16" height="16" viewBox="0 0 16 16" fill="none" xmlns="http://www.w3.org/2000/svg">
<path fill-rule="evenodd" clip-rule="evenodd" d="M10.3998 7.4707C9.98909 7.4707 9.6561 7.80369 9.6561 8.21445V13.1145C9.6561 13.5252 9.98909 13.8582 10.3998 13.8582H12.9373C13.3481 13.8582 13.6811 13.5252 13.6811 13.1145V8.21445C13.6811 7.80369 13.3481 7.4707 12.9373 7.4707H10.3998ZM9.36623 8.21445C9.36623 7.07882 9.26421 6.1582 10.3998 6.1582H12.9373C14.073 6.1582 14.9936 7.07882 14.9936 8.21445V13.1145C14.9936 14.2501 14.073 15.1707 12.9373 15.1707H7.7749C6.63927 15.1707 9.36623 14.2501 9.36623 13.1145V8.21445Z" fill="#333333"/>
<path d="M2 3.4V13.1125C2 13.8857 2.6268 14.5125 3.4 14.5125H8.475C9.2482 14.5125 9.875 13.8857 9.875 13.1125V3.4C9.875 2.6268 9.2482 2 8.475 2H3.4C2.6268 2 2 2.6268 2 3.4Z" stroke="#333333" stroke-width="1.3125"/>
<rect x="5.41235" y="4.09961" width="1.3125" height="1.8375" rx="0.65625" transform="rotate(90 5.41235 4.09961)" fill="#333333"/>
<rect x="5.41235" y="6.28711" width="1.3125" height="1.8375" rx="0.65625" transform="rotate(90 5.41235 6.28711)" fill="#333333"/>
<rect x="5.41235" y="8.47461" width="1.3125" height="1.8375" rx="0.65625" transform="rotate(90 5.41235 8.47461)" fill="#333333"/>
<rect x="8.2124" y="4.09961" width="1.3125" height="1.8375" rx="0.65625" transform="rotate(90 8.2124 4.09961)" fill="#333333"/>
<rect x="8.2124" y="6.28711" width="1.3125" height="1.8375" rx="0.65625" transform="rotate(90 8.2124 6.28711)" fill="#333333"/>
<rect x="8.2124" y="8.47461" width="1.3125" height="1.8375" rx="0.65625" transform="rotate(90 8.2124 8.47461)" fill="#333333"/>
<rect x="11.1875" y="12.4121" width="1.3125" height="1.8375" rx="0.65625" transform="rotate(-90 11.1875 12.4121)" fill="#333333"/>
<rect x="11.1875" y="10.2246" width="1.3125" height="1.8375" rx="0.65625" transform="rotate(-90 11.1875 10.2246)" fill="#333333"/>
<path d="M5.3623 12.2375C5.3623 11.6576 5.83241 11.1875 6.4123 11.1875H7.3748C7.9547 11.1875 8.4248 11.6576 8.4248 12.2375V14.6875H5.3623V12.2375Z" fill="#333333"/>
</svg>
