<svg width="16" height="16" viewBox="0 0 16 16" fill="none" xmlns="http://www.w3.org/2000/svg">
<g clip-path="url(#clip0_3581_38650)">
<path d="M3.31805 9.68118C3.28037 9.29533 3.56262 8.95199 3.94847 8.91431L5.63854 8.75012C6.02439 8.71244 6.36772 8.99469 6.4054 9.38054C6.44308 9.76639 6.16083 10.1097 5.77498 10.1474L4.08492 10.3116C3.69907 10.3493 3.35573 10.067 3.31805 9.68118Z" fill="#1B1B1B"/>
<path d="M3.59033 12.4759C3.55265 12.09 3.8349 11.7467 4.22075 11.709L7.71397 11.3679C8.09982 11.3302 8.44316 11.6124 8.48083 11.9983C8.51851 12.3841 8.23626 12.7275 7.85041 12.7652L4.3572 13.1063C3.97135 13.144 3.62801 12.8617 3.59033 12.4759Z" fill="#1B1B1B"/>
<path fill-rule="evenodd" clip-rule="evenodd" d="M3.23303 16.0373L9.52082 15.4233C10.6784 15.3102 11.5251 14.2802 11.4121 13.1227L10.7464 6.30545C10.692 5.74969 10.419 5.23813 9.98762 4.88352L7.50129 2.83958C7.06993 2.48497 6.51521 2.31606 5.95944 2.37025L1.93679 2.76307C0.779235 2.8761 -0.0675105 3.90612 0.045526 5.06367L0.932433 14.146C1.04194 15.2674 2.01204 16.0971 3.12497 16.0451L3.23303 16.0373ZM3.09659 14.64L9.38438 14.026C9.77023 13.9883 10.0525 13.645 10.0148 13.2591L9.46901 7.66998L8.07172 7.80642C6.91417 7.91946 5.88416 7.07272 5.77112 5.91517L5.56645 3.81924L2.07323 4.16035C1.68738 4.19803 1.40513 4.54137 1.44281 4.92722L2.32972 14.0096C2.3674 14.3954 2.71074 14.6777 3.09659 14.64ZM7.16841 5.77872C7.20608 6.16457 7.54942 6.44682 7.93527 6.40914L9.31073 6.27482C9.26835 6.15609 9.19519 6.04932 9.09617 5.96792L7.02023 4.26135L7.16841 5.77872Z" fill="#1B1B1B"/>
<path d="M12.7137 5.33333C12.9403 4.72158 13.3272 4.18639 13.8157 3.76913C13.841 3.74752 13.8666 3.72623 13.8924 3.70525C14.3892 3.30209 14.9838 3.01797 15.6185 2.89375C15.0156 2.66167 14.4796 2.2824 14.0602 1.80315C14.0369 1.77656 14.014 1.74966 13.9914 1.72246C13.5837 1.23049 13.2961 0.640437 13.1792 0C12.9532 0.609832 12.5707 1.1409 12.0869 1.55481C12.0588 1.57886 12.0304 1.60251 12.0016 1.62576C11.5084 2.02425 10.918 2.30437 10.2852 2.42822C10.8878 2.6602 11.4211 3.04192 11.8378 3.52364C11.8606 3.55004 11.8831 3.57675 11.9052 3.60374C12.3111 4.09882 12.5966 4.69218 12.7137 5.33333Z" fill="#1B1B1B"/>
</g>
<defs>
<clipPath id="clip0_3581_38650">
<rect width="16" height="16" fill="white"/>
</clipPath>
</defs>
</svg>
