<svg width="32" height="32" viewBox="0 0 32 32" fill="none" xmlns="http://www.w3.org/2000/svg">
<path d="M9.2751 9.84564C9.16752 9.55878 9.31285 9.23905 9.5997 9.13144C9.88655 9.02382 10.2065 9.16919 10.3141 9.45604C11.0662 11.4617 12.7879 13.8213 15.4831 16.5165C18.1782 19.2116 20.5378 20.9334 22.5435 21.6855C22.8304 21.7931 22.9757 22.1131 22.8681 22.3999C22.7606 22.6867 22.4408 22.8321 22.1539 22.7245C19.9749 21.9074 17.4957 20.0983 14.6988 17.3012C11.9015 14.5039 10.0924 12.0248 9.27544 9.84598L9.2751 9.84564Z" fill="#333333" stroke="#333333" stroke-width="0.5"/>
<path d="M2.54452 29.4552L21.8517 21.8051C21.9074 20.5639 20.3251 18.2199 17.0525 14.9471C13.7798 11.6743 11.4358 10.0922 10.1945 10.1478L2.54452 29.4552ZM9.64873 9.11559C11.3673 8.64692 14.0251 10.3505 17.8372 14.1625C21.6492 17.9745 23.3528 20.6323 22.8841 22.3509C22.8381 22.5195 22.7156 22.6566 22.5532 22.7209L1.76051 30.9596C1.30872 31.1386 0.861377 30.6913 1.04043 30.2395L9.27908 9.44683C9.34341 9.28442 9.48051 9.16188 9.64904 9.1159L9.64873 9.11559Z" fill="#333333" stroke="#333333" stroke-width="0.5"/>
<path d="M24.3749 7.17522C24.6563 7.05412 24.9827 7.18397 25.104 7.46532C25.2251 7.74693 25.0953 8.07334 24.8137 8.19449C23.1868 8.89493 21.7653 9.96365 20.6434 11.311C20.4473 11.5465 20.0975 11.5785 19.862 11.3824C19.6265 11.1863 19.5945 10.8364 19.7907 10.6011C21.0235 9.12025 22.5867 7.94529 24.3749 7.17522Z" fill="#333333" stroke="#333333" stroke-width="0.5"/>
<path d="M26.3159 14.0383C26.6134 14.1114 26.7952 14.4122 26.7219 14.7096C26.6486 15.0071 26.348 15.1889 26.0506 15.1156C24.3307 14.6923 22.5523 14.6862 20.8445 15.0832C20.546 15.1526 20.2479 14.9669 20.1785 14.6685C20.109 14.37 20.2947 14.0719 20.5932 14.0024C22.47 13.566 24.4253 13.5727 26.3159 14.0383Z" fill="#333333" stroke="#333333" stroke-width="0.5"/>
<path d="M14.9802 13.325C14.7836 13.5597 14.4334 13.5907 14.1987 13.3939C13.9637 13.1972 13.9327 12.8472 14.1295 12.6125C16.4751 9.81187 17.7818 6.28472 17.7818 2.5547C17.7818 2.24823 18.0303 2 18.3365 2C18.643 2 18.8914 2.24826 18.8914 2.5547C18.8914 6.54762 17.4916 10.3266 14.9802 13.325Z" fill="#333333" stroke="#333333" stroke-width="0.5"/>
<path d="M5.77773 29.2861L4.77184 28.8176C5.1439 28.0189 5.33923 27.1457 5.33923 26.244C5.33923 24.9658 4.94607 23.7482 4.22449 22.7269L5.1308 22.0865C5.98356 23.2936 6.44884 24.7347 6.44884 26.244C6.44884 27.3085 6.21767 28.3414 5.77767 29.2861L5.77773 29.2861Z" fill="#333333" stroke="#333333" stroke-width="0.5"/>
<path d="M9 27.5L8.09292 27.4417C8.65188 26.2532 8.94567 24.9524 8.94567 23.6087C8.94567 21.274 8.05539 19.0807 6.48401 17.4176L7.2906 16.6555C9.05474 18.5224 10.0553 20.9876 10.0553 23.6085C10.0553 25.1164 9.62833 26.1645 9 27.5Z" fill="#333333" stroke="#333333" stroke-width="0.5"/>
<path d="M11.8148 26.3636H11C12.2972 24.4152 13.0066 22.0736 13.0066 19.6139C13.0066 17.4476 12.4569 15.371 11.4342 13.5697L12.2791 13C13.3983 14.9716 14 17.2451 14 19.6143C14 22.3044 13.2341 24.232 11.8148 26.3636Z" fill="#333333" stroke="#333333" stroke-width="0.5"/>
<path d="M12.1358 6.82561C11.1401 6.82561 10.3326 6.01821 10.3326 5.02242C10.3326 4.02647 11.14 3.21924 12.1358 3.21924C13.1318 3.21924 13.939 4.02642 13.939 5.02242C13.939 6.01816 13.1318 6.82561 12.1358 6.82561ZM12.1358 5.71594C12.5189 5.71594 12.8293 5.40547 12.8293 5.02242C12.8293 4.63938 12.5189 4.3289 12.1358 4.3289C11.7528 4.3289 11.4423 4.63938 11.4423 5.02242C11.4423 5.40547 11.7528 5.71594 12.1358 5.71594Z" fill="#333333" stroke="#333333" stroke-width="0.5"/>
<path d="M22.8032 4.60637C21.8072 4.60637 21 3.79897 21 2.80318C21 1.80745 21.8072 1 22.8032 1C23.7989 1 24.6064 1.8074 24.6064 2.80318C24.6064 3.79892 23.799 4.60637 22.8032 4.60637ZM22.8032 3.4967C23.1862 3.4967 23.4967 3.18623 23.4967 2.80318C23.4967 2.42014 23.1862 2.10966 22.8032 2.10966C22.4201 2.10966 22.1097 2.42014 22.1097 2.80318C22.1097 3.18623 22.4201 3.4967 22.8032 3.4967Z" fill="#333333" stroke="#333333" stroke-width="0.5"/>
<path d="M27.8032 20.6064C26.8075 20.6064 26 19.7992 26 18.8032C26 17.8075 26.8074 17 27.8032 17C28.7989 17 29.6064 17.8074 29.6064 18.8032C29.6064 19.7991 28.799 20.6064 27.8032 20.6064ZM27.8032 19.4969C28.1862 19.4969 28.4967 19.1862 28.4967 18.8032C28.4967 18.4204 28.1862 18.1097 27.8032 18.1097C27.4201 18.1097 27.1097 18.4204 27.1097 18.8032C27.1097 19.1862 27.4201 19.4969 27.8032 19.4969Z" fill="#333333" stroke="#333333" stroke-width="0.5"/>
<path d="M28.8032 11.6064C27.8075 11.6064 27 10.7992 27 9.80318C27 8.80745 27.8074 8 28.8032 8C29.7989 8 30.6064 8.8074 30.6064 9.80318C30.6064 10.7991 29.799 11.6064 28.8032 11.6064ZM28.8032 10.4969C29.1862 10.4969 29.4967 10.1862 29.4967 9.80318C29.4967 9.42037 29.1862 9.10967 28.8032 9.10967C28.4201 9.10967 28.1097 9.42035 28.1097 9.80318C28.1097 10.1862 28.4201 10.4969 28.8032 10.4969Z" fill="#333333" stroke="#333333" stroke-width="0.6"/>
</svg>
