<svg width="16" height="16" viewBox="0 0 16 16" fill="none" xmlns="http://www.w3.org/2000/svg">
<path d="M12.6667 7.8125H11.5V7.46875H9.94444V9.53125H11.5V9.1875H12.6667V9.875C12.6667 10.0573 12.5847 10.2322 12.4389 10.3611C12.293 10.4901 12.0952 10.5625 11.8889 10.5625H9.55556C9.34928 10.5625 9.15145 10.4901 9.00558 10.3611C8.85972 10.2322 8.77778 10.0573 8.77778 9.875V7.125C8.77778 6.94266 8.85972 6.7678 9.00558 6.63886C9.15145 6.50993 9.34928 6.4375 9.55556 6.4375H11.8889C12.0952 6.4375 12.293 6.50993 12.4389 6.63886C12.5847 6.7678 12.6667 6.94266 12.6667 7.125M7.22222 7.8125H6.05556V7.46875H4.5V9.53125H6.05556V9.1875H7.22222V9.875C7.22222 10.0573 7.14028 10.2322 6.99442 10.3611C6.84855 10.4901 6.65072 10.5625 6.44444 10.5625H4.11111C3.90483 10.5625 3.707 10.4901 3.56114 10.3611C3.41528 10.2322 3.33333 10.0573 3.33333 9.875V7.125C3.33333 6.94266 3.41528 6.7678 3.56114 6.63886C3.707 6.50993 3.90483 6.4375 4.11111 6.4375H6.44444C6.65072 6.4375 6.84855 6.50993 6.99442 6.63886C7.14028 6.7678 7.22222 6.94266 7.22222 7.125M13.4444 3H2.55556C1.69222 3 1 3.61187 1 4.375V12.625C1 12.9897 1.16389 13.3394 1.45561 13.5973C1.74733 13.8551 2.143 14 2.55556 14H13.4444C13.857 14 14.2527 13.8551 14.5444 13.5973C14.8361 13.3394 15 12.9897 15 12.625V4.375C15 3.61187 14.3 3 13.4444 3Z" fill="#1B1B1B"/>
</svg>
