<svg width="16" height="16" viewBox="0 0 16 16" fill="none" xmlns="http://www.w3.org/2000/svg">
<path d="M11.3098 10.1693C11.7639 10.1693 12.132 10.512 12.132 10.9347C12.132 11.3575 11.7639 11.7002 11.3098 11.7002H8.00637C7.55225 11.7002 7.18412 11.3575 7.18412 10.9347C7.18412 10.512 7.55225 10.1693 8.00637 10.1693H11.3098Z" fill="#1B1B1B"/>
<path d="M5.36401 6.84423C5.03898 6.54917 4.51839 6.55518 4.2013 6.85768C3.88435 7.16026 3.89081 7.64489 4.21576 7.94007L5.5238 9.12785L4.19889 10.4023C3.88324 10.7061 3.89194 11.1908 4.21817 11.4847C4.5445 11.7787 5.06507 11.7706 5.38087 11.4668L7.27508 9.64512C7.58993 9.34223 7.58225 8.85935 7.25821 8.56498L5.36401 6.84423Z" fill="#1B1B1B"/>
<path d="M13.3555 3.29633C13.3555 2.87371 12.9872 2.53109 12.5333 2.53089H3.47977C3.02566 2.53089 2.65753 2.87359 2.65753 3.29633V12.7037C2.65753 13.1264 3.02566 13.4691 3.47977 13.4691H12.5333C12.9872 13.4689 13.3555 13.1263 13.3555 12.7037V3.29633ZM15 12.7037C15 13.9718 13.8954 14.9998 12.5333 15H3.47977C2.11744 15 1.01305 13.9719 1.01305 12.7037V3.29633C1.01305 2.0281 2.11744 1 3.47977 1H12.5333C13.8954 1.0002 15 2.02823 15 3.29633V12.7037Z" fill="#1B1B1B"/>
<path d="M13.5424 3.93918C13.9965 3.93918 14.3646 4.28188 14.3646 4.70463C14.3646 5.12737 13.9965 5.47007 13.5424 5.47007H1.82224C1.36813 5.47007 1 5.12737 1 4.70463C1 4.28188 1.36813 3.93918 1.82224 3.93918H13.5424Z" fill="#1B1B1B"/>
</svg>
