<svg width="16" height="16" viewBox="0 0 16 16" fill="none" xmlns="http://www.w3.org/2000/svg">
<path d="M12.2 3.00171H13.8C14.0121 3.00171 14.2156 3.08599 14.3657 3.23602C14.5157 3.38605 14.6 3.58954 14.6 3.80171V13.0017C14.6 13.2139 14.5157 13.4174 14.3657 13.5674C14.2156 13.7174 14.0121 13.8017 13.8 13.8017H3.39998C3.1878 13.8017 2.98432 13.7174 2.83429 13.5674C2.68426 13.4174 2.59998 13.2139 2.59998 13.0017V10.2017" stroke="#333333" stroke-width="1.5" stroke-linecap="round" stroke-linejoin="round"/>
<path d="M9.24795 2.80153C9.1967 2.73905 9.13336 2.68756 9.06173 2.65016C8.99009 2.61276 8.91164 2.59022 8.83108 2.58388C8.75052 2.57754 8.66951 2.58754 8.59291 2.61328C8.51631 2.63903 8.4457 2.67997 8.38532 2.73367C8.32493 2.78737 8.27601 2.85272 8.2415 2.92579C8.20699 2.99886 8.1876 3.07814 8.18448 3.15889C8.18136 3.23964 8.19459 3.32019 8.22337 3.3957C8.25215 3.47121 8.29588 3.54013 8.35195 3.59833L9.24795 2.80153V2.80153ZM10.3999 5.00153L10.8479 5.39993C10.9455 5.29012 10.9993 5.14837 10.9993 5.00153C10.9993 4.85468 10.9455 4.71293 10.8479 4.60313L10.3999 5.00153ZM8.35195 6.40153C8.29588 6.45972 8.25215 6.52864 8.22337 6.60415C8.19459 6.67966 8.18136 6.76021 8.18448 6.84096C8.1876 6.92171 8.20699 7.00099 8.2415 7.07406C8.27601 7.14713 8.32493 7.21248 8.38532 7.26618C8.4457 7.31988 8.51631 7.36083 8.59291 7.38657C8.66951 7.41231 8.75052 7.42231 8.83108 7.41597C8.91164 7.40964 8.99009 7.38709 9.06173 7.34969C9.13336 7.31229 9.1967 7.26081 9.24795 7.19833L8.35195 6.40153V6.40153ZM8.35195 3.59833L9.95195 5.39993L10.8479 4.60313L9.24795 2.80153L8.35195 3.59833V3.59833ZM9.95195 4.60233L8.35195 6.40153L9.24795 7.19833L10.8479 5.39993L9.95195 4.60233V4.60233ZM2.35195 7.19833C2.40319 7.26081 2.46653 7.31229 2.53817 7.34969C2.6098 7.38709 2.68825 7.40964 2.76881 7.41597C2.84937 7.42231 2.93038 7.41231 3.00698 7.38657C3.08358 7.36083 3.15419 7.31988 3.21458 7.26618C3.27496 7.21248 3.32388 7.14713 3.35839 7.07406C3.3929 7.00099 3.4123 6.92171 3.41541 6.84096C3.41853 6.76021 3.4053 6.67966 3.37652 6.60415C3.34775 6.52864 3.30401 6.45972 3.24795 6.40153L2.35195 7.19833ZM1.19995 5.00153L0.751946 4.60313C0.654439 4.71293 0.600586 4.85468 0.600586 5.00153C0.600586 5.14837 0.654439 5.29012 0.751946 5.39993L1.19995 5.00153ZM3.24795 3.59833C3.30401 3.54013 3.34775 3.47121 3.37652 3.3957C3.4053 3.32019 3.41853 3.23964 3.41541 3.15889C3.4123 3.07814 3.3929 2.99886 3.35839 2.92579C3.32388 2.85272 3.27496 2.78737 3.21458 2.73367C3.15419 2.67997 3.08358 2.63903 3.00698 2.61328C2.93038 2.58754 2.84937 2.57754 2.76881 2.58388C2.68825 2.59022 2.6098 2.61276 2.53817 2.65016C2.46653 2.68756 2.40319 2.73905 2.35195 2.80153L3.24795 3.59833ZM3.24795 6.40153L1.64795 4.60233L0.751946 5.39993L2.35195 7.19833L3.24795 6.40153V6.40153ZM1.64795 5.39993L3.24795 3.59833L2.35195 2.80153L0.751946 4.60313L1.64795 5.39993V5.39993Z" fill="#333333"/>
<path d="M6.79993 2L4.79993 8" stroke="#333333" stroke-width="1.5" stroke-linecap="round"/>
</svg>
