<svg width="16" height="16" viewBox="0 0 16 16" fill="none" xmlns="http://www.w3.org/2000/svg">
<path d="M5.98015 14.0103C5.7814 14.0096 5.59077 13.9297 5.45064 13.7888L2.4688 10.7892C2.17683 10.4955 2.17792 10.0207 2.47149 9.72865C2.76521 9.43665 3.23999 9.43768 3.53203 9.73134L5.23607 11.4462L5.24512 6.00384C5.24874 3.93536 6.92686 2.25994 8.99538 2.25994L13.0169 2.26016C13.4311 2.26016 13.7672 2.59659 13.7672 3.01081C13.767 3.42473 13.4315 3.75999 13.0176 3.76018L8.99508 3.75995C7.75391 3.75995 6.74719 4.7659 6.74511 6.00707L6.73605 11.4543L8.47152 9.72887C8.76526 9.43683 9.24002 9.43783 9.53206 9.73156C9.82403 10.0252 9.82291 10.5001 9.52937 10.7921L6.51118 13.7924L6.39757 13.8858C6.27497 13.9671 6.12942 14.0108 5.98015 14.0103Z" fill="#1B1B1B"/>
</svg>
