<svg width="16" height="16" viewBox="0 0 16 16" fill="none" xmlns="http://www.w3.org/2000/svg">
<mask id="mask0_11114_476" style="mask-type:alpha" maskUnits="userSpaceOnUse" x="0" y="0" width="16" height="16">
<rect width="16" height="16" fill="#D9D9D9"/>
</mask>
<g mask="url(#mask0_11114_476)">
<path d="M8.15021 8.33331L9.66687 7.41665L11.1835 8.33331L10.7835 6.59998L12.1169 5.44998L10.3669 5.29998L9.66687 3.66665L8.96687 5.29998L7.21687 5.44998L8.55021 6.59998L8.15021 8.33331ZM8.46687 12.6666H12.2002C12.1224 12.9555 11.9891 13.1889 11.8002 13.3666C11.6113 13.5444 11.3669 13.6555 11.0669 13.7L3.80021 14.5833C3.43354 14.6389 3.10298 14.5528 2.80854 14.325C2.5141 14.0972 2.34465 13.8 2.30021 13.4333L1.41687 6.14998C1.37243 5.78331 1.46132 5.45554 1.68354 5.16665C1.90576 4.87776 2.20021 4.71109 2.56687 4.66665L3.33354 4.56665V5.89998L2.73354 5.98331L3.63354 13.2666L8.46687 12.6666ZM6.00021 11.3333C5.63354 11.3333 5.31965 11.2028 5.05854 10.9416C4.79743 10.6805 4.66687 10.3666 4.66687 9.99998V2.66665C4.66687 2.29998 4.79743 1.98609 5.05854 1.72498C5.31965 1.46387 5.63354 1.33331 6.00021 1.33331H13.3335C13.7002 1.33331 14.0141 1.46387 14.2752 1.72498C14.5363 1.98609 14.6669 2.29998 14.6669 2.66665V9.99998C14.6669 10.3666 14.5363 10.6805 14.2752 10.9416C14.0141 11.2028 13.7002 11.3333 13.3335 11.3333H6.00021ZM6.00021 9.99998H13.3335V2.66665H6.00021V9.99998Z" fill="#1C1B1F"/>
</g>
</svg>
