<svg width="16" height="16" viewBox="0 0 16 16" fill="none" xmlns="http://www.w3.org/2000/svg">
<path d="M1.77966 1.77835C0.523259 3.03409 0.832145 5.43135 2.36964 7.99756C0.859189 10.5159 0.507049 12.9471 1.77966 14.2199C3.03606 15.4772 5.43371 15.1675 7.9983 13.6299C10.5164 15.1405 12.9474 15.4927 14.2201 14.2199C15.4765 12.9642 15.1684 10.5669 13.6301 8.00073C15.1406 5.48235 15.4927 3.05117 14.2201 1.77835C13.3954 0.953538 12.071 0.799091 10.5089 1.2447C10.2464 1.31884 10.0942 1.593 10.1691 1.85557C10.244 2.11737 10.5174 2.26952 10.78 2.19459C12.0317 1.8378 12.9946 1.94978 13.5213 2.47725C14.8016 3.75771 13.519 7.37204 10.4463 10.4458C10.2107 10.6813 9.96979 10.9084 9.72502 11.1261C9.52116 11.3076 9.50339 11.6196 9.68486 11.8235C9.86633 12.0274 10.1783 12.0459 10.3822 11.8644C10.6416 11.6343 10.8957 11.3941 11.1451 11.1447C11.861 10.4288 12.4911 9.68121 13.0231 8.929C14.1413 10.9741 14.3112 12.7309 13.5212 13.5211C12.2409 14.8016 8.62688 13.5188 5.55344 10.4458C5.31792 10.2102 5.09089 9.96928 4.87312 9.72448C4.69165 9.52061 4.3789 9.50207 4.17505 9.68355C3.97119 9.86504 3.95342 10.1778 4.13489 10.3817C4.36502 10.6404 4.60517 10.8953 4.85459 11.1447C5.57044 11.8606 6.31793 12.4908 7.07007 13.0229C5.02757 14.1396 3.26914 14.3119 2.4784 13.521C1.19806 12.2406 2.48071 8.62625 5.55342 5.55252C5.80592 5.29999 6.06385 5.05826 6.32562 4.82657L6.74339 4.47904C7.22988 4.07359 7.92952 4.05041 8.44149 4.42266L8.89401 4.75089C9.03147 4.85052 9.22375 4.81963 9.32337 4.68216C9.39673 4.58022 9.40136 4.4443 9.33418 4.33772L9.02221 3.84499C8.69788 3.33219 8.74499 2.66803 9.13804 2.2062L9.49866 1.78376C9.6145 1.64784 9.59828 1.44317 9.46237 1.32734C9.36353 1.24316 9.22453 1.22617 9.10869 1.28331L8.29708 1.68489C7.84843 1.90731 7.31482 1.86947 6.90169 1.58604L6.30555 1.1775C6.16268 1.07942 5.96809 1.11572 5.87079 1.25859C5.79975 1.36208 5.79743 1.49799 5.86461 1.60381L6.15342 2.05715C6.49937 2.59929 6.42601 3.30824 5.97658 3.76775L5.62986 4.12301C5.36654 4.35624 5.10784 4.60029 4.85455 4.85359C4.1387 5.5695 3.50857 6.31706 2.97652 7.06927C1.85913 5.025 1.68847 3.2674 2.47845 2.47717C2.89391 2.06167 3.57731 1.90181 4.47687 2.0331C4.74637 2.07172 4.99734 1.88483 5.03672 1.61452C5.0761 1.34422 4.88845 1.094 4.61817 1.05462C3.4359 0.883173 2.4429 1.11417 1.77966 1.77835ZM10.2587 4.67829C10.0679 4.87445 10.0725 5.18722 10.2687 5.37722C10.3282 5.43514 10.3876 5.49383 10.4463 5.55252C10.8193 5.92554 11.1706 6.31167 11.4973 6.70554C11.6718 6.9156 11.983 6.94417 12.193 6.77041C12.4031 6.59588 12.4324 6.28388 12.2579 6.07382C11.912 5.65678 11.5398 5.24824 11.1451 4.8536C11.0826 4.79104 11.0201 4.72926 10.9575 4.66825C10.7614 4.47827 10.4486 4.4829 10.2587 4.67829Z" fill="#333333" stroke="#333333" stroke-width="0.25"/>
</svg>
