<svg width="50" height="50" viewBox="0 0 50 50" fill="none" xmlns="http://www.w3.org/2000/svg">
<g clip-path="url(#clip0_895_28617)">
<path fill-rule="evenodd" clip-rule="evenodd" d="M4.68223 8.6467C4.68205 8.64669 4.68252 8.64404 4.68419 8.63881C4.68324 8.64409 4.6824 8.64671 4.68223 8.6467ZM4.70363 8.59375C4.74921 8.50442 4.88511 8.30348 5.26794 8.00178C5.92319 7.48538 7.0166 6.91783 8.57666 6.39781C11.6723 5.36594 16.0979 4.6875 21.0938 4.6875C26.0896 4.6875 30.5152 5.36594 33.6108 6.39781C35.1709 6.91783 36.2643 7.48538 36.9196 8.00178C37.3024 8.30347 37.4383 8.50441 37.4839 8.59375C37.4383 8.68308 37.3024 8.88402 36.9196 9.18572C36.2643 9.70212 35.1709 10.2697 33.6108 10.7897C30.5152 11.8216 26.0896 12.5 21.0938 12.5C16.0979 12.5 11.6723 11.8216 8.57666 10.7897C7.0166 10.2697 5.92319 9.70212 5.26794 9.18572C4.88511 8.88402 4.74921 8.68308 4.70363 8.59375ZM37.5053 8.6467C37.5051 8.64671 37.5043 8.64413 37.5034 8.63895C37.505 8.64409 37.5055 8.64669 37.5053 8.6467ZM37.5033 8.54855C37.5043 8.54336 37.5051 8.54079 37.5053 8.5408C37.5055 8.54081 37.505 8.5434 37.5033 8.54855ZM4.68419 8.54869C4.68252 8.54346 4.68205 8.54081 4.68223 8.5408C4.6824 8.54079 4.68324 8.54341 4.68419 8.54869ZM7.09434 1.95086C10.7849 0.720671 15.7343 0 21.0938 0C26.4532 0 31.4026 0.720671 35.0932 1.95086C36.9262 2.56187 38.5787 3.34108 39.821 4.32016C41.0369 5.27842 42.1875 6.70487 42.1875 8.59375C42.1875 10.4826 41.0369 11.9091 39.821 12.8673C38.5787 13.8464 36.9262 14.6256 35.0932 15.2366C31.4026 16.4668 26.4532 17.1875 21.0938 17.1875C15.7343 17.1875 10.7849 16.4668 7.09434 15.2366C5.26131 14.6256 3.60885 13.8464 2.3665 12.8673C1.15057 11.9091 0 10.4826 0 8.59375C0 6.70487 1.15057 5.27842 2.3665 4.32016C3.60885 3.34108 5.26131 2.56187 7.09434 1.95086Z" fill="#E0E0E0"/>
<path fill-rule="evenodd" clip-rule="evenodd" d="M4.6875 8.55078C4.6875 7.25636 3.63817 6.20703 2.34375 6.20703C1.04933 6.20703 0 7.25636 0 8.55078V37.7174C0 39.6001 1.1377 41.0269 2.35298 41.9899C3.59165 42.9715 5.24 43.7514 7.07031 44.3625C10.7478 45.5902 21.2092 46.6718 26.607 46.065C27.8309 45.9877 28.7996 44.9706 28.7996 43.7273C28.7996 42.4335 27.7508 41.3848 26.4571 41.3848C26.3804 41.3848 26.3045 41.3885 26.2297 41.3957L26.2295 41.3933C21.2011 42.0081 11.6407 40.9464 8.55469 39.9162C6.99958 39.397 5.91355 38.8306 5.26421 38.3161C4.81558 37.9606 4.70883 37.7447 4.6875 37.6859V8.55078ZM4.68281 37.6695C4.68281 37.6695 4.68387 37.6723 4.6848 37.6779C4.68307 37.6723 4.68281 37.6695 4.68281 37.6695Z" fill="#E0E0E0"/>
<path fill-rule="evenodd" clip-rule="evenodd" d="M4.68728 23.1446C4.67008 21.865 3.62744 20.833 2.34375 20.833C1.04933 20.833 0 21.8823 0 23.1768C0 25.0594 1.1377 26.4862 2.35298 27.4492C3.59165 28.4308 5.24 29.2107 7.07032 29.8218C10.7552 31.0519 15.7055 31.7705 21.0938 31.7705C25.9765 31.7705 26.9003 31.5164 27.1069 31.4595C27.1283 31.4537 27.142 31.4499 27.1516 31.4487L27.1515 31.4474C28.2104 31.2225 29.0049 30.282 29.0049 29.156C29.0049 27.8623 27.9562 26.8135 26.6624 26.8135C26.5796 26.8135 26.4978 26.8178 26.4172 26.8262C26.4035 26.8276 26.3901 26.8291 26.3769 26.8307C26.3314 26.8363 26.2863 26.8431 26.2416 26.8512C26.2162 26.8556 26.1902 26.8603 26.1627 26.8652C25.7306 26.9427 24.9484 27.083 21.0938 27.083C16.0653 27.083 11.6407 26.4057 8.55469 25.3755C6.99958 24.8563 5.91356 24.2899 5.26421 23.7754C4.81404 23.4186 4.70811 23.2026 4.68728 23.1446Z" fill="#E0E0E0"/>
<path fill-rule="evenodd" clip-rule="evenodd" d="M39.8438 6.24854C38.5493 6.24854 37.5 7.29787 37.5 8.59229V19.0574H37.5172C37.5058 19.1508 37.5 19.246 37.5 19.3425C37.5 20.6362 38.5488 21.685 39.8425 21.685C41.1362 21.685 42.185 20.6362 42.185 19.3425C42.185 19.246 42.1792 19.1508 42.1678 19.0574H42.1875V8.59229C42.1875 7.29787 41.1382 6.24854 39.8438 6.24854Z" fill="#E0E0E0"/>
<path fill-rule="evenodd" clip-rule="evenodd" d="M44.1001 24.1001L49.8501 29.8501L49.9282 47.8892C49.9282 49.0153 49.0153 49.9282 47.8892 49.9282L33.3892 49.9282C32.263 49.9282 31.3501 49.0153 31.3501 47.8892L31.3501 26.1392C31.3501 25.013 32.263 24.1001 33.3892 24.1001L44.1001 24.1001ZM41.7564 28.1782L35.4282 28.1782L35.4282 45.8501L45.8501 45.8501L45.8501 32.3501L41.7564 28.1782Z" fill="#E0E0E0"/>
<path fill-rule="evenodd" clip-rule="evenodd" d="M39.4865 24.1001C40.3902 24.1001 41.1228 24.8327 41.1228 25.7365V32.8274H48.2137C49.1175 32.8274 49.8501 33.56 49.8501 34.4637C49.8501 35.3675 49.1175 36.1001 48.2137 36.1001H39.4865C38.5827 36.1001 37.8501 35.3675 37.8501 34.4637V25.7365C37.8501 24.8327 38.5827 24.1001 39.4865 24.1001Z" fill="#E0E0E0"/>
</g>
<defs>
<clipPath id="clip0_895_28617">
<rect width="50" height="50" fill="white"/>
</clipPath>
</defs>
</svg>
