<svg viewBox="0 0 16 16" fill="none" xmlns="http://www.w3.org/2000/svg">
<path d="M4.30202 6.98C4.2301 6.89212 4.18459 6.78563 4.17079 6.67292C4.15699 6.5602 4.17546 6.44588 4.22406 6.34324C4.27265 6.24061 4.34937 6.15387 4.44531 6.09311C4.54125 6.03235 4.65246 6.00006 4.76602 6H11.234C11.3476 6.00006 11.4588 6.03235 11.5547 6.09311C11.6507 6.15387 11.7274 6.24061 11.776 6.34324C11.8246 6.44588 11.843 6.5602 11.8292 6.67292C11.8154 6.78563 11.7699 6.89212 11.698 6.98L8.77402 10.554C8.68022 10.6687 8.56213 10.761 8.42828 10.8245C8.29442 10.8879 8.14814 10.9208 8.00002 10.9208C7.85189 10.9208 7.70561 10.8879 7.57176 10.8245C7.4379 10.761 7.31981 10.6687 7.22602 10.554L4.30202 6.98Z" fill="#333333"/>
</svg>
