<svg viewBox="0 0 24 24" fill="none" xmlns="http://www.w3.org/2000/svg">
  <rect x="3" y="6.80005" width="14" height="14" rx="2.8" stroke="currentColor" stroke-width="2"
    stroke-linecap="round" stroke-linejoin="round" />
  <path fill-rule="evenodd" clip-rule="evenodd"
    d="M17.9998 2.19995H9.59981C7.50112 2.19995 5.79981 3.90127 5.79981 5.99995V7.81094C5.86547 7.80368 5.9322 7.79995 5.99981 7.79995H7.79981V5.99995C7.79981 5.00584 8.60569 4.19995 9.59981 4.19995H17.9998C18.9939 4.19995 19.7998 5.00584 19.7998 5.99995V14.4C19.7998 15.3941 18.9939 16.2 17.9998 16.2H16.1998V18C16.1998 18.0676 16.1961 18.1343 16.1888 18.2H17.9998C20.0985 18.2 21.7998 16.4986 21.7998 14.4V5.99995C21.7998 3.90127 20.0985 2.19995 17.9998 2.19995Z"
    fill="currentColor" />
  <path d="M7 14H13" stroke="currentColor" stroke-width="2" stroke-linecap="round" />
  <path d="M10 11L10 17" stroke="currentColor" stroke-width="2" stroke-linecap="round" />
</svg>
