<svg width="16" height="16" viewBox="0 0 16 16" fill="none" xmlns="http://www.w3.org/2000/svg">
<mask id="mask0_6025_37579" style="mask-type:alpha" maskUnits="userSpaceOnUse" x="0" y="0" width="16" height="16">
<rect width="16" height="16" fill="#D9D9D9"/>
</mask>
<g mask="url(#mask0_6025_37579)">
<path d="M4.00004 14.6661C4.68893 14.6661 5.25282 14.4939 5.69171 14.1495C6.1306 13.805 6.46671 13.2995 6.70004 12.6328C6.88893 12.0773 7.06949 11.6884 7.24171 11.4661C7.41393 11.2439 7.81115 10.8884 8.43337 10.3995C9.12226 9.84392 9.66671 9.21615 10.0667 8.51615C10.4667 7.81615 10.6667 6.97726 10.6667 5.99948C10.6667 4.67726 10.2195 3.56892 9.32504 2.67448C8.4306 1.78003 7.32226 1.33281 6.00004 1.33281C4.67782 1.33281 3.56949 1.78003 2.67504 2.67448C1.7806 3.56892 1.33337 4.67726 1.33337 5.99948H2.66671C2.66671 5.05504 2.98615 4.26337 3.62504 3.62448C4.26393 2.98559 5.0556 2.66615 6.00004 2.66615C6.94449 2.66615 7.73615 2.98559 8.37504 3.62448C9.01393 4.26337 9.33337 5.05504 9.33337 5.99948C9.33337 6.75504 9.18337 7.39948 8.88337 7.93281C8.58337 8.46615 8.1556 8.94392 7.60004 9.36615C7.02226 9.78837 6.57226 10.1995 6.25004 10.5995C5.92782 10.9995 5.68893 11.4328 5.53337 11.8995C5.37782 12.3884 5.19171 12.7495 4.97504 12.9828C4.75837 13.2161 4.43337 13.3328 4.00004 13.3328C3.63337 13.3328 3.31949 13.2023 3.05837 12.9411C2.79726 12.68 2.66671 12.3661 2.66671 11.9995H1.33337C1.33337 12.7328 1.59449 13.3606 2.11671 13.8828C2.63893 14.405 3.26671 14.6661 4.00004 14.6661ZM6.00004 7.66615C6.46671 7.66615 6.86115 7.50226 7.18337 7.17448C7.5056 6.8467 7.66671 6.45504 7.66671 5.99948C7.66671 5.53281 7.5056 5.13837 7.18337 4.81615C6.86115 4.49392 6.46671 4.33281 6.00004 4.33281C5.53337 4.33281 5.13893 4.49392 4.81671 4.81615C4.49449 5.13837 4.33337 5.53281 4.33337 5.99948C4.33337 6.45504 4.49449 6.8467 4.81671 7.17448C5.13893 7.50226 5.53337 7.66615 6.00004 7.66615ZM12.3334 9.68281L11.35 8.69948C11.5612 8.28837 11.7223 7.85781 11.8334 7.40781C11.9445 6.95781 12 6.48837 12 5.99948C12 5.51059 11.9445 5.04392 11.8334 4.59948C11.7223 4.15504 11.5612 3.72726 11.35 3.31615L12.3334 2.33281C12.6556 2.87726 12.9028 3.45781 13.075 4.07448C13.2473 4.69115 13.3334 5.33281 13.3334 5.99948C13.3334 6.67726 13.2473 7.32448 13.075 7.94115C12.9028 8.55781 12.6556 9.13837 12.3334 9.68281ZM14.2834 11.6161L13.3 10.6495C13.7334 9.98281 14.0695 9.26059 14.3084 8.48281C14.5473 7.70504 14.6667 6.88837 14.6667 6.03281C14.6667 5.16615 14.5445 4.34115 14.3 3.55781C14.0556 2.77448 13.7167 2.04948 13.2834 1.38281L14.2834 0.382812C14.8278 1.18281 15.25 2.05781 15.55 3.00781C15.85 3.95781 16 4.95504 16 5.99948C16 7.04392 15.85 8.04115 15.55 8.99115C15.25 9.94115 14.8278 10.8161 14.2834 11.6161Z" fill="#1C1B1F"/>
</g>
</svg>
