<svg width="16" height="16" viewBox="0 0 16 16" fill="none" xmlns="http://www.w3.org/2000/svg">
<g clip-path="url(#clip0_2076_1771)">
<path fill-rule="evenodd" clip-rule="evenodd" d="M7.96403 3.23687C8.7752 2.4257 9.87538 1.96999 11.0225 1.96999C12.1697 1.96999 13.2699 2.4257 14.081 3.23687C14.8922 4.04803 15.3479 5.14821 15.3479 6.29537C15.3479 7.4424 14.8923 8.54246 14.0813 9.3536L9.99202 13.455C9.86394 13.5835 9.69 13.6557 9.50861 13.6557H4.35092C3.97391 13.6557 3.66828 13.3501 3.66828 12.9731V7.81538C3.66828 7.63433 3.7402 7.4607 3.86822 7.33268L7.96403 3.23687ZM11.0225 3.33526C10.2375 3.33526 9.48455 3.64713 8.92943 4.20226L5.03355 8.09813V12.2904H9.22526L13.1157 8.38849C13.6708 7.83336 13.9827 7.08044 13.9827 6.29537C13.9827 5.5103 13.6708 4.75739 13.1157 4.20226C12.5605 3.64713 11.8076 3.33526 11.0225 3.33526Z" fill="#1B1B1B"/>
<path fill-rule="evenodd" clip-rule="evenodd" d="M11.5083 5.81571C11.7749 6.08229 11.7749 6.51451 11.5083 6.7811L3.01325 15.2761C2.74667 15.5427 2.31445 15.5427 2.04786 15.2761C1.78128 15.0095 1.78128 14.5773 2.04786 14.3107L10.5429 5.81571C10.8095 5.54912 11.2417 5.54912 11.5083 5.81571Z" fill="#1B1B1B"/>
<path fill-rule="evenodd" clip-rule="evenodd" d="M6.09543 10.5459C6.09543 10.1689 6.40106 9.8633 6.77807 9.8633H11.9358C12.3128 9.8633 12.6184 10.1689 12.6184 10.5459C12.6184 10.9229 12.3128 11.2286 11.9358 11.2286H6.77807C6.40106 11.2286 6.09543 10.9229 6.09543 10.5459Z" fill="#1B1B1B"/>
<path d="M2.98463 0.598309C3.01726 0.499782 3.17859 0.499782 3.21122 0.598309C3.35208 1.02363 3.62018 1.70327 3.99241 2.0755C4.36464 2.44773 5.04428 2.71584 5.4696 2.8567C5.56813 2.88933 5.56813 3.05066 5.4696 3.08329C5.04428 3.22415 4.36464 3.49225 3.99241 3.86448C3.62018 4.23671 3.35208 4.91635 3.21122 5.34167C3.17859 5.4402 3.01726 5.4402 2.98463 5.34167C2.84377 4.91635 2.57566 4.23671 2.20343 3.86448C1.8312 3.49225 1.15156 3.22415 0.726239 3.08329C0.627712 3.05066 0.627712 2.88933 0.726239 2.8567C1.15156 2.71584 1.8312 2.44773 2.20343 2.0755C2.57566 1.70327 2.84377 1.02363 2.98463 0.598309Z" fill="#1B1B1B"/>
</g>
<defs>
<clipPath id="clip0_2076_1771">
<rect width="16" height="16" fill="white"/>
</clipPath>
</defs>
</svg>
