<svg width="15" height="14" viewBox="0 0 15 14" fill="none" xmlns="http://www.w3.org/2000/svg">
  <path fill-rule="evenodd" clip-rule="evenodd" d="M2.08333 1.5C1.92862 1.5 1.78025 1.56146 1.67085 1.67085C1.56146 1.78025 1.5 1.92862 1.5 2.08333V11.4167C1.5 11.5714 1.56146 11.7197 1.67085 11.8291C1.78025 11.9385 1.92862 12 2.08333 12H12.75C12.9047 12 13.0531 11.9385 13.1625 11.8291C13.2719 11.7197 13.3333 11.5714 13.3333 11.4167V4.08333C13.3333 3.92862 13.2719 3.78025 13.1625 3.67085C13.0531 3.56146 12.9047 3.5 12.75 3.5H6.75C6.49924 3.5 6.26506 3.37467 6.12596 3.16603L5.01528 1.5H2.08333ZM0.610194 0.610194C1.0009 0.219493 1.5308 0 2.08333 0H5.41667C5.66743 0 5.90161 0.125326 6.0407 0.333975L7.15139 2H12.75C13.3025 2 13.8324 2.21949 14.2231 2.61019C14.6138 3.00089 14.8333 3.5308 14.8333 4.08333V11.4167C14.8333 11.9692 14.6138 12.4991 14.2231 12.8898C13.8324 13.2805 13.3025 13.5 12.75 13.5H2.08333C1.5308 13.5 1.00089 13.2805 0.610194 12.8898C0.219493 12.4991 0 11.9692 0 11.4167V2.08333C0 1.5308 0.219493 1.0009 0.610194 0.610194Z" fill="#000000"/>
  </svg>
  