<svg width="24" height="24" viewBox="0 0 24 24" fill="none" xmlns="http://www.w3.org/2000/svg">
<g clip-path="url(#clip0_2087_286606)">
<path fill-rule="evenodd" clip-rule="evenodd" d="M6.52773 3.52773C6.78559 3.26987 7.13533 3.125 7.5 3.125C8.62439 3.125 9.45511 3.91189 10.0768 5.04216C10.2315 5.32347 10.362 5.60761 10.4705 5.875H7.5C7.13533 5.875 6.78559 5.73013 6.52773 5.47227C6.26987 5.21441 6.125 4.86467 6.125 4.5C6.125 4.13533 6.26987 3.78559 6.52773 3.52773ZM4.1459 5.875C3.9687 5.44276 3.875 4.97621 3.875 4.5C3.875 3.53859 4.25692 2.61656 4.93674 1.93674C5.61656 1.25692 6.53859 0.875 7.5 0.875C9.82583 0.875 11.235 2.51707 12 3.8713C12.765 2.51707 14.1742 0.875 16.5 0.875C17.4614 0.875 18.3835 1.25692 19.0633 1.93674C19.7431 2.61656 20.125 3.53859 20.125 4.5C20.125 4.97621 20.0313 5.44276 19.8541 5.875H22C22.6213 5.875 23.125 6.37868 23.125 7V12C23.125 12.6213 22.6213 13.125 22 13.125H21.125V22C21.125 22.6213 20.6213 23.125 20 23.125H13.125V5.875H10.875V23.125H4C3.37868 23.125 2.875 22.6213 2.875 22V13.125H2C1.37868 13.125 0.875 12.6213 0.875 12V7C0.875 6.37868 1.37868 5.875 2 5.875H4.1459ZM16.5 5.875H13.5296C13.638 5.60761 13.7685 5.32347 13.9233 5.04216C14.5449 3.91189 15.3756 3.125 16.5 3.125C16.8647 3.125 17.2144 3.26987 17.4723 3.52773C17.7301 3.78559 17.875 4.13533 17.875 4.5C17.875 4.86467 17.7301 5.21441 17.4723 5.47227C17.2144 5.73013 16.8647 5.875 16.5 5.875Z" fill="#343CED"/>
</g>
<defs>
<clipPath id="clip0_2087_286606">
<rect width="24" height="24" fill="white"/>
</clipPath>
</defs>
</svg>
