<svg width="40" height="40" viewBox="0 0 40 40" fill="none" xmlns="http://www.w3.org/2000/svg">
<path d="M5.25783 8.48942C3.92754 9.51861 1 9.75047 1 10.0793C1 10.4082 3.89921 10.5166 5.25783 11.3447C6.8805 12.3338 6.42819 17.9444 7.12063 17.9444C7.81307 17.9444 7.46816 12.3447 8.98343 11.3447C10.1462 10.5774 13.2413 10.3758 13.2413 10.0793C13.2413 9.78287 10.1326 9.45602 8.98343 8.48942C6.94266 6.77282 7.87984 4.18701 7.03085 4.18701C6.18186 4.18701 7.42338 6.81402 5.25783 8.48942Z" fill="url(#paint0_linear_2418_209998)"/>
<path fill-rule="evenodd" clip-rule="evenodd" d="M25.4286 18.6624H33.5714C36.5695 18.6624 39 16.229 39 13.2273V7.79231C39 4.79063 36.5695 2.35729 33.5714 2.35729H25.4286C22.4305 2.35729 20 4.79063 20 7.79231V13.2273C20 16.229 22.4305 18.6624 25.4286 18.6624ZM25.4286 15.9448C23.9295 15.9448 22.7143 14.7282 22.7143 13.2273V7.79231C22.7143 6.29147 23.9295 5.0748 25.4286 5.0748H33.5714C35.0705 5.0748 36.2857 6.29147 36.2857 7.79231V13.2273C36.2857 14.7282 35.0705 15.9448 33.5714 15.9448H25.4286Z" fill="url(#paint1_linear_2418_209998)"/>
<path d="M33.5261 32.3276C32.6392 33.0404 30.6875 33.344 30.6875 33.5717C30.6875 33.7995 32.6203 33.8746 33.5261 34.4482C34.6078 35.1333 34.3063 37.643 34.7679 37.643C35.2295 37.643 34.9996 35.1408 36.0098 34.4482C36.785 33.9167 38.8483 33.7771 38.8483 33.5717C38.8483 33.3664 36.7759 32.9971 36.0098 32.3276C34.6493 31.1386 35.3339 29.4905 34.7679 29.4905C34.2019 29.4905 34.9698 31.1671 33.5261 32.3276Z" fill="url(#paint2_linear_2418_209998)"/>
<path fill-rule="evenodd" clip-rule="evenodd" d="M6.44056 37.625H20.042C23.0467 37.625 25.4825 35.1917 25.4825 32.19V26.755C25.4825 23.7533 23.0467 21.3199 20.042 21.3199H6.44056C3.43582 21.3199 1 23.7533 1 26.755V32.19C1 35.1917 3.43582 37.625 6.44056 37.625ZM6.44056 34.9075C4.93819 34.9075 3.72028 33.6908 3.72028 32.19V26.755C3.72028 25.2541 4.93819 24.0374 6.44056 24.0374H20.042C21.5443 24.0374 22.7622 25.2541 22.7622 26.755V32.19C22.7622 33.6908 21.5443 34.9075 20.042 34.9075H6.44056Z" fill="url(#paint3_linear_2418_209998)"/>
<defs>
<linearGradient id="paint0_linear_2418_209998" x1="7.12063" y1="4.18701" x2="7.12063" y2="17.9444" gradientUnits="userSpaceOnUse">
<stop stop-color="#343CED"/>
<stop offset="1" stop-color="#B2C854"/>
</linearGradient>
<linearGradient id="paint1_linear_2418_209998" x1="29.5" y1="18.6624" x2="29.5" y2="2.35729" gradientUnits="userSpaceOnUse">
<stop stop-color="#B2C854"/>
<stop offset="1" stop-color="#343CED"/>
</linearGradient>
<linearGradient id="paint2_linear_2418_209998" x1="34.7679" y1="29.4905" x2="34.7679" y2="37.643" gradientUnits="userSpaceOnUse">
<stop stop-color="#343CED"/>
<stop offset="1" stop-color="#B2C854"/>
</linearGradient>
<linearGradient id="paint3_linear_2418_209998" x1="13.2413" y1="37.625" x2="13.2413" y2="21.3199" gradientUnits="userSpaceOnUse">
<stop stop-color="#B2C854"/>
<stop offset="1" stop-color="#343CED"/>
</linearGradient>
</defs>
</svg>
