<svg viewBox="0 0 16 12" fill="none" xmlns="http://www.w3.org/2000/svg">
<path d="M11.121 0.783168C11.121 0.35064 11.4716 0 11.9042 0C12.4028 0 12.8928 0.100199 13.3698 0.290963C13.8888 0.498573 14.2883 0.806671 14.6508 1.16918C15.0133 1.5317 15.3214 1.93121 15.5291 2.45023C15.7198 2.92714 15.82 3.41717 15.82 3.91584C15.82 4.41448 15.7198 4.90451 15.5291 5.38146C15.324 5.89397 15.021 6.28994 14.6644 6.64886L13.8933 7.49703C13.885 7.5062 13.8764 7.5152 13.8676 7.52397L11.3615 10.0301C10.999 10.3926 10.5995 10.7007 10.0805 10.9084C9.60352 11.0991 9.11349 11.1993 8.61485 11.1993C8.11621 11.1993 7.62618 11.0991 7.14923 10.9084C6.63022 10.7007 6.23071 10.3926 5.86819 10.0301C5.50567 9.66759 5.19758 9.26809 4.98997 8.74909C4.79554 8.26297 4.69901 7.77247 4.69901 7.20515C4.69901 6.7065 4.79921 6.21648 4.98997 5.73953C5.19758 5.22052 5.50567 4.82103 5.86819 4.4585L6.72969 3.59701C7.03551 3.29116 7.53142 3.29116 7.83724 3.59701C8.14307 3.90286 8.14307 4.39874 7.83724 4.70457L6.97576 5.56605C6.71175 5.83006 6.54995 6.0571 6.4443 6.32126C6.32181 6.62748 6.26535 6.92062 6.26535 7.20515C6.26535 7.57762 6.32542 7.87029 6.4443 8.16735C6.54995 8.43151 6.71175 8.65855 6.97576 8.92256C7.23976 9.18656 7.4668 9.34837 7.73097 9.45402C8.03719 9.5765 8.33033 9.63297 8.61485 9.63297C8.89938 9.63297 9.19252 9.5765 9.49873 9.45402C9.7629 9.34837 9.98994 9.18656 10.2539 8.92256L12.7469 6.42958L13.5176 5.58187C13.5259 5.57271 13.5345 5.56371 13.5433 5.55493C13.8073 5.29093 13.9691 5.06389 14.0747 4.79972C14.1972 4.49351 14.2537 4.20037 14.2537 3.91584C14.2537 3.63135 14.1972 3.33821 14.0747 3.03195C13.9691 2.7678 13.8073 2.54077 13.5433 2.27676C13.2792 2.01273 13.0522 1.85093 12.788 1.74527C12.4818 1.62277 12.1887 1.56634 11.9042 1.56634C11.4716 1.56634 11.121 1.2157 11.121 0.783168ZM7.28346 1.95792C6.99894 1.95792 6.7058 2.01436 6.39958 2.13686C6.13542 2.24252 5.90839 2.40433 5.64438 2.66834L3.0731 5.23963L2.30247 6.08733C2.29411 6.09649 2.28554 6.1055 2.27676 6.11427C2.01274 6.37828 1.85093 6.60532 1.74527 6.86948C1.62277 7.1757 1.56634 7.46884 1.56634 7.75337C1.56634 8.03789 1.62277 8.33103 1.74527 8.63725C1.85093 8.90141 2.01274 9.12845 2.27676 9.39246C2.54077 9.65646 2.76779 9.81827 3.03195 9.92391C3.33821 10.0464 3.63135 10.1029 3.91584 10.1029C4.34837 10.1029 4.69901 10.4535 4.69901 10.886C4.69901 11.3186 4.34837 11.6692 3.91584 11.6692C3.41717 11.6692 2.92714 11.569 2.45023 11.3783C1.93121 11.1706 1.5317 10.8625 1.16918 10.5C0.806663 10.1375 0.498573 9.73799 0.290963 9.21899C0.100199 8.74204 0 8.25201 0 7.75337C0 7.25472 0.100199 6.76469 0.290963 6.28774C0.495965 5.77524 0.798957 5.37927 1.15557 5.02034L1.92664 4.17217C1.935 4.16301 1.94357 4.154 1.95235 4.14523L4.53681 1.56077C4.89933 1.19825 5.29884 0.890157 5.81785 0.682547C6.29479 0.491783 6.78482 0.391584 7.28346 0.391584C7.78211 0.391584 8.27214 0.491783 8.74909 0.682547C9.26809 0.890157 9.66759 1.19825 10.0301 1.56077C10.3926 1.92329 10.7007 2.3228 10.9084 2.84181C11.0991 3.31872 11.1993 3.80875 11.1993 4.30743C11.1993 4.80607 11.0991 5.2961 10.9084 5.77305C10.7031 6.2861 10.3997 6.68238 10.0426 7.04162L9.1922 7.96928C8.89992 8.28811 8.40449 8.30965 8.08566 8.01745C7.76684 7.72517 7.7453 7.22974 8.0375 6.91091L8.89898 5.97111C8.90666 5.96273 8.91457 5.95451 8.92256 5.94652C9.18656 5.68251 9.34837 5.45547 9.45402 5.19131C9.5765 4.88509 9.63297 4.59195 9.63297 4.30743C9.63297 4.0229 9.5765 3.72979 9.45402 3.42353C9.34837 3.15938 9.18656 2.93235 8.92256 2.66834C8.65855 2.40433 8.43151 2.24252 8.16735 2.13686C7.86113 2.01436 7.56799 1.95792 7.28346 1.95792Z" fill="#333333"/>
</svg>
