<svg width="24" height="24" viewBox="0 0 24 24" fill="none" xmlns="http://www.w3.org/2000/svg">
<path fill-rule="evenodd" clip-rule="evenodd" d="M2 1C1.44772 1 1 1.44771 1 2V21.75C1 22.3023 1.44771 22.75 2 22.75H21.75C22.3023 22.75 22.75 22.3023 22.75 21.75V2C22.75 1.44772 22.3023 1 21.75 1H2ZM18.9536 11.153C18.9536 10.4989 18.394 9.96875 17.7036 9.96875C17.0133 9.96875 16.4536 10.4989 16.4536 11.153V18.2861C16.4536 18.9401 17.0133 19.4703 17.7036 19.4703C18.394 19.4703 18.9536 18.9401 18.9536 18.2861V11.153ZM12.0566 5.50781C12.747 5.50781 13.3066 6.038 13.3066 6.69202V18.2834C13.3066 18.9374 12.747 19.4676 12.0566 19.4676C11.3663 19.4676 10.8066 18.9374 10.8066 18.2834V6.69202C10.8066 6.038 11.3663 5.50781 12.0566 5.50781ZM7.65967 13.8248C7.65967 13.1708 7.10002 12.6406 6.40967 12.6406C5.71931 12.6406 5.15967 13.1708 5.15967 13.8248V18.283C5.15967 18.9371 5.71931 19.4673 6.40967 19.4673C7.10002 19.4673 7.65967 18.9371 7.65967 18.283V13.8248Z" fill="#343CED"/>
<path fill-rule="evenodd" clip-rule="evenodd" d="M1.07129 2.08402C1.07129 1.48842 1.5558 1.00391 2.15141 1.00391C2.74701 1.00391 3.23152 1.48842 3.23152 2.08402V20.5201H21.6676C22.2632 20.5201 22.7478 21.0047 22.7478 21.6003C22.7478 22.1959 22.2632 22.6804 21.6676 22.6804H2.15141C1.5558 22.6804 1.07129 22.1959 1.07129 21.6003V2.08402Z" fill="#343CED"/>
</svg>
