<svg width="16" height="16" viewBox="0 0 16 16" fill="none" xmlns="http://www.w3.org/2000/svg">
<path d="M8.33105 1.96777C8.699 1.96795 8.99692 2.26584 8.99707 2.63379C8.99707 3.00187 8.6991 3.30061 8.33105 3.30078H2.99707V12.6338H12.3311V13.9678H2.99707C2.26084 13.9676 1.66406 13.3701 1.66406 12.6338V3.30078C1.66406 2.61035 2.18888 2.04279 2.86133 1.97461C2.90597 1.97008 2.95123 1.96778 2.99707 1.96777H8.33105ZM12.999 6.63379C13.3671 6.63397 13.665 6.93272 13.665 7.30078V12.6338C13.665 13.3702 13.0684 13.9678 12.332 13.9678V7.30078C12.3321 6.93261 12.6308 6.63379 12.999 6.63379ZM7.99902 9.96777C8.36697 9.96795 8.66489 10.2658 8.66504 10.6338C8.66504 11.0019 8.36706 11.3006 7.99902 11.3008H4.99902C4.63083 11.3008 4.33203 11.002 4.33203 10.6338C4.33219 10.2657 4.63093 9.96777 4.99902 9.96777H7.99902ZM10.332 7.30078C10.7002 7.30078 10.999 7.59958 10.999 7.96777C10.9988 8.33581 10.7001 8.63379 10.332 8.63379H4.99902C4.63094 8.63379 4.33221 8.33581 4.33203 7.96777C4.33203 7.59958 4.63083 7.30078 4.99902 7.30078H10.332ZM10.332 4.63379C10.7002 4.63379 10.999 4.93261 10.999 5.30078C10.999 5.66897 10.7002 5.96777 10.332 5.96777H4.99902C4.63083 5.96777 4.33203 5.66897 4.33203 5.30078C4.33205 4.93261 4.63085 4.63379 4.99902 4.63379H10.332ZM12.835 0.09375C12.8863 -0.031202 13.095 -0.0311802 13.1465 0.09375C13.2333 0.306445 13.3384 0.51087 13.458 0.705078C13.8243 1.29974 14.335 1.80102 14.9346 2.16309C15.1335 2.28317 15.3423 2.38764 15.5586 2.47559C15.6826 2.52598 15.6825 2.72871 15.5586 2.7793C15.3426 2.8675 15.1341 2.97307 14.9355 3.09375C14.3354 3.45852 13.8235 3.96368 13.457 4.56152C13.3376 4.75638 13.2332 4.96094 13.1465 5.17383C13.0954 5.2994 12.8859 5.29947 12.835 5.17383C12.7485 4.96058 12.6444 4.7557 12.5254 4.56055C12.161 3.96321 11.6525 3.45832 11.0547 3.09375C10.8568 2.97308 10.6492 2.86751 10.4336 2.7793C10.3097 2.72864 10.3097 2.52605 10.4336 2.47559C10.6497 2.38757 10.8583 2.28232 11.0566 2.16211C11.6535 1.80026 12.1613 1.30007 12.5254 0.706055C12.6445 0.511671 12.7484 0.306655 12.835 0.09375Z" fill="#131BD4"/>
</svg>
