<svg width="20" height="20" viewBox="0 0 20 20" fill="none" xmlns="http://www.w3.org/2000/svg">
<g clip-path="url(#clip0_13561_90806)">
<path fill-rule="evenodd" clip-rule="evenodd" d="M9.58204 0.82749C9.84597 0.695524 10.1566 0.695524 10.4206 0.82749L18.7539 4.99416C19.0715 5.15296 19.2721 5.47758 19.2721 5.83268C19.2721 6.18778 19.0715 6.5124 18.7539 6.67121L10.4206 10.8379C10.1566 10.9698 9.84597 10.9698 9.58204 10.8379L1.24871 6.67121C0.931096 6.5124 0.730469 6.18778 0.730469 5.83268C0.730469 5.47758 0.931096 5.15296 1.24871 4.99416L9.58204 0.82749Z" fill="#1B1B1B"/>
<path fill-rule="evenodd" clip-rule="evenodd" d="M0.827696 13.747C1.05925 13.2839 1.62238 13.0961 2.08548 13.3277L9.99955 17.2847L17.9136 13.3277C18.3767 13.0961 18.9399 13.2839 19.1714 13.747C19.403 14.2101 19.2153 14.7732 18.7521 15.0047L10.4188 19.1714C10.1549 19.3034 9.84422 19.3034 9.58029 19.1714L1.24696 15.0047C0.783853 14.7732 0.596143 14.2101 0.827696 13.747Z" fill="#1B1B1B"/>
<path fill-rule="evenodd" clip-rule="evenodd" d="M0.827695 9.58094C1.05925 9.11784 1.62238 8.93013 2.08548 9.16168L9.99955 13.1187L17.9136 9.16168C18.3767 8.93013 18.9399 9.11784 19.1714 9.58094C19.403 10.044 19.2153 10.6072 18.7521 10.8387L10.4188 15.0054C10.1549 15.1374 9.84422 15.1374 9.58029 15.0054L1.24696 10.8387C0.783853 10.6072 0.596143 10.044 0.827695 9.58094Z" fill="#1B1B1B"/>
</g>
<defs>
<clipPath id="clip0_13561_90806">
<rect width="20" height="20" fill="white"/>
</clipPath>
</defs>
</svg>
