<svg width="12" height="12" viewBox="0 0 12 12" fill="none" xmlns="http://www.w3.org/2000/svg">
<g id="layout" clip-path="url(#clip0_7005_102540)">
<path id="Vector (Stroke)" fill-rule="evenodd" clip-rule="evenodd" d="M2.5 2.0625C2.25838 2.0625 2.0625 2.25838 2.0625 2.5V9.5C2.0625 9.74162 2.25838 9.9375 2.5 9.9375H9.5C9.74162 9.9375 9.9375 9.74162 9.9375 9.5V2.5C9.9375 2.25838 9.74162 2.0625 9.5 2.0625H2.5ZM0.9375 2.5C0.9375 1.63706 1.63706 0.9375 2.5 0.9375H9.5C10.3629 0.9375 11.0625 1.63706 11.0625 2.5V9.5C11.0625 10.3629 10.3629 11.0625 9.5 11.0625H2.5C1.63706 11.0625 0.9375 10.3629 0.9375 9.5V2.5Z" fill="#333333"/>
<path id="Vector (Stroke)_2" fill-rule="evenodd" clip-rule="evenodd" d="M0.9375 4.5C0.9375 4.18934 1.18934 3.9375 1.5 3.9375H10.5C10.8107 3.9375 11.0625 4.18934 11.0625 4.5C11.0625 4.81066 10.8107 5.0625 10.5 5.0625H1.5C1.18934 5.0625 0.9375 4.81066 0.9375 4.5Z" fill="#333333"/>
<path id="Vector (Stroke)_3" fill-rule="evenodd" clip-rule="evenodd" d="M4.5 3.9375C4.81066 3.9375 5.0625 4.18934 5.0625 4.5V10.5C5.0625 10.8107 4.81066 11.0625 4.5 11.0625C4.18934 11.0625 3.9375 10.8107 3.9375 10.5V4.5C3.9375 4.18934 4.18934 3.9375 4.5 3.9375Z" fill="#333333"/>
</g>
<defs>
<clipPath id="clip0_7005_102540">
<rect width="12" height="12" fill="white"/>
</clipPath>
</defs>
</svg>
