<svg width="16" height="16" viewBox="0 0 16 16" fill="none" xmlns="http://www.w3.org/2000/svg">
  <path d="M8 1C6.67392 1 5.40215 1.52059 4.46447 2.44724C3.52678 3.37389 3 4.63069 3 5.94118C3 8.22917 4.70714 9.10353 6 10V12C6 12.5523 6.44772 13 7 13H9C9.55228 13 10 12.5523 10 12V10C11.2929 9.10353 13 7.62118 13 5.94118" stroke="#1B1B1B" stroke-width="1.3" stroke-linecap="round" stroke-linejoin="round"/>
  <path fill-rule="evenodd" clip-rule="evenodd" d="M9.93683 1.93684L10.4504 0.396114C10.5293 0.159558 10.7506 0 11 0C11.2493 0 11.4707 0.159558 11.5496 0.396114L12.0631 1.93685L13.6039 2.45042C13.8404 2.52927 14 2.75065 14 3C14 3.24935 13.8404 3.47073 13.6039 3.54958L12.0631 4.06316L11.5496 5.60389C11.4707 5.84044 11.2493 6 11 6C10.7506 6 10.5293 5.84044 10.4504 5.60389L9.93683 4.06316L8.39609 3.54958C8.15954 3.47073 7.99998 3.24935 7.99998 3C7.99998 2.75065 8.15954 2.52927 8.39609 2.45042L9.93683 1.93684Z" fill="#1B1B1B"/>
  <path d="M5.00003 5V5C5.31477 4.05573 6.05576 3.31475 7.00003 2.99999V2.99999" stroke="#1B1B1B" stroke-linecap="round"/>
  <path d="M8.8 13H7.2C7.08954 13 7 13.0895 7 13.2V14.5836C7 14.594 7.00444 14.604 7.01222 14.611C7.57377 15.1164 8.42623 15.1164 8.98778 14.611C8.99556 14.604 9 14.594 9 14.5836V13.2C9 13.0895 8.91046 13 8.8 13Z" fill="#1B1B1B" stroke="#1B1B1B"/>
  </svg>
  