<svg viewBox="0 0 14 16" fill="none" xmlns="http://www.w3.org/2000/svg">
  <path fill-rule="evenodd" clip-rule="evenodd" d="M7.96532 0.645074C8.27073 0.77765 8.45218 1.0957 8.41088 1.42608L7.8496 5.91638H13C13.291 5.91638 13.5558 6.08473 13.6792 6.34827C13.8026 6.61181 13.7625 6.92296 13.5762 7.14652L6.90951 15.1465C6.69636 15.4023 6.34011 15.4869 6.0347 15.3544C5.72929 15.2218 5.54784 14.9037 5.58913 14.5734L6.15042 10.083H1.00001C0.708996 10.083 0.444252 9.91471 0.320817 9.65117C0.197382 9.38763 0.237541 9.07647 0.423843 8.85291L7.09051 0.852911C7.30366 0.597136 7.65991 0.512497 7.96532 0.645074ZM2.60129 8.58305H7.00001C7.21513 8.58305 7.4199 8.67542 7.56227 8.8367C7.70464 8.99797 7.7709 9.21261 7.74422 9.42608L7.39485 12.221L11.3987 7.41638H7.00001C6.78489 7.41638 6.58012 7.32401 6.43775 7.16273C6.29538 7.00146 6.22912 6.78682 6.2558 6.57336L6.60517 3.77839L2.60129 8.58305Z" fill="currentColor"/>
  </svg>
  