<svg width="14" height="14" viewBox="0 0 14 14" fill="none" xmlns="http://www.w3.org/2000/svg">
  <g clip-path="url(#clip0_100_3135)">
  <g clip-path="url(#clip1_100_3135)">
  <path fill-rule="evenodd" clip-rule="evenodd" d="M9.15174 1.3666C8.86989 1.09229 8.49212 0.938806 8.09883 0.938806C7.70553 0.938806 7.32776 1.09229 7.04591 1.3666L1.43074 6.87326C1.33678 6.96459 1.21091 7.01569 1.07987 7.01569C0.948831 7.01569 0.822958 6.96459 0.728994 6.87326C0.68299 6.82852 0.646423 6.77501 0.621453 6.7159C0.596483 6.65679 0.583618 6.59327 0.583618 6.5291C0.583618 6.46492 0.596483 6.4014 0.621453 6.34229C0.646423 6.28318 0.68299 6.22967 0.728994 6.18493L6.34416 0.678262C6.81387 0.221158 7.44341 -0.0346069 8.09883 -0.0346069C8.75424 -0.0346069 9.38379 0.221158 9.85349 0.678262C10.1253 0.942572 10.3306 1.26748 10.4527 1.62641C10.5748 1.98533 10.6101 2.36805 10.5558 2.74326C10.936 2.68919 11.3235 2.72313 11.6885 2.84247C12.0535 2.96181 12.3863 3.16336 12.6611 3.4316L12.6902 3.46076C12.9203 3.68446 13.1031 3.952 13.2279 4.24757C13.3528 4.54314 13.4171 4.86074 13.4171 5.1816C13.4171 5.50245 13.3528 5.82005 13.2279 6.11562C13.1031 6.41119 12.9203 6.67873 12.6902 6.90243L7.61174 11.8823C7.59642 11.8972 7.58423 11.9151 7.57591 11.9347C7.56759 11.9544 7.5633 11.9756 7.5633 11.997C7.5633 12.0183 7.56759 12.0395 7.57591 12.0592C7.58423 12.0789 7.59642 12.0967 7.61174 12.1116L8.65474 13.1348C8.70075 13.1795 8.73731 13.233 8.76228 13.2921C8.78725 13.3512 8.80012 13.4148 8.80012 13.4789C8.80012 13.5431 8.78725 13.6066 8.76228 13.6657C8.73731 13.7248 8.70075 13.7784 8.65474 13.8231C8.56078 13.9144 8.43491 13.9655 8.30387 13.9655C8.17283 13.9655 8.04696 13.9144 7.95299 13.8231L6.90999 12.8005C6.80257 12.6961 6.71717 12.5713 6.65886 12.4333C6.60054 12.2953 6.5705 12.147 6.5705 11.9973C6.5705 11.8475 6.60054 11.6992 6.65886 11.5612C6.71717 11.4233 6.80257 11.2984 6.90999 11.194L11.9885 6.21351C12.1264 6.07925 12.2361 5.91871 12.3109 5.74138C12.3858 5.56404 12.4244 5.3735 12.4244 5.18101C12.4244 4.98852 12.3858 4.79798 12.3109 4.62065C12.2361 4.44331 12.1264 4.28277 11.9885 4.14851L11.9593 4.11993C11.6778 3.84591 11.3005 3.69244 10.9076 3.69212C10.5148 3.69179 10.1372 3.84463 9.85524 4.11818L5.67158 8.22134L5.67041 8.22251L5.61324 8.27909C5.51925 8.3706 5.39326 8.4218 5.26208 8.4218C5.1309 8.4218 5.0049 8.3706 4.91091 8.27909C4.86491 8.23436 4.82834 8.18085 4.80337 8.12173C4.7784 8.06262 4.76553 7.9991 4.76553 7.93493C4.76553 7.87076 4.7784 7.80724 4.80337 7.74812C4.82834 7.68901 4.86491 7.6355 4.91091 7.59076L9.15349 3.42985C9.29105 3.2955 9.40033 3.13497 9.47488 2.95774C9.54943 2.7805 9.58776 2.59013 9.58759 2.39785C9.58743 2.20557 9.54878 2.01527 9.47393 1.83816C9.39907 1.66105 9.28953 1.50071 9.15174 1.3666Z" fill="#333333"/>
  <path fill-rule="evenodd" clip-rule="evenodd" d="M8.44964 2.74346C8.49564 2.69872 8.53221 2.64521 8.55718 2.5861C8.58215 2.52698 8.59501 2.46346 8.59501 2.39929C8.59501 2.33512 8.58215 2.2716 8.55718 2.21248C8.53221 2.15337 8.49564 2.09986 8.44964 2.05512C8.35564 1.96362 8.22965 1.91241 8.09847 1.91241C7.96729 1.91241 7.84129 1.96362 7.7473 2.05512L3.59455 6.12796C3.36454 6.35165 3.1817 6.61919 3.05685 6.91476C2.932 7.21033 2.86768 7.52793 2.86768 7.84879C2.86768 8.16965 2.932 8.48725 3.05685 8.78282C3.1817 9.07839 3.36454 9.34593 3.59455 9.56962C4.06433 10.0266 4.69385 10.2823 5.34922 10.2823C6.00459 10.2823 6.63411 10.0266 7.10389 9.56962L11.2572 5.49679C11.3032 5.45205 11.3398 5.39854 11.3648 5.33943C11.3897 5.28031 11.4026 5.21679 11.4026 5.15262C11.4026 5.08845 11.3897 5.02493 11.3648 4.96582C11.3398 4.9067 11.3032 4.8532 11.2572 4.80846C11.1632 4.71695 11.0372 4.66575 10.9061 4.66575C10.7749 4.66575 10.6489 4.71695 10.5549 4.80846L6.40214 8.88129C6.12029 9.1556 5.74252 9.30908 5.34922 9.30908C4.95592 9.30908 4.57815 9.1556 4.2963 8.88129C4.15836 8.74703 4.04873 8.58649 3.97386 8.40916C3.899 8.23182 3.86043 8.04128 3.86043 7.84879C3.86043 7.6563 3.899 7.46576 3.97386 7.28842C4.04873 7.11109 4.15836 6.95055 4.2963 6.81629L8.44964 2.74346Z" fill="#333333"/>
  </g>
  </g>
  <defs>
  <clipPath id="clip0_100_3135">
  <rect width="14" height="14" fill="white"/>
  </clipPath>
  <clipPath id="clip1_100_3135">
  <rect width="14" height="14" fill="white"/>
  </clipPath>
  </defs>
  </svg>
  