<svg viewBox="0 0 16 18" fill="none" xmlns="http://www.w3.org/2000/svg">
<path d="M15.4801 12.0359L11.0658 1.35821C11.0304 1.2726 10.9749 1.19677 10.9041 1.13712C10.8332 1.07748 10.749 1.03576 10.6586 1.01551C10.5682 0.993908 10.4739 0.994884 10.3839 1.01836C10.294 1.04183 10.2112 1.08707 10.1429 1.1501L4.31489 6.4047C4.29764 6.42032 4.29552 6.44463 4.28047 6.46189L1.38049 7.51986C1.2363 7.57245 1.1189 7.68015 1.05411 7.81929C0.989317 7.95842 0.982432 8.11759 1.03497 8.2618L2.99725 13.6408C3.03795 13.7524 3.11196 13.8488 3.20926 13.917C3.30656 13.9852 3.42246 14.0218 3.54126 14.0219C3.60898 14.0221 3.67619 14.0102 3.73975 13.9869L4.75206 13.6175L5.84622 16.6176C5.89833 16.762 6.00567 16.8798 6.14464 16.9451C6.28361 17.0103 6.44281 17.0177 6.58723 16.9656C6.73165 16.9135 6.84946 16.8062 6.91473 16.6672C6.98001 16.5283 6.98741 16.369 6.9353 16.2246L6.93423 16.2217L5.83971 13.2208L6.85224 12.8513C6.86142 12.8479 6.86736 12.8404 6.87627 12.8366H14.945C15.0403 12.8367 15.1341 12.8132 15.2181 12.7683C15.3021 12.7234 15.3737 12.6585 15.4266 12.5793C15.4796 12.5001 15.5121 12.4091 15.5214 12.3143C15.5307 12.2195 15.5166 12.1238 15.4801 12.0359ZM3.8868 12.7009L2.32149 8.40994L4.34591 7.67028L5.91129 11.9613L3.8868 12.7009ZM7.04397 11.6785L5.37857 7.0052L10.3092 2.55931L14.0793 11.6785L7.04397 11.6785Z" fill="currentColor" stroke="currentColor" stroke-width="0.5"/>
</svg>
