<svg width="18" height="18" viewBox="0 0 18 18" fill="none" xmlns="http://www.w3.org/2000/svg">
<path d="M9.85003 7.8506C9.8816 7.99793 9.99775 8.11407 10.1451 8.14564L12.8571 8.99561L10.1451 9.84557C9.99775 9.87714 9.8816 9.99329 9.85003 10.1406L9 12.8525L8.14997 10.1406C8.1184 9.99329 8.00225 9.87714 7.85491 9.84557L5.14286 8.99561L7.85491 8.14564C8.00225 8.11407 8.1184 7.99793 8.14997 7.8506L9 5.13873L9.85003 7.8506Z" fill="#1B1B1B"/>
<path fill-rule="evenodd" clip-rule="evenodd" d="M9 0C13.9706 0 18 4.03041 18 9.00063C17.9997 13.9706 13.9704 18 9 18H2.22614L1.99888 17.9887C0.876385 17.875 0.00031806 16.9263 0 15.774V9.00063C0 4.03041 4.02944 0 9 0ZM9 1.92969C5.09456 1.92969 1.92857 5.09546 1.92857 9.00063V15.774C1.92891 15.9379 2.06214 16.0716 2.22614 16.0716H9C12.9052 16.0716 16.0711 12.9055 16.0714 9.00063C16.0714 5.09546 12.9054 1.92969 9 1.92969Z" fill="#1B1B1B"/>
</svg>
