<svg width="16" height="16" viewBox="0 0 16 16" fill="none" xmlns="http://www.w3.org/2000/svg">
<mask id="mask0_11081_925" style="mask-type:alpha" maskUnits="userSpaceOnUse" x="0" y="0" width="16" height="16">
<rect width="16" height="16" fill="#D9D9D9"/>
</mask>
<g mask="url(#mask0_11081_925)">
<path d="M3.99992 9.3335H9.33325V8.00016H3.99992V9.3335ZM3.99992 7.3335H11.9999V6.00016H3.99992V7.3335ZM3.99992 5.3335H11.9999V4.00016H3.99992V5.3335ZM1.33325 14.6668V2.66683C1.33325 2.30016 1.46381 1.98627 1.72492 1.72516C1.98603 1.46405 2.29992 1.3335 2.66659 1.3335H13.3333C13.6999 1.3335 14.0138 1.46405 14.2749 1.72516C14.536 1.98627 14.6666 2.30016 14.6666 2.66683V10.6668C14.6666 11.0335 14.536 11.3474 14.2749 11.6085C14.0138 11.8696 13.6999 12.0002 13.3333 12.0002H3.99992L1.33325 14.6668ZM3.43325 10.6668H13.3333V2.66683H2.66659V11.4168L3.43325 10.6668Z" fill="#1C1B1F"/>
</g>
</svg>
