<svg width="20" height="20" viewBox="0 0 20 20" fill="none" xmlns="http://www.w3.org/2000/svg">
<path fill-rule="evenodd" clip-rule="evenodd" d="M10 1C14.9706 1 19 5.02944 19 10C19 14.9706 14.9706 19 10 19H3.22614C1.99681 19 1 18.0032 1 16.7739V10C1 5.02944 5.02944 1 10 1ZM9.14997 8.85114C9.11831 8.99834 9.00215 9.1134 8.85491 9.14495L6.14286 9.99498L8.85491 10.8463C9.00215 10.8778 9.11831 10.9929 9.14997 11.1401L10 13.8534L10.85 11.1401C10.8817 10.9929 10.9978 10.8778 11.1451 10.8463L13.8571 9.99498L11.1451 9.14495C10.9978 9.1134 10.8817 8.99834 10.85 8.85114L10 6.13909L9.14997 8.85114Z" fill="#1B1B1B"/>
</svg>
