<svg width="14" height="14" viewBox="0 0 14 14" fill="none" xmlns="http://www.w3.org/2000/svg">
<mask id="mask0_6025_42068" style="mask-type:alpha" maskUnits="userSpaceOnUse" x="0" y="0" width="14" height="14">
<rect width="14" height="14" fill="#D9D9D9"/>
</mask>
<g mask="url(#mask0_6025_42068)">
<path d="M6.41667 6.41732H7.58334V2.33398C7.58334 2.16871 7.52744 2.03016 7.41563 1.91836C7.30382 1.80655 7.16528 1.75065 7.00001 1.75065C6.83473 1.75065 6.69619 1.80655 6.58438 1.91836C6.47257 2.03016 6.41667 2.16871 6.41667 2.33398V6.41732ZM2.91667 8.75065H11.0833V7.58398H2.91667V8.75065ZM2.07084 12.2507H3.50001V11.084C3.50001 10.9187 3.55591 10.7802 3.66771 10.6684C3.77952 10.5566 3.91806 10.5007 4.08334 10.5007C4.24862 10.5007 4.38716 10.5566 4.49896 10.6684C4.61077 10.7802 4.66667 10.9187 4.66667 11.084V12.2507H6.41667V11.084C6.41667 10.9187 6.47257 10.7802 6.58438 10.6684C6.69619 10.5566 6.83473 10.5007 7.00001 10.5007C7.16528 10.5007 7.30382 10.5566 7.41563 10.6684C7.52744 10.7802 7.58334 10.9187 7.58334 11.084V12.2507H9.33334V11.084C9.33334 10.9187 9.38924 10.7802 9.50105 10.6684C9.61285 10.5566 9.75139 10.5007 9.91667 10.5007C10.082 10.5007 10.2205 10.5566 10.3323 10.6684C10.4441 10.7802 10.5 10.9187 10.5 11.084V12.2507H11.9292L11.3458 9.91732H2.65417L2.07084 12.2507ZM11.9292 13.4173H2.07084C1.69167 13.4173 1.38542 13.2666 1.15209 12.9652C0.918755 12.6638 0.850699 12.3284 0.947921 11.959L1.75 8.75065V7.58398C1.75 7.26315 1.86424 6.9885 2.09271 6.76003C2.32119 6.53155 2.59584 6.41732 2.91667 6.41732H5.25V2.33398C5.25 1.84787 5.42014 1.43468 5.76042 1.0944C6.1007 0.754123 6.51389 0.583984 7.00001 0.583984C7.48612 0.583984 7.89931 0.754123 8.23959 1.0944C8.57987 1.43468 8.75001 1.84787 8.75001 2.33398V6.41732H11.0833C11.4042 6.41732 11.6788 6.53155 11.9073 6.76003C12.1358 6.9885 12.25 7.26315 12.25 7.58398V8.75065L13.0521 11.959C13.1785 12.3284 13.1226 12.6638 12.8844 12.9652C12.6462 13.2666 12.3278 13.4173 11.9292 13.4173Z" fill="#1C1B1F"/>
</g>
</svg>
