<svg width="18" height="18" viewBox="0 0 18 18" fill="none" xmlns="http://www.w3.org/2000/svg">
<path d="M7.50711 0.493822C8.34469 -0.123551 9.45101 -0.162034 10.3221 0.3783L10.4929 0.493822L17.4601 5.63002C17.7984 5.87946 18 6.28297 18 6.71256V16.6708C17.9998 17.3588 17.4942 17.9253 16.8461 17.9935L16.7143 18H11.5714C10.8614 18 10.2859 17.4048 10.2857 16.6708V12.673L10.2794 12.5367C10.2176 11.9084 9.73206 11.4088 9.12305 11.349C9.08256 11.3451 9.04149 11.3438 9 11.3438C8.95549 11.3438 8.91151 11.3458 8.86816 11.3503C8.22001 11.4186 7.71429 11.9849 7.71429 12.673V16.6708C7.71413 17.3588 7.20848 17.9253 6.56041 17.9935L6.42857 18H1.28571C0.575734 18 0.000161662 17.4048 0 16.6708V6.71256C0 6.28297 0.201585 5.87946 0.5399 5.63002L7.50711 0.493822ZM8.90206 2.0021C8.80511 2.01757 8.71074 2.05597 8.62709 2.11762L2.19852 6.85534C2.02942 6.98005 1.92859 7.18186 1.92857 7.39661V15.3417C1.92873 15.7086 2.21649 16.0063 2.57143 16.0063H5.14286C5.4978 16.0063 5.78555 15.7086 5.78571 15.3417V12.673C5.78571 10.9526 7.05037 9.53729 8.67104 9.36698C8.7792 9.35561 8.88894 9.3501 9 9.3501C9.11106 9.3501 9.2208 9.35561 9.32896 9.36698C10.9496 9.53729 12.2143 10.9526 12.2143 12.673V15.3417C12.2144 15.7086 12.5022 16.0063 12.8571 16.0063H15.4286C15.7835 16.0063 16.0713 15.7086 16.0714 15.3417V7.39661C16.0714 7.18186 15.9706 6.98005 15.8015 6.85534L9.37291 2.11762C9.28926 2.05597 9.19489 2.01757 9.09793 2.0021C9.033 1.99174 8.967 1.99174 8.90206 2.0021Z" fill="#1B1B1B"/>
</svg>
