<svg width="18" height="18" viewBox="0 0 18 18" fill="none" xmlns="http://www.w3.org/2000/svg">
<path d="M7.50711 0.49363C8.40032 -0.164543 9.59968 -0.164543 10.4929 0.49363L17.4601 5.62951C17.7985 5.87891 18 6.28238 18 6.71197V15.3419C17.9997 16.8096 16.8485 18 15.4286 18H12.8571C11.4372 18 10.286 16.8096 10.2857 15.3419V12.6733C10.2857 11.9393 9.71008 11.3443 9 11.3443C8.28992 11.3443 7.71429 11.9393 7.71429 12.6733V15.3419C7.71398 16.8096 6.56283 18 5.14286 18H2.57143C1.15146 18 0.000308869 16.8096 0 15.3419V6.71197C2.59965e-05 6.28238 0.201522 5.87891 0.5399 5.62951L7.50711 0.49363Z" fill="#1B1B1B"/>
</svg>
