<svg width="16" height="16" viewBox="0 0 16 16" fill="none" xmlns="http://www.w3.org/2000/svg">
<path d="M5.3335 4H14.0002" stroke="#333333" stroke-width="1.5" stroke-linecap="round" stroke-linejoin="round"/>
<path d="M5.3335 8H14.0002" stroke="#333333" stroke-width="1.5" stroke-linecap="round" stroke-linejoin="round"/>
<path d="M5.3335 12H14.0002" stroke="#333333" stroke-width="1.5" stroke-linecap="round" stroke-linejoin="round"/>
<path d="M1.93338 8.2666H2.20008H2.19999C2.44758 8.2666 2.68499 8.1683 2.85998 7.9932C3.03498 7.81821 3.13337 7.58079 3.13337 7.3333V7.1999C3.13337 6.95241 3.03498 6.71499 2.85998 6.54C2.68499 6.36491 2.44758 6.2666 2.19999 6.2666H1.4C1.25714 6.2666 1.1251 6.34285 1.05367 6.4666C0.982153 6.59035 0.982153 6.74285 1.05367 6.8666C1.1251 6.99035 1.25715 7.0666 1.4 7.0666H2.19999C2.23535 7.0666 2.26927 7.08062 2.29427 7.10562C2.31927 7.13062 2.33338 7.16455 2.33338 7.1999V7.3333C2.33338 7.36865 2.31927 7.40258 2.29427 7.42758C2.26928 7.45258 2.23535 7.4666 2.19999 7.4666H1.9333H1.93338C1.6858 7.4666 1.44838 7.5649 1.27339 7.73999C1.09839 7.91499 1 8.1524 1 8.3999V9.0666C1 9.17267 1.04214 9.27446 1.11714 9.34946C1.19223 9.42446 1.29393 9.4666 1.4 9.4666H2.73338C2.87623 9.4666 3.00828 9.39035 3.0797 9.2666C3.15122 9.14285 3.15122 8.99035 3.0797 8.8666C3.00828 8.74285 2.87622 8.6666 2.73338 8.6666H1.79999V8.3999C1.79999 8.32633 1.85972 8.2666 1.93338 8.2666H1.93338Z" fill="#333333"/>
<path d="M2.19996 12.9335H1.39997C1.25711 12.9335 1.12507 13.0097 1.05364 13.1335C0.982121 13.2572 0.982121 13.4097 1.05364 13.5335C1.12507 13.6572 1.25712 13.7335 1.39997 13.7335H2.19996C2.44754 13.7335 2.68496 13.6351 2.85995 13.4601C3.03494 13.2851 3.13334 13.0477 3.13334 12.8001V12.6668C3.13272 12.4757 3.07307 12.2893 2.96263 12.1335C3.07307 11.9775 3.13271 11.7912 3.13334 11.6001V11.4668C3.13334 11.2193 3.03495 10.9818 2.85995 10.8068C2.68495 10.6318 2.44754 10.5334 2.19996 10.5334H1.39997C1.25711 10.5334 1.12507 10.6097 1.05364 10.7334C0.982121 10.8572 0.982121 11.0097 1.05364 11.1335C1.12507 11.2572 1.25712 11.3335 1.39997 11.3335H2.19996C2.23531 11.3335 2.26924 11.3475 2.29424 11.3725C2.31924 11.3975 2.33335 11.4314 2.33335 11.4668V11.6001C2.33335 11.6354 2.31924 11.6693 2.29424 11.6943C2.26924 11.7194 2.23531 11.7335 2.19996 11.7335H1.66666C1.52372 11.7335 1.39167 11.8097 1.32024 11.9335C1.24881 12.0572 1.24881 12.2097 1.32024 12.3335C1.39167 12.4572 1.52372 12.5335 1.66666 12.5335H2.19996C2.23531 12.5335 2.26924 12.5475 2.29424 12.5725C2.31924 12.5975 2.33335 12.6314 2.33335 12.6668V12.8001C2.33335 12.8354 2.31924 12.8694 2.29424 12.8944C2.26924 12.9194 2.23531 12.9335 2.19996 12.9335V12.9335Z" fill="#333333"/>
<path d="M2.19996 5.2C2.30612 5.2 2.40782 5.15785 2.48282 5.08285C2.55782 5.00786 2.59996 4.90616 2.59996 4.8V2.4C2.59996 2.29393 2.55782 2.19223 2.48282 2.11714C2.40782 2.04214 2.30612 2 2.19996 2H1.39997C1.25711 2 1.12507 2.07625 1.05364 2.2C0.982121 2.32375 0.982121 2.47625 1.05364 2.6C1.12507 2.72375 1.25712 2.8 1.39997 2.8H1.79997V4.8C1.79997 4.90616 1.84211 5.00786 1.91711 5.08285C1.9922 5.15785 2.09389 5.2 2.19996 5.2Z" fill="#333333"/>
</svg>
