<svg width="15" height="16" viewBox="0 0 15 16" fill="none" xmlns="http://www.w3.org/2000/svg">
<path d="M3.62074 6.98254C3.14054 6.98254 2.68014 7.17322 2.34061 7.51271C2.0011 7.85223 1.81044 8.31277 1.81044 8.79284V10.4635C1.01795 10.7128 0.39338 11.3276 0.131619 12.116C-0.129962 12.9045 0.00299153 13.7706 0.489171 14.4442C0.975332 15.1178 1.75558 15.5169 2.58631 15.5169C3.41704 15.5169 4.1971 15.1178 4.68326 14.4442C5.16943 13.7706 5.30238 12.9045 5.04082 12.116C4.77906 11.3276 4.15453 10.7128 3.362 10.4635V8.79284C3.362 8.65015 3.47781 8.53433 3.62069 8.53433H11.3793C11.4479 8.53433 11.5137 8.56157 11.5622 8.61009C11.6108 8.65862 11.638 8.72429 11.638 8.79284V10.4635C10.8455 10.7128 10.221 11.3276 9.95919 12.116C9.69761 12.9045 9.83057 13.7706 10.3167 14.4442C10.8029 15.1178 11.583 15.5169 12.4137 15.5169C13.2444 15.5169 14.0247 15.1178 14.5108 14.4442C14.997 13.7706 15.13 12.9045 14.8684 12.116C14.6066 11.3276 13.9821 10.7128 13.1896 10.4635V8.79284C13.1896 8.31277 12.9989 7.85224 12.6594 7.51271C12.3199 7.17319 11.8595 6.98253 11.3793 6.98253H8.27587V5.05336C9.06835 4.80405 9.69274 4.18924 9.9545 3.40091C10.2163 2.6124 10.0833 1.74629 9.59713 1.07268C9.11097 0.399062 8.33072 0 7.49999 0C6.66926 0 5.88901 0.399043 5.40285 1.07268C4.91669 1.74629 4.78373 2.6124 5.04548 3.40091C5.30724 4.18924 5.93162 4.80407 6.72411 5.05336V6.98253L3.62074 6.98254ZM2.58635 13.9653C2.31196 13.9653 2.04874 13.8563 1.85482 13.6624C1.66071 13.4683 1.55175 13.2053 1.55175 12.9309C1.55175 12.6565 1.66071 12.3935 1.85482 12.1994C2.04875 12.0054 2.31195 11.8965 2.58635 11.8965C2.86056 11.8965 3.12377 12.0054 3.31769 12.1994C3.5118 12.3935 3.62076 12.6565 3.62076 12.9309C3.62076 13.2053 3.5118 13.4683 3.31769 13.6624C3.12376 13.8563 2.86056 13.9653 2.58635 13.9653ZM12.4139 13.9653H12.4138C12.1396 13.9653 11.8763 13.8563 11.6824 13.6624C11.4883 13.4683 11.3793 13.2053 11.3793 12.9309C11.3793 12.6565 11.4883 12.3935 11.6824 12.1994C11.8764 12.0054 12.1396 11.8965 12.4138 11.8965C12.6882 11.8965 12.9514 12.0054 13.1453 12.1994C13.3394 12.3935 13.4484 12.6565 13.4484 12.9309C13.4484 13.2053 13.3394 13.4683 13.1453 13.6624C12.9514 13.8563 12.6882 13.9653 12.4138 13.9653H12.4139ZM7.50015 1.5515C7.77453 1.5515 8.03757 1.66046 8.23167 1.85439C8.4256 2.0485 8.53456 2.31152 8.53456 2.58592C8.53456 2.86032 8.4256 3.12334 8.23167 3.31745C8.03757 3.51138 7.77454 3.62034 7.50015 3.62034C7.22575 3.62034 6.96272 3.51138 6.76862 3.31745C6.57469 3.12334 6.46573 2.86032 6.46573 2.58592C6.46573 2.31152 6.57469 2.0485 6.76862 1.85439C6.96273 1.66046 7.22575 1.5515 7.50015 1.5515Z" fill="#343CED"/>
</svg>
