<svg viewBox="0 0 18 18" fill="none" xmlns="http://www.w3.org/2000/svg">
<path d="M4.67833 16.3421L7.03367 13.9867L7.97888 14.9319L7.97912 14.9322C8.36443 15.3124 8.88398 15.5256 9.4253 15.5256C9.96662 15.5256 10.4862 15.3124 10.8715 14.9322L10.8718 14.9318L12.1313 13.6644L12.1314 13.6643L16.914 8.88165C16.9569 8.84129 16.991 8.79262 17.0144 8.73862C17.0379 8.68435 17.05 8.62585 17.05 8.56673C17.05 8.5076 17.0379 8.4491 17.0144 8.39484C16.991 8.34083 16.9569 8.29216 16.914 8.25181L9.74818 1.08597C9.70783 1.04314 9.65917 1.00899 9.60516 0.985609C9.5509 0.962119 9.4924 0.95 9.43327 0.95C9.37414 0.95 9.31565 0.962119 9.26138 0.985609C9.20738 1.00899 9.15871 1.04314 9.11836 1.08597L4.33575 5.86858L4.33564 5.86869L3.06818 7.12817L3.06784 7.12852C2.68762 7.51383 2.47445 8.03338 2.47445 8.5747C2.47445 9.11602 2.68762 9.63557 3.06784 10.0209L3.06807 10.0211L4.01328 10.9663L1.65794 13.3217C1.44241 13.5157 1.26858 13.7515 1.14701 14.0147C1.02525 14.2784 0.958479 14.5641 0.950756 14.8544C0.943034 15.1448 0.994525 15.4336 1.10209 15.7034C1.20966 15.9732 1.37104 16.2182 1.57641 16.4236C1.78177 16.629 2.02682 16.7903 2.29659 16.8979C2.56637 17.0055 2.85523 17.057 3.14556 17.0492C3.43589 17.0415 3.7216 16.9747 3.98528 16.853C4.24855 16.7314 4.48434 16.5576 4.67833 16.3421ZM10.243 14.3032L10.2427 14.3034C10.1369 14.4105 10.0109 14.4956 9.87191 14.5536C9.73296 14.6117 9.58386 14.6416 9.43327 14.6416C9.28268 14.6416 9.13358 14.6117 8.99463 14.5536C8.85568 14.4956 8.72963 14.4105 8.6238 14.3034L8.62347 14.3031L7.35651 13.0441C7.31617 13.0013 7.26752 12.9671 7.21353 12.9438C7.15927 12.9203 7.10077 12.9081 7.04164 12.9081C6.98252 12.9081 6.92402 12.9203 6.86976 12.9438C6.81575 12.9671 6.76708 13.0013 6.72672 13.0441L4.03389 15.737C3.79549 15.9448 3.48709 16.0546 3.17092 16.044C2.8542 16.0334 2.55334 15.9028 2.32926 15.6787C2.10518 15.4546 1.97461 15.1538 1.964 14.8371C1.95341 14.5209 2.06315 14.2125 2.27102 13.9741L4.96386 11.2812C5.00669 11.2409 5.04084 11.1922 5.06422 11.1382C5.08771 11.084 5.09983 11.0255 5.09983 10.9663C5.09983 10.9072 5.08771 10.8487 5.06422 10.7944C5.04085 10.7405 5.00672 10.6918 4.96392 10.6515L3.70492 9.3845L3.70459 9.38417C3.59745 9.27834 3.51239 9.15229 3.45434 9.01334C3.39629 8.87439 3.36639 8.72529 3.36639 8.5747C3.36639 8.42411 3.39629 8.27501 3.45434 8.13606C3.51239 7.99711 3.59745 7.87106 3.70459 7.76523L3.7048 7.76501L4.65001 6.8198L11.1882 13.358L10.243 14.3032ZM11.8249 12.7212L5.28674 6.18307L9.43327 2.03655L11.1883 3.79155L9.91659 5.07099C9.87378 5.11133 9.83965 5.15999 9.81627 5.21398C9.79278 5.26824 9.78067 5.32674 9.78067 5.38586C9.78067 5.44499 9.79278 5.50349 9.81627 5.55775C9.83956 5.61153 9.87352 5.66001 9.91609 5.70026C9.95634 5.74283 10.0048 5.77679 10.0586 5.80007C10.1129 5.82356 10.1714 5.83568 10.2305 5.83568C10.2896 5.83568 10.3481 5.82356 10.4024 5.80007C10.4564 5.7767 10.505 5.74257 10.5453 5.69976L11.8248 4.42807L12.7829 5.38614L12.3081 5.86829C12.2654 5.90861 12.2313 5.95723 12.2079 6.01118C12.1844 6.06545 12.1723 6.12395 12.1723 6.18307C12.1723 6.2422 12.1844 6.3007 12.2079 6.35496C12.2312 6.40874 12.2651 6.45722 12.3077 6.49747C12.348 6.54004 12.3964 6.574 12.4502 6.59728C12.5045 6.62077 12.563 6.63289 12.6221 6.63289C12.6812 6.63289 12.7397 6.62077 12.794 6.59728C12.8479 6.57392 12.8966 6.53982 12.9369 6.49705L13.419 6.02232L14.3771 6.98039L13.1054 8.25983C13.0626 8.30017 13.0285 8.34882 13.0051 8.40281C12.9816 8.45707 12.9695 8.51557 12.9695 8.5747C12.9695 8.63383 12.9816 8.69233 13.0051 8.74659C13.0284 8.80036 13.0624 8.84885 13.1049 8.8891C13.1452 8.93167 13.1937 8.96563 13.2474 8.98891C13.3017 9.0124 13.3602 9.02452 13.4193 9.02452C13.4784 9.02452 13.5369 9.0124 13.5912 8.98891C13.6452 8.96554 13.6938 8.93141 13.7342 8.8886L15.0136 7.6169L15.9714 8.5747L11.8249 12.7212Z" fill="white" stroke="white" stroke-width="0.1"/>
</svg>
