<svg width="16" height="16" viewBox="0 0 16 16" fill="none" xmlns="http://www.w3.org/2000/svg">
<path fill-rule="evenodd" clip-rule="evenodd" d="M6.46875 1.17555C6.20486 1.39763 6.14118 1.67409 6.27826 2.00228C6.48215 2.4902 7.11826 2.58034 7.4634 2.1702C8.0207 1.50791 7.13104 0.618254 6.46875 1.17555ZM9.645 1.79867C9.4116 1.92548 9.27722 2.25075 9.33368 2.55187C9.45028 3.17318 10.2995 3.32332 10.6301 2.7811C10.7034 2.66089 10.7635 2.49374 10.7636 2.40957C10.7646 1.8561 10.1534 1.52235 9.645 1.79867ZM3.32799 2.24471C3.16528 2.40742 3.125 2.50825 3.125 2.75249C3.125 3.43735 3.90132 3.73124 4.3384 3.21187C4.73993 2.73464 4.43264 2.04173 3.81944 2.04173C3.59319 2.04173 3.48722 2.08555 3.32799 2.24471ZM13.8542 2.32964C13.7778 2.37117 12.302 3.81457 10.5747 5.53735L7.43396 8.66964L6.61535 7.86117C6.14056 7.39214 5.71694 7.03263 5.60674 7.00492C5.33535 6.9368 5.08194 7.01853 4.85222 7.24825C4.68806 7.41242 4.65278 7.50659 4.65278 7.78075V8.11381L5.88757 9.3486C7.05264 10.5137 7.13715 10.5834 7.38521 10.5834C7.52972 10.5834 7.71625 10.5489 7.79972 10.5067C8.01535 10.3977 14.78 3.64318 14.9003 3.41673C15.2526 2.75381 14.5046 1.97659 13.8542 2.32964ZM1.24465 4.32805C0.790417 4.78235 1.10368 5.51395 1.7525 5.51395C2.1816 5.51395 2.43056 5.25346 2.43056 4.8045C2.43056 4.53256 2.39854 4.4577 2.21688 4.30485C1.91042 4.047 1.51632 4.05638 1.24465 4.32805ZM13.7765 7.17437C13.4871 7.35075 13.4028 7.62937 13.4028 8.40916C13.4028 9.9995 12.8434 11.3963 11.7469 12.5439C10.5049 13.844 8.94826 14.4676 7.15681 14.3828C5.78938 14.318 4.7766 13.9293 3.83437 13.1076C3.18125 12.538 2.94111 12.4278 2.57042 12.5276C2.09 12.6569 1.82965 13.2808 2.07354 13.7178C2.31785 14.1556 3.65646 15.0694 4.60014 15.4426C5.65958 15.8615 6.23257 15.9633 7.5 15.9574C8.51556 15.9526 8.72479 15.9307 9.34028 15.765C12.7192 14.8554 15 11.8653 15 8.34548C15 7.57075 14.9118 7.31575 14.5856 7.14707C14.3119 7.00555 14.0381 7.01478 13.7765 7.17437ZM0.505833 7.2293C0.250764 7.27867 0 7.63846 0 7.9552C0 8.55499 0.697708 8.86096 1.16625 8.46673C1.56812 8.12853 1.4834 7.47936 1.01167 7.28228C0.877847 7.22638 0.743889 7.18485 0.714028 7.19006C0.684167 7.19527 0.590486 7.21291 0.505833 7.2293ZM0.682361 10.4245C0.208056 10.7187 0.241736 11.4305 0.741944 11.6864C1.13201 11.8858 1.5909 11.6832 1.73451 11.248C1.93806 10.6312 1.23549 10.0814 0.682361 10.4245Z" fill="#27AE60"/>
</svg>
