<svg width="16" height="16" viewBox="0 0 16 16" fill="none" xmlns="http://www.w3.org/2000/svg">
<path fill-rule="evenodd" clip-rule="evenodd" d="M12.2748 1.51572C12.6414 1.09065 12.6616 0.507092 12.3199 0.212294C11.9781 -0.0825033 11.4039 0.023098 11.0372 0.448161L9.26678 2.50055C9.23732 2.5347 9.2101 2.56988 9.18512 2.60585L7.49101 1.16972C7.18826 0.913069 6.73478 0.950442 6.47813 1.25319L2.76048 5.63865C2.19902 6.30097 1.92366 7.1592 1.99498 8.02454C2.03476 8.50724 2.18059 8.9701 2.41674 9.38251C2.37605 9.41312 2.33876 9.44895 2.30578 9.48997L1.91068 9.98133C1.37365 10.6492 1.16428 11.5355 1.32863 12.4453C1.49299 13.355 2.0176 14.2137 2.78706 14.8324C3.55652 15.4511 4.5078 15.7792 5.43163 15.7444C6.35546 15.7097 7.17616 15.3149 7.71319 14.647L8.10435 14.1606C8.52476 14.3032 8.97383 14.3602 9.42484 14.323C10.2902 14.2517 11.0918 13.8395 11.6532 13.1772L15.3709 8.79175C15.6275 8.489 15.5901 8.03551 15.2874 7.77887L13.7593 6.48346C13.8099 6.44054 13.8583 6.39273 13.9037 6.34017L15.7032 4.25401C16.0759 3.82195 16.101 3.23271 15.7592 2.93791C15.4175 2.64312 14.8383 2.75439 14.4656 3.18645L12.6661 5.27262C12.6175 5.32886 12.5749 5.38777 12.5382 5.44835L10.4224 3.65468C10.4507 3.62749 10.4781 3.59862 10.5044 3.56811L12.2748 1.51572ZM6.71372 13.2818L3.52657 10.58L3.1844 11.0055C2.88314 11.3802 2.76569 11.8774 2.85789 12.3877C2.95009 12.8981 3.24438 13.3798 3.67603 13.7269C4.10768 14.0739 4.64132 14.258 5.15957 14.2385C5.67781 14.219 6.13821 13.9975 6.43947 13.6229L6.71372 13.2818ZM3.85685 6.56806L7.10978 2.73079L13.8098 8.41052L10.5568 12.2478C10.2419 12.6193 9.79222 12.8505 9.30678 12.8906C8.82135 12.9306 8.3399 12.7761 7.96836 12.4611L4.07017 9.15655C3.69863 8.84159 3.46742 8.39193 3.42742 7.90649C3.38741 7.42105 3.54188 6.93961 3.85685 6.56806Z" fill="#333333"/>
</svg>
