<svg width="19" height="17" viewBox="0 0 19 17" fill="none" xmlns="http://www.w3.org/2000/svg">
<path d="M5.1665 16.3382L3.99984 15.1716L9.74984 9.40072L12.6665 12.3174L16.979 8.00488L18.1665 9.19238L12.6665 14.6715L9.74984 11.7549L5.1665 16.3382ZM2.33317 15.5049C1.87484 15.5049 1.48248 15.3417 1.15609 15.0153C0.829698 14.6889 0.666504 14.2965 0.666504 13.8382V2.17155C0.666504 1.71322 0.829698 1.32086 1.15609 0.994466C1.48248 0.668077 1.87484 0.504883 2.33317 0.504883H13.9998C14.4582 0.504883 14.8505 0.668077 15.1769 0.994466C15.5033 1.32086 15.6665 1.71322 15.6665 2.17155V5.67155H2.33317V15.5049ZM2.33317 4.00488H13.9998V2.17155H2.33317V4.00488Z" fill="#1B1B1B"/>
</svg>
