<svg width="16" height="16" viewBox="0 0 16 16" fill="none" xmlns="http://www.w3.org/2000/svg">
<path fill-rule="evenodd" clip-rule="evenodd" d="M11.9927 16C12.132 15.4924 12.3436 15.012 12.6148 14.5696C13.1036 13.7724 13.7858 13.0987 14.5862 12.6123C15.0259 12.3451 15.5013 12.1344 16 11.9908C15.5007 11.847 15.0247 11.6373 14.5845 11.3715C13.785 10.8887 13.1036 10.221 12.6152 9.42805C12.3438 8.98733 12.132 8.5079 11.9927 8C11.8532 8.50838 11.6421 8.98824 11.3718 9.42931C10.8863 10.2215 10.2097 10.8886 9.41362 11.3711C8.97471 11.6371 8.4995 11.847 8 11.9908C8.49891 12.1345 8.97358 12.3453 9.41203 12.6127C10.2091 13.0988 10.8865 13.7719 11.3724 14.5683C11.6425 15.0111 11.8534 15.4919 11.9927 16Z" fill="#333333"/>
<path d="M1 2L12 2" stroke="#333333" stroke-width="1.5" stroke-linecap="round"/>
<path d="M1 10L6 10" stroke="#333333" stroke-width="1.5" stroke-linecap="round"/>
<path d="M1 6L15 6" stroke="#333333" stroke-width="1.5" stroke-linecap="round"/>
</svg>
