<svg width="18" height="20" viewBox="0 0 18 20" fill="none" xmlns="http://www.w3.org/2000/svg">
<path d="M7.41416 19C7.12178 18.9998 6.88494 18.7629 6.8847 18.4706V14.7647H3.32011C2.58075 14.7638 1.87189 14.4697 1.34909 13.9469C0.826292 13.4241 0.532218 12.7154 0.53125 11.9761V3.78864C0.532195 3.04934 0.826232 2.34053 1.34909 1.81777C1.87195 1.29502 2.58075 1.00097 3.32011 1H14.6849C15.4243 1.00095 16.1332 1.29496 16.6559 1.81777C17.1787 2.34059 17.4728 3.04934 17.4738 3.78864V11.9761C17.4728 12.7154 17.1788 13.4242 16.6559 13.9469C16.1331 14.4697 15.4243 14.7637 14.6849 14.7647H11.0567L7.82707 18.8015C7.72661 18.9267 7.57488 18.9998 7.41416 19ZM3.32011 2.05882C2.86157 2.0593 2.42167 2.24175 2.09741 2.56602C1.77311 2.89028 1.59064 3.33012 1.59017 3.78862V11.976C1.59064 12.4346 1.77311 12.8744 2.09741 13.1987C2.4217 13.5229 2.86157 13.7054 3.32011 13.7058H7.41416C7.55456 13.7058 7.68929 13.7616 7.78856 13.8609C7.88783 13.9602 7.94361 14.0949 7.94361 14.2353V16.9615L10.3893 13.9044C10.4897 13.7789 10.6419 13.7057 10.8027 13.7059H14.6849C15.1435 13.7054 15.5834 13.523 15.9076 13.1987C16.2319 12.8744 16.4144 12.4346 16.4149 11.9761V3.78867C16.4144 3.33017 16.2319 2.89031 15.9076 2.56607C15.5833 2.2418 15.1435 2.05934 14.6849 2.05887L3.32011 2.05882Z" fill="white" stroke="white" stroke-width="0.370592"/>
<path d="M9.00664 10.0006C8.71426 10.0006 8.47719 9.7635 8.47719 9.47114C8.47648 9.10528 8.58449 8.74769 8.78753 8.4433C8.99033 8.13889 9.27917 7.90183 9.61717 7.7619C9.97313 7.61395 10.2632 7.34191 10.4333 6.99592C10.6035 6.65015 10.642 6.25426 10.542 5.88228C10.4418 5.51004 10.21 5.18696 9.88946 4.97308C9.56895 4.75895 9.18132 4.66891 8.79932 4.71948C8.41713 4.76983 8.06638 4.95748 7.8123 5.24724C7.55845 5.537 7.41828 5.90922 7.41828 6.29469C7.41828 6.58705 7.18121 6.8241 6.88883 6.8241C6.59645 6.8241 6.35938 6.58705 6.35938 6.29469C6.35914 5.65232 6.59243 5.03191 7.01578 4.5486C7.4391 4.06551 8.02362 3.75261 8.66041 3.66845C9.29715 3.58407 9.9429 3.73415 10.4773 4.09056C11.0117 4.44697 11.3984 4.9856 11.5653 5.60577C11.7321 6.22618 11.6679 6.88603 11.3845 7.46228C11.1011 8.03872 10.6177 8.49248 10.0244 8.73922C9.72847 8.86164 9.53559 9.15069 9.53606 9.4712C9.53606 9.61158 9.48028 9.7463 9.38101 9.84557C9.28174 9.94483 9.14701 10.0006 9.00661 10.0006L9.00664 10.0006Z" fill="white" stroke="white" stroke-width="0.370592"/>
<path d="M9.52766 11.5887C9.52766 11.8811 9.29058 12.1181 8.9982 12.1181C8.70582 12.1181 8.46875 11.8811 8.46875 11.5887C8.46875 11.2964 8.70582 11.0593 8.9982 11.0593C9.29058 11.0593 9.52766 11.2964 9.52766 11.5887Z" fill="white" stroke="white" stroke-width="0.370592"/>
</svg>
