<svg width="16" height="16" viewBox="0 0 16 16" fill="none" xmlns="http://www.w3.org/2000/svg">
<path d="M10.1297 4.89583C10.1297 4.36806 9.94216 3.93403 9.56716 3.59375C9.19216 3.25347 8.713 3.08333 8.12966 3.08333C7.76855 3.08333 7.43869 3.16319 7.14008 3.32292C6.84147 3.48264 6.58105 3.70833 6.35883 4C5.56632 5.21962 5.75696 5 5.60484 5.2118C5.30623 5.28125 4.60485 5.2118 4.4838 5.10764C4.20602 4.94097 4.10485 4.7118 4.10485 4.7118C4.04929 4.45486 3.75696 4 4.48383 2.9375C5.25696 2 5.41091 1.85069 6.05675 1.51042C6.70258 1.17014 7.39355 1 8.12966 1C9.36578 1 10.3727 1.35764 11.1505 2.07292C11.9283 2.78819 12.3172 3.70833 12.3172 4.83333C12.3172 5.41667 12.1887 5.94792 11.9317 6.42708C11.6748 6.90625 11.213 7.45833 10.5463 8.08333C10.1019 8.48611 9.80328 8.8125 9.6505 9.0625C9.49772 9.3125 9.39355 9.59722 9.338 9.91667C9.28244 10.2361 9.14703 10.4965 8.93175 10.6979C8.71647 10.8993 8.463 11 8.17133 11C7.86578 11 7.60883 10.8993 7.4005 10.6979C7.19216 10.4965 7.088 10.2569 7.088 9.97917C7.088 9.46528 7.20953 8.98264 7.45258 8.53125C7.69564 8.07986 8.08105 7.63194 8.60883 7.1875C9.20605 6.65972 9.60883 6.24306 9.81716 5.9375C10.0255 5.63194 10.1297 5.28472 10.1297 4.89583ZM8.12966 15.5C7.713 15.5 7.35883 15.3542 7.06716 15.0625C6.7755 14.7708 6.62966 14.4167 6.62966 14C6.62966 13.5833 6.7755 13.2292 7.06716 12.9375C7.35883 12.6458 7.713 12.5 8.12966 12.5C8.54633 12.5 8.9005 12.6458 9.19216 12.9375C9.48383 13.2292 9.62966 13.5833 9.62966 14C9.62966 14.4167 9.48383 14.7708 9.19216 15.0625C8.9005 15.3542 8.54633 15.5 8.12966 15.5Z" fill="#1F1F1F"/>
</svg>
