<svg xmlns="http://www.w3.org/2000/svg" width="20" height="21" viewBox="0 0 20 21" fill="none">
  <path fill-rule="evenodd" clip-rule="evenodd"
    d="M8.29763 16.4387C7.72695 16.7453 7.17521 16.9889 6.65613 17.1674C4.81246 17.8011 3.99887 17.4481 3.76967 17.2189C3.54047 16.9897 3.18746 16.1761 3.82122 14.3325C3.99968 13.8133 4.24334 13.2615 4.55007 12.6907C5.07484 13.3649 5.66327 14.0327 6.3104 14.6799C6.95691 15.3264 7.6241 15.9143 8.29763 16.4387ZM10.001 15.369C9.21255 14.8024 8.41421 14.1285 7.63797 13.3523C6.86108 12.5754 6.18674 11.7764 5.61988 10.9872C6.18656 10.1985 6.8606 9.3999 7.63709 8.62341C8.41361 7.84689 9.21227 7.17282 10.001 6.60613C10.7901 7.17298 11.5892 7.84732 12.3661 8.6242C13.1423 9.40043 13.8162 10.1988 14.3827 10.9872C13.816 11.7761 13.1418 12.5749 12.3652 13.3515C11.5886 14.1281 10.7899 14.8022 10.001 15.369ZM10.0009 17.6234C6.88935 19.5347 3.8996 20.004 2.4421 18.5465C0.984514 17.0889 1.45395 14.0989 3.36549 10.9871C1.45469 7.87588 0.985624 4.88657 2.44298 3.42922C3.90035 1.97185 6.88967 2.44092 10.0009 4.35174C13.1127 2.44026 16.1026 1.97086 17.5602 3.42843C19.0177 4.88591 18.5484 7.8756 16.6372 10.9871C18.5491 14.0992 19.0188 17.0896 17.5611 18.5473C16.1034 20.005 13.113 19.5354 10.0009 17.6234ZM15.4526 12.6905C15.7596 13.2617 16.0034 13.8138 16.1819 14.3333C16.8157 16.1769 16.4627 16.9905 16.2335 17.2197C16.0043 17.4489 15.1907 17.8019 13.347 17.1682C12.8276 16.9896 12.2754 16.7458 11.7043 16.4388C12.3783 15.9142 13.0459 15.326 13.6928 14.6791C14.3397 14.0322 14.9279 13.3645 15.4526 12.6905ZM15.4524 9.28382C15.7591 8.71319 16.0026 8.1615 16.1811 7.64246C16.8148 5.79879 16.4618 4.9852 16.2326 4.756C16.0034 4.5268 15.1898 4.17378 13.3461 4.80755C12.827 4.986 12.2752 5.22963 11.7045 5.53632C12.3787 6.06109 13.0465 6.64951 13.6936 7.29663C14.3401 7.94313 14.928 8.6103 15.4524 9.28382ZM8.29746 5.53647C7.72716 5.23007 7.17578 4.98666 6.65702 4.80833C4.81334 4.17457 3.99976 4.52759 3.77056 4.75679C3.54136 4.98599 3.18834 5.79958 3.8221 7.64325C4.00043 8.16201 4.24384 8.71338 4.55023 9.28368C5.07474 8.60994 5.66281 7.94254 6.30951 7.29584C6.95625 6.6491 7.62369 6.061 8.29746 5.53647Z"
    fill="#333333" />
</svg>
