<svg width="16" height="16" viewBox="0 0 16 16" fill="none" xmlns="http://www.w3.org/2000/svg">
<path d="M8.15137 2.44055C8.44424 2.73342 8.44419 3.20819 8.15137 3.50109L6.03027 5.62316C5.73743 5.9158 5.26257 5.9158 4.96973 5.62316C4.6769 5.33033 4.67702 4.85553 4.96973 4.56262L5.78223 3.75012H4.75C3.50736 3.75012 2.5 4.75748 2.5 6.00012V10.0001C2.50015 11.2426 3.50745 12.2501 4.75 12.2501C5.16421 12.2501 5.5 12.5859 5.5 13.0001C5.49985 13.4142 5.16412 13.7501 4.75 13.7501C2.67902 13.7501 1.00015 12.0711 1 10.0001V6.00012C1 3.92905 2.67893 2.25012 4.75 2.25012H5.83984L4.96973 1.38C4.6769 1.0871 4.67686 0.612322 4.96973 0.319453C5.2626 0.0266538 5.7374 0.0266538 6.03027 0.319453L8.15137 2.44055ZM15 10.0001C14.9999 12.0711 13.321 13.7501 11.25 13.7501H10.2188L11.0303 14.5626C11.323 14.8555 11.3231 15.3303 11.0303 15.6232C10.7374 15.9158 10.2626 15.9158 9.96973 15.6232L7.84863 13.5011C7.55581 13.2082 7.55576 12.7334 7.84863 12.4405L9.96973 10.3195C10.2626 10.0267 10.7374 10.0267 11.0303 10.3195C11.3231 10.6123 11.3231 11.0871 11.0303 11.38L10.1602 12.2501H11.25C12.4926 12.2501 13.4999 11.2426 13.5 10.0001V6.00012C13.5 4.75748 12.4926 3.75012 11.25 3.75012C10.8359 3.75012 10.5001 3.41421 10.5 3.00012C10.5 2.5859 10.8358 2.25012 11.25 2.25012C13.3211 2.25012 15 3.92905 15 6.00012V10.0001Z" fill="#1B1B1B"/>
</svg>
