<svg width="24" height="24" viewBox="0 0 24 24" fill="none" xmlns="http://www.w3.org/2000/svg">
<mask id="mask0_3105_258371" style="mask-type:alpha" maskUnits="userSpaceOnUse" x="0" y="0" width="24" height="24">
<rect width="24" height="24" fill="#D9D9D9"/>
</mask>
<g mask="url(#mask0_3105_258371)">
<path d="M6.12505 12.149L3.80005 11.149C3.46672 11.0157 3.27105 10.774 3.21305 10.424C3.15438 10.074 3.25005 9.77405 3.50005 9.52405L6.65005 6.37405C6.88338 6.14072 7.15838 5.97405 7.47505 5.87405C7.79172 5.77405 8.11672 5.75738 8.45005 5.82405L9.75005 6.09905C8.86672 7.14905 8.16272 8.10338 7.63805 8.96205C7.11272 9.82005 6.60838 10.8824 6.12505 12.149ZM20.8251 2.39905C20.9584 2.39905 21.0917 2.43238 21.225 2.49905C21.3584 2.56572 21.4751 2.64905 21.5751 2.74905C21.6751 2.84905 21.7584 2.96572 21.8251 3.09905C21.8917 3.23238 21.925 3.36572 21.925 3.49905C21.9917 5.04905 21.6627 6.65738 20.938 8.32405C20.2127 9.99072 19.1917 11.4824 17.875 12.799C16.975 13.699 16.1084 14.4197 15.275 14.961C14.4417 15.503 13.4584 16.0157 12.325 16.499C12.1084 16.5824 11.8877 16.624 11.663 16.624C11.4377 16.624 11.2417 16.5407 11.075 16.374L7.95005 13.249C7.78338 13.0824 7.70005 12.8864 7.70005 12.661C7.70005 12.4364 7.74172 12.2157 7.82505 11.999C8.30838 10.8824 8.82105 9.90305 9.36305 9.06105C9.90438 8.21972 10.625 7.34905 11.525 6.44905C12.8417 5.13238 14.3334 4.11138 16 3.38605C17.6667 2.66138 19.2751 2.33238 20.8251 2.39905ZM14.475 9.84905C14.8584 10.2324 15.3294 10.424 15.888 10.424C16.446 10.424 16.9167 10.2324 17.3 9.84905C17.6834 9.46572 17.875 8.99472 17.875 8.43605C17.875 7.87805 17.6834 7.40738 17.3 7.02405C16.9167 6.64072 16.446 6.44905 15.888 6.44905C15.3294 6.44905 14.8584 6.64072 14.475 7.02405C14.0917 7.40738 13.9 7.87805 13.9 8.43605C13.9 8.99472 14.0917 9.46572 14.475 9.84905ZM12.175 18.199C13.4417 17.7157 14.5084 17.2117 15.375 16.687C16.2417 16.1617 17.2 15.4574 18.25 14.574L18.5 15.874C18.5667 16.2074 18.5501 16.5367 18.4501 16.8621C18.3501 17.1867 18.1834 17.4657 17.95 17.699L14.8 20.8491C14.55 21.0991 14.25 21.1907 13.9 21.1241C13.55 21.0574 13.3084 20.8574 13.175 20.524L12.175 18.199ZM4.05005 16.049C4.63338 15.4657 5.34172 15.1697 6.17505 15.161C7.00838 15.153 7.71672 15.4407 8.30005 16.024C8.88338 16.6074 9.17505 17.3157 9.17505 18.149C9.17505 18.9824 8.88338 19.6907 8.30005 20.274C7.88338 20.6907 7.18772 21.0491 6.21305 21.3491C5.23772 21.6491 3.89172 21.9157 2.17505 22.149C2.40838 20.4324 2.67505 19.0907 2.97505 18.124C3.27505 17.1574 3.63338 16.4657 4.05005 16.049Z" fill="#333333"/>
</g>
</svg>
