<svg width="24" height="24" viewBox="0 0 24 24" fill="none" xmlns="http://www.w3.org/2000/svg">
<mask id="mask0_3105_258370" style="mask-type:alpha" maskUnits="userSpaceOnUse" x="0" y="0" width="24" height="24">
<rect width="24" height="24" fill="#D9D9D9"/>
</mask>
<g mask="url(#mask0_3105_258370)">
<path d="M7.10005 11.3487C7.33338 10.8821 7.57505 10.4321 7.82505 9.99874C8.07505 9.5654 8.35005 9.13207 8.65005 8.69874L7.25005 8.42374L5.15005 10.5237L7.10005 11.3487ZM19.15 4.47374C17.9834 4.50707 16.7377 4.84874 15.413 5.49874C14.0877 6.14874 12.8834 7.0154 11.8 8.09874C11.1 8.79874 10.475 9.54874 9.92505 10.3487C9.37505 11.1487 8.96672 11.8987 8.70005 12.5987L11.55 15.4237C12.25 15.1571 13 14.7487 13.8 14.1987C14.6 13.6487 15.35 13.0237 16.05 12.3237C17.1334 11.2404 18 10.0404 18.65 8.72374C19.3 7.40707 19.6417 6.1654 19.675 4.99874C19.675 4.93207 19.6627 4.8654 19.6381 4.79874C19.6127 4.73207 19.575 4.67374 19.525 4.62374C19.475 4.57374 19.4167 4.53607 19.35 4.51074C19.2834 4.48607 19.2167 4.47374 19.15 4.47374ZM13.65 10.4737C13.2667 10.0904 13.075 9.6194 13.075 9.06074C13.075 8.50274 13.2667 8.03207 13.65 7.64874C14.0334 7.2654 14.5084 7.07374 15.075 7.07374C15.6417 7.07374 16.1167 7.2654 16.5 7.64874C16.8834 8.03207 17.075 8.50274 17.075 9.06074C17.075 9.6194 16.8834 10.0904 16.5 10.4737C16.1167 10.8571 15.6417 11.0487 15.075 11.0487C14.5084 11.0487 14.0334 10.8571 13.65 10.4737ZM12.8 17.0237L13.625 18.9987L15.725 16.8987L15.45 15.4987C15.0167 15.7987 14.5834 16.0694 14.15 16.3107C13.7167 16.5527 13.2667 16.7904 12.8 17.0237ZM21.5751 3.67374C21.7084 5.50707 21.4084 7.2944 20.675 9.03574C19.9417 10.7777 18.7834 12.4404 17.2 14.0237L17.7 16.4987C17.7667 16.8321 17.75 17.1571 17.65 17.4737C17.55 17.7904 17.3834 18.0654 17.15 18.2987L14 21.4487C13.75 21.6987 13.45 21.7944 13.1 21.7357C12.75 21.6777 12.5084 21.4821 12.375 21.1487L10.85 17.5737L6.57505 13.2987L3.00005 11.7737C2.66672 11.6404 2.46672 11.3987 2.40005 11.0487C2.33338 10.6987 2.42505 10.3987 2.67505 10.1487L5.82505 6.99874C6.05838 6.7654 6.33772 6.59874 6.66305 6.49874C6.98772 6.39874 7.31672 6.38207 7.65005 6.44874L10.125 6.94874C11.7084 5.3654 13.371 4.20707 15.113 3.47374C16.8544 2.7404 18.6417 2.4404 20.475 2.57374C20.6084 2.5904 20.7417 2.62774 20.875 2.68574C21.0084 2.7444 21.125 2.82374 21.225 2.92374C21.325 3.02374 21.404 3.1404 21.462 3.27374C21.5207 3.40707 21.5584 3.5404 21.5751 3.67374ZM3.92505 15.9737C4.50838 15.3904 5.22072 15.0944 6.06205 15.0857C6.90405 15.0777 7.61672 15.3654 8.20005 15.9487C8.78338 16.5321 9.07072 17.2444 9.06205 18.0857C9.05405 18.9277 8.75838 19.6404 8.17505 20.2237C7.75838 20.6404 7.06272 20.9987 6.08805 21.2987C5.11272 21.5987 3.76672 21.8654 2.05005 22.0987C2.28338 20.3821 2.55005 19.0361 2.85005 18.0607C3.15005 17.0861 3.50838 16.3904 3.92505 15.9737ZM5.35005 17.3737C5.18338 17.5404 5.01672 17.8447 4.85005 18.2867C4.68338 18.7281 4.56672 19.1737 4.50005 19.6237C4.95005 19.5571 5.39605 19.4447 5.83805 19.2867C6.27938 19.1281 6.58338 18.9654 6.75005 18.7987C6.95005 18.5987 7.05838 18.3571 7.07505 18.0737C7.09172 17.7904 7.00005 17.5487 6.80005 17.3487C6.60005 17.1487 6.35838 17.0527 6.07505 17.0607C5.79172 17.0694 5.55005 17.1737 5.35005 17.3737Z" fill="#333333"/>
</g>
</svg>
