<svg width="16" height="16" viewBox="0 0 16 16" fill="none" xmlns="http://www.w3.org/2000/svg">
<path d="M9.53613 15C9.81217 15.0001 10.0361 15.2239 10.0361 15.5C10.0361 15.7761 9.81217 15.9999 9.53613 16H6.46484C6.1887 16 5.96484 15.7761 5.96484 15.5C5.96484 15.2239 6.1887 15 6.46484 15H9.53613Z" fill="black"/>
<path fill-rule="evenodd" clip-rule="evenodd" d="M14.25 4.5C14.6642 4.5 15 4.83579 15 5.25V10.75C15 11.1642 14.6642 11.5 14.25 11.5H1.75C1.33579 11.5 1 11.1642 1 10.75V5.25C1 4.83579 1.33579 4.5 1.75 4.5H14.25ZM2 10.5H14V5.5H2V10.5Z" fill="black"/>
<path d="M9.53613 0C9.81217 0.000119536 10.0361 0.223931 10.0361 0.5C10.0361 0.776069 9.81217 0.99988 9.53613 1H6.46484C6.1887 1 5.96484 0.776142 5.96484 0.5C5.96484 0.223858 6.1887 0 6.46484 0H9.53613Z" fill="black"/>
</svg>
