<svg width="16" height="16" viewBox="0 0 16 16" fill="none" xmlns="http://www.w3.org/2000/svg">
<mask id="mask0_6025_37972" style="mask-type:alpha" maskUnits="userSpaceOnUse" x="0" y="0" width="16" height="16">
<rect width="16" height="16" fill="#D9D9D9"/>
</mask>
<g mask="url(#mask0_6025_37972)">
<path d="M5.33334 8.00065V9.33398C5.33334 10.0673 5.59445 10.6951 6.11668 11.2173C6.6389 11.7395 7.26668 12.0007 8.00001 12.0007C8.73334 12.0007 9.36112 11.7395 9.88334 11.2173C10.4056 10.6951 10.6667 10.0673 10.6667 9.33398V8.00065H5.33334ZM8.00001 11.0007C7.53334 11.0007 7.1389 10.8395 6.81668 10.5173C6.49445 10.1951 6.33334 9.80065 6.33334 9.33398V9.00065H9.66668V9.33398C9.66668 9.80065 9.50557 10.1951 9.18334 10.5173C8.86112 10.8395 8.46668 11.0007 8.00001 11.0007ZM5.66668 4.66732C5.24445 4.66732 4.86945 4.8201 4.54168 5.12565C4.2139 5.43121 3.98334 5.85065 3.85001 6.38398L4.81668 6.61732C4.88334 6.32843 4.99445 6.09787 5.15001 5.92565C5.30557 5.75343 5.47779 5.66732 5.66668 5.66732C5.85557 5.66732 6.02779 5.75343 6.18334 5.92565C6.3389 6.09787 6.45001 6.32843 6.51668 6.61732L7.48334 6.38398C7.35001 5.85065 7.11945 5.43121 6.79168 5.12565C6.4639 4.8201 6.0889 4.66732 5.66668 4.66732ZM10.3333 4.66732C9.91112 4.66732 9.53612 4.8201 9.20834 5.12565C8.88057 5.43121 8.65001 5.85065 8.51668 6.38398L9.48334 6.61732C9.55001 6.32843 9.66112 6.09787 9.81668 5.92565C9.97223 5.75343 10.1445 5.66732 10.3333 5.66732C10.5222 5.66732 10.6945 5.75343 10.85 5.92565C11.0056 6.09787 11.1167 6.32843 11.1833 6.61732L12.15 6.38398C12.0167 5.85065 11.7861 5.43121 11.4583 5.12565C11.1306 4.8201 10.7556 4.66732 10.3333 4.66732ZM8.00001 14.6673C7.07779 14.6673 6.21112 14.4923 5.40001 14.1423C4.5889 13.7923 3.88334 13.3173 3.28334 12.7173C2.68334 12.1173 2.20834 11.4118 1.85834 10.6007C1.50834 9.78954 1.33334 8.92287 1.33334 8.00065C1.33334 7.07843 1.50834 6.21176 1.85834 5.40065C2.20834 4.58954 2.68334 3.88398 3.28334 3.28398C3.88334 2.68398 4.5889 2.20898 5.40001 1.85898C6.21112 1.50898 7.07779 1.33398 8.00001 1.33398C8.92223 1.33398 9.7889 1.50898 10.6 1.85898C11.4111 2.20898 12.1167 2.68398 12.7167 3.28398C13.3167 3.88398 13.7917 4.58954 14.1417 5.40065C14.4917 6.21176 14.6667 7.07843 14.6667 8.00065C14.6667 8.92287 14.4917 9.78954 14.1417 10.6007C13.7917 11.4118 13.3167 12.1173 12.7167 12.7173C12.1167 13.3173 11.4111 13.7923 10.6 14.1423C9.7889 14.4923 8.92223 14.6673 8.00001 14.6673ZM8.00001 13.334C9.4889 13.334 10.75 12.8173 11.7833 11.784C12.8167 10.7507 13.3333 9.48954 13.3333 8.00065C13.3333 6.51176 12.8167 5.25065 11.7833 4.21732C10.75 3.18398 9.4889 2.66732 8.00001 2.66732C6.51112 2.66732 5.25001 3.18398 4.21668 4.21732C3.18334 5.25065 2.66668 6.51176 2.66668 8.00065C2.66668 9.48954 3.18334 10.7507 4.21668 11.784C5.25001 12.8173 6.51112 13.334 8.00001 13.334Z" fill="#1C1B1F"/>
</g>
</svg>
