<svg width="24" height="24" viewBox="0 0 24 24" fill="none" xmlns="http://www.w3.org/2000/svg">
<path fill-rule="evenodd" clip-rule="evenodd" d="M13.875 5C13.875 2.72183 15.7218 0.875 18 0.875C20.2782 0.875 22.125 2.72183 22.125 5C22.125 7.27817 20.2782 9.125 18 9.125C15.7218 9.125 13.875 7.27817 13.875 5Z" fill="#343CED"/>
<path fill-rule="evenodd" clip-rule="evenodd" d="M1.875 12C1.875 9.72183 3.72183 7.875 6 7.875C8.27817 7.875 10.125 9.72183 10.125 12C10.125 14.2782 8.27817 16.125 6 16.125C3.72183 16.125 1.875 14.2782 1.875 12Z" fill="#343CED"/>
<path fill-rule="evenodd" clip-rule="evenodd" d="M13.875 19C13.875 16.7218 15.7218 14.875 18 14.875C20.2782 14.875 22.125 16.7218 22.125 19C22.125 21.2782 20.2782 23.125 18 23.125C15.7218 23.125 13.875 21.2782 13.875 19Z" fill="#343CED"/>
<path fill-rule="evenodd" clip-rule="evenodd" d="M7.61802 12.9455C7.93084 12.4087 8.61961 12.2271 9.15644 12.5399L15.9864 16.5199C16.5233 16.8327 16.7049 17.5215 16.392 18.0583C16.0792 18.5951 15.3904 18.7767 14.8536 18.4639L8.02362 14.4839C7.48679 14.1711 7.3052 13.4823 7.61802 12.9455Z" fill="#343CED"/>
<path fill-rule="evenodd" clip-rule="evenodd" d="M16.3817 5.94487C16.6948 6.4815 16.5137 7.17039 15.9771 7.48355L9.15706 11.4635C8.62043 11.7767 7.93154 11.5956 7.61838 11.0589C7.30522 10.5223 7.48637 9.83342 8.02299 9.52025L14.843 5.54025C15.3796 5.22709 16.0685 5.40824 16.3817 5.94487Z" fill="#343CED"/>
</svg>
