<svg width="16" height="17" viewBox="0 0 16 17" fill="none" xmlns="http://www.w3.org/2000/svg">
<path fill-rule="evenodd" clip-rule="evenodd" d="M12.6667 3.25C12.9888 3.25 13.25 3.51117 13.25 3.83333V13.1667C13.25 13.4888 12.9888 13.75 12.6667 13.75H3.33333C3.01117 13.75 2.75 13.4888 2.75 13.1667V3.83333C2.75 3.51117 3.01117 3.25 3.33333 3.25H12.6667ZM14.75 3.83333C14.75 2.68274 13.8173 1.75 12.6667 1.75H3.33333C2.18274 1.75 1.25 2.68274 1.25 3.83333V13.1667C1.25 14.3173 2.18274 15.25 3.33333 15.25H12.6667C13.8173 15.25 14.75 14.3173 14.75 13.1667V3.83333Z" fill="#727272"/>
<path fill-rule="evenodd" clip-rule="evenodd" d="M10 1.75C9.58579 1.75 9.25 2.08579 9.25 2.5V14.5C9.25 14.9142 9.58579 15.25 10 15.25C10.4142 15.25 10.75 14.9142 10.75 14.5V2.5C10.75 2.08579 10.4142 1.75 10 1.75Z" fill="#727272"/>
<rect x="10" y="2.5" width="4" height="12" fill="#727272"/>
</svg>
