<svg width="16" height="16" viewBox="0 0 16 16" fill="none" xmlns="http://www.w3.org/2000/svg">
<g clip-path="url(#clip0_390_42365)">
<path fill-rule="evenodd" clip-rule="evenodd" d="M9.66699 2.08398C9.52787 2.08398 9.41699 2.19486 9.41699 2.33398V5.66732C9.41699 5.80644 9.52787 5.91732 9.66699 5.91732C9.80611 5.91732 9.91699 5.80644 9.91699 5.66732V2.33398C9.91699 2.19486 9.80611 2.08398 9.66699 2.08398ZM7.91699 2.33398C7.91699 1.36644 8.69945 0.583984 9.66699 0.583984C10.6345 0.583984 11.417 1.36644 11.417 2.33398V5.66732C11.417 6.63486 10.6345 7.41732 9.66699 7.41732C8.69945 7.41732 7.91699 6.63486 7.91699 5.66732V2.33398Z" fill="#333333"/>
<path fill-rule="evenodd" clip-rule="evenodd" d="M13.667 5.41602C13.5279 5.41602 13.417 5.5269 13.417 5.66602V5.91602H13.667C13.8061 5.91602 13.917 5.80514 13.917 5.66602C13.917 5.5269 13.8061 5.41602 13.667 5.41602ZM11.917 5.66602C11.917 4.69847 12.6994 3.91602 13.667 3.91602C14.6345 3.91602 15.417 4.69847 15.417 5.66602C15.417 6.63356 14.6345 7.41602 13.667 7.41602H12.667C12.2528 7.41602 11.917 7.08023 11.917 6.66602V5.66602Z" fill="#333333"/>
<path fill-rule="evenodd" clip-rule="evenodd" d="M6.33301 10.084C6.19389 10.084 6.08301 10.1949 6.08301 10.334V13.6673C6.08301 13.8064 6.19389 13.9173 6.33301 13.9173C6.47213 13.9173 6.58301 13.8064 6.58301 13.6673V10.334C6.58301 10.1949 6.47213 10.084 6.33301 10.084ZM4.58301 10.334C4.58301 9.36644 5.36546 8.58398 6.33301 8.58398C7.30055 8.58398 8.08301 9.36644 8.08301 10.334V13.6673C8.08301 14.6349 7.30055 15.4173 6.33301 15.4173C5.36546 15.4173 4.58301 14.6349 4.58301 13.6673V10.334Z" fill="#333333"/>
<path fill-rule="evenodd" clip-rule="evenodd" d="M2.33301 10.084C2.19389 10.084 2.08301 10.1949 2.08301 10.334C2.08301 10.4731 2.19389 10.584 2.33301 10.584C2.47213 10.584 2.58301 10.4731 2.58301 10.334V10.084H2.33301ZM0.583008 10.334C0.583008 9.36644 1.36546 8.58398 2.33301 8.58398H3.33301C3.74722 8.58398 4.08301 8.91977 4.08301 9.33398V10.334C4.08301 11.3015 3.30055 12.084 2.33301 12.084C1.36546 12.084 0.583008 11.3015 0.583008 10.334Z" fill="#333333"/>
<path fill-rule="evenodd" clip-rule="evenodd" d="M10.333 9.41602C10.1939 9.41602 10.083 9.5269 10.083 9.66602C10.083 9.80514 10.1939 9.91602 10.333 9.91602H13.6663C13.8055 9.91602 13.9163 9.80514 13.9163 9.66602C13.9163 9.5269 13.8055 9.41602 13.6663 9.41602H10.333ZM8.58301 9.66602C8.58301 8.69847 9.36546 7.91602 10.333 7.91602H13.6663C14.6339 7.91602 15.4163 8.69847 15.4163 9.66602C15.4163 10.6336 14.6339 11.416 13.6663 11.416H10.333C9.36546 11.416 8.58301 10.6336 8.58301 9.66602Z" fill="#333333"/>
<path fill-rule="evenodd" clip-rule="evenodd" d="M8.58301 12.666C8.58301 12.2518 8.91879 11.916 9.33301 11.916H10.333C11.3006 11.916 12.083 12.6985 12.083 13.666C12.083 14.6336 11.3006 15.416 10.333 15.416C9.36546 15.416 8.58301 14.6336 8.58301 13.666V12.666ZM10.083 13.416V13.666C10.083 13.8051 10.1939 13.916 10.333 13.916C10.4721 13.916 10.583 13.8051 10.583 13.666C10.583 13.5269 10.4721 13.416 10.333 13.416H10.083Z" fill="#333333"/>
<path fill-rule="evenodd" clip-rule="evenodd" d="M0.583008 6.33398C0.583008 5.36644 1.36546 4.58398 2.33301 4.58398H5.66634C6.63389 4.58398 7.41634 5.36644 7.41634 6.33398C7.41634 7.30153 6.63389 8.08398 5.66634 8.08398H2.33301C1.36546 8.08398 0.583008 7.30153 0.583008 6.33398ZM2.33301 6.08398C2.19389 6.08398 2.08301 6.19486 2.08301 6.33398C2.08301 6.4731 2.19389 6.58398 2.33301 6.58398H5.66634C5.80546 6.58398 5.91634 6.4731 5.91634 6.33398C5.91634 6.19486 5.80546 6.08398 5.66634 6.08398H2.33301Z" fill="#333333"/>
<path fill-rule="evenodd" clip-rule="evenodd" d="M3.91699 2.33398C3.91699 1.36644 4.69945 0.583984 5.66699 0.583984C6.63454 0.583984 7.41699 1.36644 7.41699 2.33398V3.33398C7.41699 3.7482 7.08121 4.08398 6.66699 4.08398H5.66699C4.69945 4.08398 3.91699 3.30153 3.91699 2.33398ZM5.66699 2.08398C5.52787 2.08398 5.41699 2.19486 5.41699 2.33398C5.41699 2.4731 5.52787 2.58398 5.66699 2.58398H5.91699V2.33398C5.91699 2.19486 5.80611 2.08398 5.66699 2.08398Z" fill="#333333"/>
</g>
<defs>
<clipPath id="clip0_390_42365">
<rect width="16" height="16" fill="white"/>
</clipPath>
</defs>
</svg>
