<svg width="16" height="16" viewBox="0 0 16 16" fill="none" xmlns="http://www.w3.org/2000/svg">
<path d="M2.3125 13.25C1.95156 13.25 1.64258 13.1215 1.38555 12.8645C1.12852 12.6074 1 12.2984 1 11.9375V2.3125C1 1.95156 1.12852 1.64258 1.38555 1.38555C1.64258 1.12852 1.95156 1 2.3125 1H11.9375C12.2984 1 12.6074 1.12852 12.8645 1.38555C13.1215 1.64258 13.25 1.95156 13.25 2.3125V6.03125C13.25 6.21719 13.1875 6.37305 13.0624 6.49883C12.9374 6.62461 12.7824 6.6875 12.5976 6.6875C12.4127 6.6875 12.2565 6.62461 12.1289 6.49883C12.0013 6.37305 11.9375 6.21719 11.9375 6.03125V2.3125H2.3125V11.9375H6.03125C6.21719 11.9375 6.37305 12 6.49883 12.1251C6.62461 12.2501 6.6875 12.4051 6.6875 12.5899C6.6875 12.7748 6.62461 12.931 6.49883 13.0586C6.37305 13.1862 6.21719 13.25 6.03125 13.25H2.3125ZM2.3125 11.5V11.9375V2.3125V6.72396V6.6875V11.5ZM3.625 9.96492C3.625 10.1498 3.68789 10.306 3.81367 10.4336C3.93945 10.5612 4.09531 10.625 4.28125 10.625H6.10417C6.2901 10.625 6.44596 10.5625 6.57174 10.4374C6.69753 10.3124 6.76042 10.1574 6.76042 9.97258C6.76042 9.78773 6.69753 9.63151 6.57174 9.50391C6.44596 9.3763 6.2901 9.3125 6.10417 9.3125H4.28125C4.09531 9.3125 3.93945 9.37503 3.81367 9.50008C3.68789 9.62513 3.625 9.78008 3.625 9.96492ZM3.625 7.12117C3.625 7.30602 3.68789 7.46224 3.81367 7.58984C3.93945 7.71745 4.09531 7.78125 4.28125 7.78125H8.21875C8.40469 7.78125 8.56055 7.71872 8.68633 7.59367C8.81211 7.46862 8.875 7.31367 8.875 7.12883C8.875 6.94398 8.81211 6.78776 8.68633 6.66016C8.56055 6.53255 8.40469 6.46875 8.21875 6.46875H4.28125C4.09531 6.46875 3.93945 6.53128 3.81367 6.65633C3.68789 6.78138 3.625 6.93633 3.625 7.12117ZM3.625 4.27742C3.625 4.46227 3.68789 4.61849 3.81367 4.74609C3.93945 4.8737 4.09531 4.9375 4.28125 4.9375H9.96875C10.1547 4.9375 10.3105 4.87497 10.4363 4.74992C10.5621 4.62487 10.625 4.46992 10.625 4.28508C10.625 4.10023 10.5621 3.94401 10.4363 3.81641C10.3105 3.6888 10.1547 3.625 9.96875 3.625H4.28125C4.09531 3.625 3.93945 3.68753 3.81367 3.81258C3.68789 3.93763 3.625 4.09258 3.625 4.27742ZM11.4958 15C10.5264 15 9.70139 14.6583 9.02083 13.975C8.34028 13.2917 8 12.4654 8 11.4958C8 10.5264 8.34167 9.70139 9.02503 9.02083C9.70825 8.34028 10.5346 8 11.5042 8C12.4736 8 13.2986 8.34168 13.9792 9.02503C14.6597 9.70825 15 10.5346 15 11.5042C15 12.4736 14.6583 13.2986 13.975 13.9792C13.2917 14.6597 12.4654 15 11.4958 15ZM11.5 11.5C11.8038 11.5 12.0621 11.3937 12.2747 11.181C12.4874 10.9683 12.5938 10.7101 12.5938 10.4062C12.5938 10.1024 12.4874 9.84418 12.2747 9.63151C12.0621 9.41884 11.8038 9.3125 11.5 9.3125C11.1962 9.3125 10.9379 9.41884 10.7253 9.63151C10.5126 9.84418 10.4062 10.1024 10.4062 10.4062C10.4062 10.7101 10.5126 10.9683 10.7253 11.181C10.9379 11.3937 11.1962 11.5 11.5 11.5ZM11.5 13.6875C11.8403 13.6875 12.1532 13.6176 12.4388 13.4779C12.7244 13.3381 12.9705 13.1467 13.1771 12.9036C13.2378 12.8429 13.2561 12.77 13.2318 12.6849C13.2075 12.5998 13.1528 12.5391 13.0677 12.5026C12.8247 12.3932 12.5725 12.3082 12.3112 12.2474C12.0499 12.1866 11.7795 12.1562 11.5 12.1562C11.2205 12.1562 10.9501 12.1897 10.6888 12.2565C10.4275 12.3233 10.1753 12.4054 9.93229 12.5026C9.84722 12.5391 9.79253 12.5998 9.76823 12.6849C9.74392 12.77 9.76215 12.8429 9.82292 12.9036C10.0295 13.1467 10.2756 13.3381 10.5612 13.4779C10.8468 13.6176 11.1597 13.6875 11.5 13.6875Z" fill="#1F1F1F"/>
</svg>
