<svg width="16" height="16" viewBox="0 0 16 16" fill="none" xmlns="http://www.w3.org/2000/svg">
<path d="M11.3338 12.1167L12.6005 10.85C12.7338 10.7167 12.8893 10.6528 13.0671 10.6584C13.2449 10.6639 13.4005 10.7334 13.5338 10.8667C13.656 11 13.7199 11.1556 13.7255 11.3334C13.731 11.5111 13.6671 11.6667 13.5338 11.8L11.1338 14.2C11.0671 14.2667 10.9949 14.3139 10.9171 14.3417C10.8393 14.3695 10.756 14.3834 10.6671 14.3834C10.5782 14.3834 10.4949 14.3695 10.4171 14.3417C10.3393 14.3139 10.2671 14.2667 10.2005 14.2L7.80045 11.8C7.67823 11.6778 7.61712 11.525 7.61712 11.3417C7.61712 11.1584 7.67823 11 7.80045 10.8667C7.93378 10.7334 8.09212 10.6667 8.27545 10.6667C8.45878 10.6667 8.61712 10.7334 8.75045 10.8667L10.0005 12.1167V2.6667C10.0005 2.47781 10.0643 2.31948 10.1921 2.1917C10.3199 2.06392 10.4782 2.00003 10.6671 2.00003C10.856 2.00003 11.0143 2.06392 11.1421 2.1917C11.2699 2.31948 11.3338 2.47781 11.3338 2.6667V12.1167ZM6.00045 3.88337V13.3334C6.00045 13.5223 5.93656 13.6806 5.80878 13.8084C5.68101 13.9361 5.52267 14 5.33378 14C5.14489 14 4.98656 13.9361 4.85878 13.8084C4.73101 13.6806 4.66712 13.5223 4.66712 13.3334L4.66712 3.88337L3.40045 5.15003C3.26712 5.28337 3.11156 5.34725 2.93378 5.3417C2.75601 5.33614 2.60045 5.2667 2.46712 5.13337C2.34489 5.00003 2.281 4.84448 2.27545 4.6667C2.26989 4.48892 2.33378 4.33337 2.46712 4.20003L4.86712 1.80003C4.93378 1.73337 5.006 1.68614 5.08378 1.65837C5.16156 1.63059 5.24489 1.6167 5.33378 1.6167C5.42267 1.6167 5.50601 1.63059 5.58378 1.65837C5.66156 1.68614 5.73378 1.73337 5.80045 1.80003L8.20045 4.20003C8.32267 4.32225 8.38378 4.47503 8.38378 4.65837C8.38378 4.8417 8.32267 5.00003 8.20045 5.13337C8.06712 5.2667 7.90878 5.33337 7.72545 5.33337C7.54212 5.33337 7.38378 5.2667 7.25045 5.13337L6.00045 3.88337Z" fill="#1B1B1B"/>
</svg>
