<svg viewBox="0 0 16 16" fill="none" xmlns="http://www.w3.org/2000/svg">
  <g>
    <rect x="9.64844" y="1" width="3.29602" height="3.29602" rx="1.64801" transform="rotate(90 9.64844 1)" fill="#333333"/>
    <rect x="4.29614" y="1" width="3.29602" height="3.29602" rx="1.64801" transform="rotate(90 4.29614 1)" fill="#333333"/>
    <rect x="9.64844" y="6.35199" width="3.29602" height="3.29602" rx="1.64801" transform="rotate(90 9.64844 6.35199)" fill="#333333"/>
    <rect x="4.29614" y="6.35199" width="3.29602" height="3.29602" rx="1.64801" transform="rotate(90 4.29614 6.35199)" fill="#333333"/>
    <rect x="9.64844" y="11.704" width="3.29602" height="3.29602" rx="1.64801" transform="rotate(90 9.64844 11.704)" fill="#333333"/>
    <rect x="15.0833" y="1" width="3.29602" height="3.29602" rx="1.64801" transform="rotate(90 15.0833 1)" fill="#333333"/>
    <rect x="15.0833" y="6.35199" width="3.29602" height="3.29602" rx="1.64801" transform="rotate(90 15.0833 6.35199)" fill="#333333"/>
    <rect x="15.0833" y="11.704" width="3.29602" height="3.29602" rx="1.64801" transform="rotate(90 15.0833 11.704)" fill="#333333"/>
    <rect x="4.29614" y="11.704" width="3.29602" height="3.29602" rx="1.64801" transform="rotate(90 4.29614 11.704)" fill="#333333"/>
  </g>
</svg>
  