<?xml version="1.0" encoding="utf-8"?>
<svg viewBox="0 0 16 16" fill="none" xmlns="http://www.w3.org/2000/svg">
<path d="M12.1774 11.7191C11.9403 11.8015 11.725 11.9365 11.5475 12.114C11.37 12.2915 11.235 12.5069 11.1527 12.744L10.8412 13.6403C10.8392 13.6471 10.835 13.6532 10.8292 13.6575C10.8235 13.6618 10.8165 13.6641 10.8093 13.6641C10.8022 13.6641 10.7952 13.6618 10.7894 13.6575C10.7837 13.6532 10.7795 13.6471 10.7774 13.6403L10.4667 12.744C10.3843 12.5068 10.2492 12.2914 10.0716 12.1139C9.894 11.9363 9.67848 11.8014 9.44124 11.7191L8.54542 11.4077C8.5389 11.4055 8.53324 11.4012 8.52923 11.3956C8.52522 11.39 8.52307 11.3832 8.52307 11.3763C8.52307 11.3694 8.52522 11.3627 8.52923 11.3571C8.53324 11.3514 8.5389 11.3472 8.54542 11.3449L9.44124 11.0336C9.67848 10.9513 9.894 10.8163 10.0716 10.6388C10.2492 10.4613 10.3843 10.2458 10.4667 10.0086L10.7774 9.11239C10.7795 9.10551 10.7837 9.09947 10.7894 9.09517C10.7952 9.09087 10.8022 9.08856 10.8093 9.08856C10.8165 9.08856 10.8235 9.09087 10.8292 9.09517C10.835 9.09947 10.8392 9.10551 10.8412 9.11239L11.1527 10.0086C11.235 10.2458 11.37 10.4612 11.5475 10.6387C11.725 10.8162 11.9403 10.9512 12.1774 11.0336L13.074 11.3449C13.0805 11.3472 13.0862 11.3514 13.0902 11.3571C13.0942 11.3627 13.0964 11.3694 13.0964 11.3763C13.0964 11.3832 13.0942 11.39 13.0902 11.3956C13.0862 11.4012 13.0805 11.4055 13.074 11.4077L12.1774 11.7191Z" fill="currentColor"/>
<path d="M12.9008 5.30278C12.6044 5.40575 12.3351 5.57452 12.1132 5.7964C11.8914 6.01828 11.7226 6.28753 11.6197 6.58393L11.2305 7.70428C11.2277 7.71259 11.2224 7.71982 11.2153 7.72495C11.2083 7.73008 11.1997 7.73286 11.191 7.73286C11.1822 7.73286 11.1737 7.73008 11.1666 7.72495C11.1595 7.71982 11.1542 7.71259 11.1515 7.70428L10.7623 6.58393C10.6593 6.28751 10.4905 6.01825 10.2686 5.79637C10.0467 5.57449 9.77748 5.40573 9.48105 5.30278L8.36079 4.91362C8.35264 4.91078 8.34557 4.90549 8.34057 4.89845C8.33557 4.89142 8.33289 4.88299 8.33289 4.87436C8.33289 4.86573 8.33557 4.85734 8.34057 4.85031C8.34557 4.84327 8.35264 4.83794 8.36079 4.83511L9.48105 4.44595C9.77748 4.34299 10.0467 4.17427 10.2686 3.95239C10.4905 3.73051 10.6593 3.46125 10.7623 3.16483L11.1515 2.04448C11.1542 2.03617 11.1595 2.02891 11.1666 2.02378C11.1737 2.01864 11.1822 2.0159 11.191 2.0159C11.1997 2.0159 11.2083 2.01864 11.2153 2.02378C11.2224 2.02891 11.2277 2.03617 11.2305 2.04448L11.6197 3.16483C11.7226 3.46123 11.8914 3.73048 12.1132 3.95236C12.3351 4.17424 12.6044 4.34297 12.9008 4.44595L14.021 4.83511C14.0292 4.83794 14.0362 4.84327 14.0412 4.85031C14.0462 4.85734 14.0489 4.86573 14.0489 4.87436C14.0489 4.88299 14.0462 4.89142 14.0412 4.89845C14.0362 4.90549 14.0292 4.91078 14.021 4.91362L12.9008 5.30278Z" fill="currentColor"/>
<path d="M7.97518 8.79835C7.56352 8.94138 7.1896 9.17576 6.88147 9.48393C6.57333 9.7921 6.33898 10.1661 6.196 10.5777L5.65523 12.1338C5.65136 12.1452 5.644 12.1551 5.6342 12.1621C5.62439 12.1692 5.61263 12.173 5.60056 12.173C5.5885 12.173 5.57674 12.1692 5.56693 12.1621C5.55712 12.1551 5.54977 12.1452 5.54589 12.1338L5.00513 10.5777C4.86214 10.1661 4.62779 9.7921 4.31966 9.48393C4.01152 9.17576 3.6376 8.94138 3.22595 8.79835L1.66986 8.25786C1.65854 8.25392 1.64872 8.24653 1.64178 8.23676C1.63483 8.22699 1.6311 8.21532 1.6311 8.20333C1.6311 8.19135 1.63483 8.17967 1.64178 8.1699C1.64872 8.16013 1.65854 8.15275 1.66986 8.14881L3.22595 7.60831C3.6376 7.46528 4.01153 7.23091 4.31966 6.92273C4.6278 6.61456 4.86214 6.24059 5.00513 5.82892L5.54589 4.2729C5.54977 4.26147 5.55712 4.25157 5.56693 4.24454C5.57674 4.23751 5.5885 4.2337 5.60056 4.2337C5.61263 4.2337 5.62439 4.23751 5.6342 4.24454C5.644 4.25157 5.65136 4.26147 5.65523 4.2729L6.196 5.82892C6.33898 6.24059 6.57333 6.61456 6.88147 6.92273C7.1896 7.23091 7.56352 7.46528 7.97518 7.60831L9.53127 8.14881C9.54259 8.15275 9.5524 8.16013 9.55935 8.1699C9.56629 8.17967 9.57002 8.19135 9.57002 8.20333C9.57002 8.21532 9.56629 8.22699 9.55935 8.23676C9.5524 8.24653 9.54259 8.25392 9.53127 8.25786L7.97518 8.79835Z" fill="currentColor"/>
</svg>
