<svg viewBox="0 0 20 20" fill="none" xmlns="http://www.w3.org/2000/svg">
<path d="M4.72826 8.51826C3.64154 9.35987 1.25 9.54947 1.25 9.81838C1.25 10.0873 3.61839 10.176 4.72826 10.8532C6.05384 11.662 5.68434 16.25 6.25 16.25C6.81566 16.25 6.5339 11.6709 7.77174 10.8532C8.72164 10.2257 11.25 10.0608 11.25 9.81838C11.25 9.57596 8.71048 9.30869 7.77174 8.51826C6.10461 7.11453 6.87021 5 6.17666 5C5.48311 5 6.49732 7.14821 4.72826 8.51826Z" fill="currentColor"/>
<path d="M13.4239 4.675C12.7447 5.2215 11.25 5.4542 11.25 5.62882C11.25 5.80344 12.7302 5.86103 13.4239 6.30076C14.2524 6.82595 14.0215 8.75 14.375 8.75C14.7285 8.75 14.5524 6.83175 15.3261 6.30076C15.9198 5.89328 17.5 5.78624 17.5 5.62882C17.5 5.4714 15.9128 5.18827 15.3261 4.675C14.2841 3.76349 14.8085 2.5 14.375 2.5C13.9415 2.5 14.5296 3.78536 13.4239 4.675Z" fill="currentColor"/>
<path d="M12.6324 14.2516C11.8778 14.8637 11.25 14.8086 11.25 15.0042C11.25 15.1998 11.7598 15.0074 12.5306 15.4999C13.4511 16.0882 13.2951 17.5 13.6879 17.5C14.0807 17.5 13.9857 16.0947 14.8453 15.4999C15.5049 15.0436 16.25 15.1805 16.25 15.0042C16.25 14.8279 15.3977 14.8265 14.7459 14.2516C13.5882 13.2307 13.9706 12.5 13.6879 12.5C13.4053 12.5 13.8609 13.2552 12.6324 14.2516Z" fill="currentColor"/>
</svg>
