<svg width="51" height="56" viewBox="0 0 51 56" xmlns="http://www.w3.org/2000/svg">
  <path fill-rule="evenodd" clip-rule="evenodd"
    d="M0 25.42C0 11.3809 11.3809 0 25.42 0C39.459 0 50.84 11.3809 50.84 25.42V55.8503L42.1184 45.593L33.3955 55.8519L24.6725 45.593L15.8236 56H15.7408L7.97108 45.593L0.20135 56H0V25.42ZM0.20135 56L0.201313 56H15.7409L15.7408 56H0.20135ZM33.2695 56L33.3955 55.8519L33.5214 56H33.2695ZM33.2695 56H15.8236L15.8236 56H33.2695L33.2695 56ZM33.5214 56H50.9673L50.84 55.8503V56H33.5214L33.5214 56ZM17.1967 28.7304C20.6377 28.7304 23.4271 26.0052 23.4271 22.6435C23.4271 19.2817 20.6377 16.5565 17.1967 16.5565C13.7558 16.5565 10.9664 19.2817 10.9664 22.6435C10.9664 26.0052 13.7558 28.7304 17.1967 28.7304ZM34.1434 28.7304C37.5843 28.7304 40.3738 26.0052 40.3738 22.6435C40.3738 19.2817 37.5843 16.5565 34.1434 16.5565C30.7024 16.5565 27.913 19.2817 27.913 22.6435C27.913 26.0052 30.7024 28.7304 34.1434 28.7304Z"
    fill="#CDCDCD" />
</svg>
