<svg width="16" height="16" viewBox="0 0 16 16" fill="none" xmlns="http://www.w3.org/2000/svg">
<mask id="mask0_6025_37978" style="mask-type:alpha" maskUnits="userSpaceOnUse" x="0" y="0" width="16" height="16">
<rect width="16" height="16" fill="#D9D9D9"/>
</mask>
<g mask="url(#mask0_6025_37978)">
<path d="M14.2005 12.4673L12.2005 10.4673L13.1339 9.53399L15.1339 11.534L14.2005 12.4673ZM11.8005 4.46732L10.8672 3.53398L12.8672 1.53398L13.8005 2.46732L11.8005 4.46732ZM4.20052 4.46732L2.20052 2.46732L3.13385 1.53398L5.13385 3.53398L4.20052 4.46732ZM1.80052 12.4673L0.867188 11.534L2.86719 9.53399L3.80052 10.4673L1.80052 12.4673ZM5.90052 11.2173L8.00052 9.95065L10.1005 11.234L9.55052 8.83398L11.4005 7.23398L8.96719 7.01732L8.00052 4.75065L7.03385 7.00065L4.60052 7.21732L6.45052 8.83398L5.90052 11.2173ZM3.88385 14.0007L4.96719 9.31732L1.33385 6.16732L6.13385 5.75065L8.00052 1.33398L9.86719 5.75065L14.6672 6.16732L11.0339 9.31732L12.1172 14.0007L8.00052 11.5173L3.88385 14.0007Z" fill="#1C1B1F"/>
</g>
</svg>
