<svg width="16" height="16" viewBox="0 0 16 16" fill="none" xmlns="http://www.w3.org/2000/svg">
<path d="M9.23194 13.6673L9.37514 14.2497L9.23114 13.6673H9.23194ZM6.50394 13.5633L6.66554 12.9849L6.50474 13.5633H6.50394ZM9.19994 8.80007C9.35907 8.80007 9.51168 8.73686 9.6242 8.62434C9.73672 8.51182 9.79994 8.3592 9.79994 8.20007C9.79994 8.04094 9.73672 7.88833 9.6242 7.77581C9.51168 7.66329 9.35907 7.60007 9.19994 7.60007V8.80007ZM6.79994 2.40007L6.65674 1.81767L6.65114 1.81847L6.64554 1.82007L6.79994 2.40007ZM5.17914 11.5089C5.1349 11.3585 5.03358 11.2314 4.89685 11.1548C4.76012 11.0782 4.59884 11.0581 4.44749 11.0989C4.29615 11.1396 4.16677 11.238 4.08702 11.3729C4.00727 11.5079 3.98348 11.6686 4.02074 11.8209L5.17914 11.5089ZM10.8207 4.55607C10.865 4.70643 10.9663 4.83352 11.103 4.91014C11.2398 4.98676 11.401 5.00683 11.5524 4.96607C11.7037 4.92531 11.8331 4.82694 11.9129 4.69202C11.9926 4.55709 12.0164 4.39631 11.9791 4.24407L10.8207 4.55607ZM11.7511 10.3641C11.7221 10.2888 11.6783 10.2202 11.6221 10.1623C11.566 10.1044 11.4988 10.0584 11.4245 10.027C11.3502 9.99571 11.2703 9.97966 11.1897 9.97988C11.109 9.9801 11.0293 9.99657 10.9551 10.0283C10.881 10.0601 10.814 10.1064 10.7582 10.1646C10.7024 10.2228 10.6589 10.2917 10.6303 10.3671C10.6017 10.4425 10.5886 10.5229 10.5918 10.6035C10.5949 10.684 10.6143 10.7632 10.6487 10.8361L11.7511 10.3641ZM9.08874 13.0841C8.29754 13.2785 7.49594 13.2169 6.66554 12.9849L6.34314 14.1409C7.31354 14.4121 8.33194 14.5057 9.37514 14.2497L9.08874 13.0841ZM9.19994 7.60007C6.35114 7.60007 5.37434 6.44167 5.21754 5.50167C5.04554 4.46887 5.74234 3.30327 6.95434 2.98007L6.64554 1.82007C4.85994 2.29687 3.75594 4.03127 4.03354 5.69847C4.32794 7.45847 6.04954 8.80007 9.19994 8.80007V7.60007ZM6.66554 12.9849C5.92154 12.7769 5.37514 12.2369 5.17914 11.5089L4.02074 11.8209C4.33114 12.9745 5.20714 13.8241 6.34314 14.1409L6.66554 12.9849ZM6.94394 2.98247C7.75034 2.78407 8.64714 2.80487 9.37754 3.07207C10.0943 3.33367 10.6223 3.81607 10.8215 4.55607L11.9799 4.24407C11.6591 3.05047 10.7911 2.31047 9.78954 1.94487C8.80234 1.58407 7.65914 1.57127 6.65754 1.81687L6.94394 2.98247ZM10.6495 10.8369C10.8679 11.3473 10.7983 11.8001 10.5455 12.1745C10.2791 12.5681 9.77914 12.9145 9.08954 13.0841L9.37594 14.2497C10.2879 14.0257 11.0719 13.5385 11.5391 12.8473C12.0191 12.1369 12.1335 11.2529 11.7519 10.3641L10.6495 10.8361V10.8369Z" fill="#333333"/>
<path d="M2.19995 8.2002H13.8" stroke="#333333" stroke-width="1.5" stroke-linecap="round"/>
</svg>
