<svg width="16" height="16" viewBox="0 0 16 16" fill="none" xmlns="http://www.w3.org/2000/svg">
<mask id="mask0_372_7978" style="mask-type:alpha" maskUnits="userSpaceOnUse" x="0" y="0" width="16" height="16">
<rect width="16" height="16" fill="#D9D9D9"/>
</mask>
<g mask="url(#mask0_372_7978)">
<path d="M3.88385 11.3333L5.15052 12.6C5.28385 12.7333 5.34774 12.8889 5.34219 13.0667C5.33663 13.2444 5.26719 13.4 5.13385 13.5333C5.00052 13.6555 4.84497 13.7194 4.66719 13.725C4.48941 13.7305 4.33385 13.6667 4.20052 13.5333L1.80052 11.1333C1.73385 11.0667 1.68663 10.9944 1.65885 10.9167C1.63108 10.8389 1.61719 10.7555 1.61719 10.6667C1.61719 10.5778 1.63108 10.4944 1.65885 10.4167C1.68663 10.3389 1.73385 10.2667 1.80052 10.2L4.20052 7.79999C4.32274 7.67777 4.47552 7.61666 4.65885 7.61666C4.84219 7.61666 5.00052 7.67777 5.13385 7.79999C5.26719 7.93333 5.33385 8.09166 5.33385 8.27499C5.33385 8.45833 5.26719 8.61666 5.13385 8.74999L3.88385 9.99999H13.3339C13.5227 9.99999 13.6811 10.0639 13.8089 10.1917C13.9366 10.3194 14.0005 10.4778 14.0005 10.6667C14.0005 10.8555 13.9366 11.0139 13.8089 11.1417C13.6811 11.2694 13.5227 11.3333 13.3339 11.3333H3.88385ZM12.1172 5.99999H2.66719C2.4783 5.99999 2.31997 5.9361 2.19219 5.80833C2.06441 5.68055 2.00052 5.52221 2.00052 5.33333C2.00052 5.14444 2.06441 4.9861 2.19219 4.85833C2.31997 4.73055 2.4783 4.66666 2.66719 4.66666H12.1172L10.8505 3.39999C10.7172 3.26666 10.6533 3.1111 10.6589 2.93332C10.6644 2.75555 10.7339 2.59999 10.8672 2.46666C11.0005 2.34444 11.1561 2.28055 11.3339 2.27499C11.5116 2.26944 11.6672 2.33332 11.8005 2.46666L14.2005 4.86666C14.2672 4.93333 14.3144 5.00555 14.3422 5.08333C14.37 5.1611 14.3839 5.24444 14.3839 5.33333C14.3839 5.42221 14.37 5.50555 14.3422 5.58333C14.3144 5.6611 14.2672 5.73333 14.2005 5.79999L11.8005 8.19999C11.6783 8.32221 11.5255 8.38333 11.3422 8.38333C11.1589 8.38333 11.0005 8.32221 10.8672 8.19999C10.7339 8.06666 10.6672 7.90833 10.6672 7.72499C10.6672 7.54166 10.7339 7.38333 10.8672 7.24999L12.1172 5.99999Z" fill="#828282"/>
</g>
</svg>
