<svg width="16" height="16" viewBox="0 0 16 16" fill="none" xmlns="http://www.w3.org/2000/svg">
<mask id="mask0_11082_938" style="mask-type:alpha" maskUnits="userSpaceOnUse" x="0" y="0" width="16" height="16">
<rect width="16" height="16" fill="#D9D9D9"/>
</mask>
<g mask="url(#mask0_11082_938)">
<path d="M4.93325 14.6667L3.99992 13.7333L8.59992 9.11667L10.9333 11.45L14.3833 8L15.3333 8.95L10.9333 13.3333L8.59992 11L4.93325 14.6667ZM2.66659 14C2.29992 14 1.98603 13.8694 1.72492 13.6083C1.46381 13.3472 1.33325 13.0333 1.33325 12.6667V3.33333C1.33325 2.96667 1.46381 2.65278 1.72492 2.39167C1.98603 2.13056 2.29992 2 2.66659 2H11.9999C12.3666 2 12.6805 2.13056 12.9416 2.39167C13.2027 2.65278 13.3333 2.96667 13.3333 3.33333V6.13333H2.66659V14ZM2.66659 4.8H11.9999V3.33333H2.66659V4.8Z" fill="#1C1B1F"/>
</g>
</svg>
