<svg viewBox="0 0 16 16" fill="none" xmlns="http://www.w3.org/2000/svg">
  <g clip-path="url(#clip0)">
    <path
      d="M12.2303 14.2303H1.76966V3.76966H7.9045L9.45787 2H0.884832C0.393258 2 0 2.39326 0 2.88483V15.1152C0 15.6067 0.393258 16 0.884832 16H13.1152C13.6067 16 14 15.6067 14 15.1152V6.95506L12.2303 8.50843V14.2303Z"
      fill="white" />
    <path
      d="M4.12832 10.6993C3.91079 10.8588 3.9833 11.2068 4.24433 11.2648C6.12956 11.6564 7.47823 11.0038 8.18881 10.2787C8.8704 9.59712 8.8704 8.48049 8.18881 7.79891C7.50723 7.11732 6.39059 7.11732 5.70901 7.79891C4.98392 8.5385 5.34647 9.78565 4.12832 10.6993Z"
      fill="white" />
    <path
      d="M15.4791 0.520909C14.7548 -0.203357 13.5589 -0.16967 12.8852 0.605126L7.88269 6.38242C8.27009 6.53401 8.6238 6.76981 8.92698 7.07299C9.23016 7.37618 9.46597 7.72989 9.61756 8.11729L15.3949 3.11479C16.1696 2.44106 16.2033 1.24518 15.4791 0.520909Z"
      fill="white" />
  </g>
  <defs>
    <clipPath id="clip0">
      <rect width="16" height="16" fill="white" />
    </clipPath>
  </defs>
</svg>
