<svg viewBox="0 0 15 15" fill="none" xmlns="http://www.w3.org/2000/svg">
  <g clip-path="url(#clip0_3910_143141)">
    <path
      d="M6.25 9.375V11.875C6.25 12.3723 6.44754 12.8492 6.79917 13.2008C7.15081 13.5525 7.62772 13.75 8.125 13.75L10.625 8.125V1.25H3.575C3.27354 1.24659 2.98101 1.35225 2.75131 1.5475C2.5216 1.74275 2.3702 2.01443 2.325 2.3125L1.4625 7.9375C1.43531 8.11665 1.44739 8.29957 1.49791 8.47359C1.54843 8.64761 1.63619 8.80857 1.75509 8.9453C1.87399 9.08204 2.0212 9.19129 2.18652 9.26549C2.35184 9.33968 2.53131 9.37705 2.7125 9.375H6.25ZM10.625 1.25H12.5C12.8315 1.25 13.1495 1.3817 13.3839 1.61612C13.6183 1.85054 13.75 2.16848 13.75 2.5V6.875C13.75 7.20652 13.6183 7.52446 13.3839 7.75888C13.1495 7.9933 12.8315 8.125 12.5 8.125H10.625"
      fill="#343CED" fill-opacity="0.5" />
    <path
      d="M10.625 1.25H12.5C12.8315 1.25 13.1495 1.3817 13.3839 1.61612C13.6183 1.85054 13.75 2.16848 13.75 2.5V6.875C13.75 7.20652 13.6183 7.52446 13.3839 7.75888C13.1495 7.9933 12.8315 8.125 12.5 8.125H10.625M6.25 9.375V11.875C6.25 12.3723 6.44754 12.8492 6.79917 13.2008C7.15081 13.5525 7.62772 13.75 8.125 13.75L10.625 8.125V1.25H3.575C3.27354 1.24659 2.98101 1.35225 2.75131 1.5475C2.5216 1.74275 2.3702 2.01443 2.325 2.3125L1.4625 7.9375C1.43531 8.11665 1.44739 8.29957 1.49791 8.47359C1.54843 8.64761 1.63619 8.80857 1.75509 8.9453C1.87399 9.08204 2.0212 9.19129 2.18652 9.26549C2.35184 9.33969 2.53131 9.37705 2.7125 9.375H6.25Z"
      stroke="#343CED" stroke-width="1.875" stroke-linecap="round" stroke-linejoin="round" />
  </g>
  <defs>
    <clipPath id="clip0_3910_143141">
      <rect width="15" height="15" fill="white" transform="matrix(-1 0 0 -1 15 15)" />
    </clipPath>
  </defs>
</svg>
