<svg viewBox="0 0 20 20" fill="none" xmlns="http://www.w3.org/2000/svg">
<path d="M11.6667 7.50008V4.16675C11.6667 3.50371 11.4034 2.86782 10.9345 2.39898C10.4657 1.93014 9.82979 1.66675 9.16675 1.66675L5.83341 9.16675V18.3334H15.2334C15.6354 18.338 16.0254 18.1971 16.3317 17.9368C16.6379 17.6764 16.8398 17.3142 16.9001 16.9167L18.0501 9.41675C18.0863 9.17788 18.0702 8.93398 18.0029 8.70196C17.9355 8.46993 17.8185 8.25533 17.66 8.07301C17.5014 7.89069 17.3051 7.74502 17.0847 7.6461C16.8643 7.54717 16.625 7.49735 16.3834 7.50008H11.6667ZM5.83341 18.3334H3.33341C2.89139 18.3334 2.46746 18.1578 2.1549 17.8453C1.84234 17.5327 1.66675 17.1088 1.66675 16.6667V10.8334C1.66675 10.3914 1.84234 9.96746 2.1549 9.6549C2.46746 9.34234 2.89139 9.16675 3.33341 9.16675H5.83341" fill="#343CED" fill-opacity="0.5"/>
<path d="M5.83341 18.3334H3.33341C2.89139 18.3334 2.46746 18.1578 2.1549 17.8453C1.84234 17.5327 1.66675 17.1088 1.66675 16.6667V10.8334C1.66675 10.3914 1.84234 9.96746 2.1549 9.6549C2.46746 9.34234 2.89139 9.16675 3.33341 9.16675H5.83341M11.6667 7.50008V4.16675C11.6667 3.50371 11.4034 2.86782 10.9345 2.39898C10.4657 1.93014 9.82979 1.66675 9.16675 1.66675L5.83341 9.16675V18.3334H15.2334C15.6354 18.338 16.0254 18.1971 16.3317 17.9368C16.6379 17.6764 16.8398 17.3142 16.9001 16.9167L18.0501 9.41675C18.0863 9.17788 18.0702 8.93398 18.0029 8.70196C17.9355 8.46993 17.8185 8.25533 17.66 8.07301C17.5014 7.89069 17.3051 7.74502 17.0847 7.6461C16.8643 7.54717 16.625 7.49735 16.3834 7.50008H11.6667Z" stroke="#343CED" stroke-width="1.875" stroke-linecap="round" stroke-linejoin="round"/>
</svg>
