<svg width="24" height="24" viewBox="0 0 24 24" fill="none" xmlns="http://www.w3.org/2000/svg">
<mask id="mask0_2087_286387" style="mask-type:alpha" maskUnits="userSpaceOnUse" x="0" y="0" width="24" height="24">
<rect width="24" height="24" fill="#D9D9D9"/>
</mask>
<g mask="url(#mask0_2087_286387)">
<path d="M8.275 11.0008C7.89167 11.0008 7.6 10.8301 7.4 10.4888C7.2 10.1468 7.20833 9.80911 7.425 9.47578L11.15 3.40078C11.35 3.08411 11.6333 2.92578 12 2.92578C12.3667 2.92578 12.65 3.08411 12.85 3.40078L16.575 9.47578C16.7917 9.80911 16.8 10.1468 16.6 10.4888C16.4 10.8301 16.1083 11.0008 15.725 11.0008H8.275ZM17.5 22.0008C16.25 22.0008 15.1873 21.5634 14.312 20.6888C13.4373 19.8134 13 18.7508 13 17.5008C13 16.2508 13.4373 15.1881 14.312 14.3128C15.1873 13.4381 16.25 13.0008 17.5 13.0008C18.75 13.0008 19.8127 13.4381 20.688 14.3128C21.5627 15.1881 22 16.2508 22 17.5008C22 18.7508 21.5627 19.8134 20.688 20.6888C19.8127 21.5634 18.75 22.0008 17.5 22.0008ZM4 21.5008C3.71667 21.5008 3.47933 21.4048 3.288 21.2128C3.096 21.0214 3 20.7841 3 20.5008V14.5008C3 14.2174 3.096 13.9798 3.288 13.7878C3.47933 13.5964 3.71667 13.5008 4 13.5008H10C10.2833 13.5008 10.521 13.5964 10.713 13.7878C10.9043 13.9798 11 14.2174 11 14.5008V20.5008C11 20.7841 10.9043 21.0214 10.713 21.2128C10.521 21.4048 10.2833 21.5008 10 21.5008H4ZM17.5 20.0008C18.2 20.0008 18.7917 19.7591 19.275 19.2758C19.7583 18.7924 20 18.2008 20 17.5008C20 16.8008 19.7583 16.2091 19.275 15.7258C18.7917 15.2424 18.2 15.0008 17.5 15.0008C16.8 15.0008 16.2083 15.2424 15.725 15.7258C15.2417 16.2091 15 16.8008 15 17.5008C15 18.2008 15.2417 18.7924 15.725 19.2758C16.2083 19.7591 16.8 20.0008 17.5 20.0008ZM5 19.5008H9V15.5008H5V19.5008ZM10.05 9.00078H13.95L12 5.85078L10.05 9.00078Z" fill="#333333"/>
</g>
</svg>
