<svg width="16" height="16" viewBox="0 0 16 16" fill="none" xmlns="http://www.w3.org/2000/svg">
<path fill-rule="evenodd" clip-rule="evenodd" d="M9.9165 2C9.9165 1.58579 10.2523 1.25 10.6665 1.25H13.9998C14.4141 1.25 14.7498 1.58579 14.7498 2V5.33333C14.7498 5.74755 14.4141 6.08333 13.9998 6.08333C13.5856 6.08333 13.2498 5.74755 13.2498 5.33333V2.75H10.6665C10.2523 2.75 9.9165 2.41421 9.9165 2Z" fill="#343CED"/>
<path fill-rule="evenodd" clip-rule="evenodd" d="M14.5302 1.46967C14.8231 1.76256 14.8231 2.23744 14.5302 2.53033L3.19683 13.8637C2.90394 14.1566 2.42907 14.1566 2.13617 13.8637C1.84328 13.5708 1.84328 13.0959 2.13617 12.803L13.4695 1.46967C13.7624 1.17678 14.2373 1.17678 14.5302 1.46967Z" fill="#343CED"/>
<path fill-rule="evenodd" clip-rule="evenodd" d="M13.9998 9.91669C14.4141 9.91669 14.7498 10.2525 14.7498 10.6667V14C14.7498 14.4142 14.4141 14.75 13.9998 14.75H10.6665C10.2523 14.75 9.9165 14.4142 9.9165 14C9.9165 13.5858 10.2523 13.25 10.6665 13.25H13.2498V10.6667C13.2498 10.2525 13.5856 9.91669 13.9998 9.91669Z" fill="#343CED"/>
<path fill-rule="evenodd" clip-rule="evenodd" d="M9.46952 9.46967C9.76241 9.17678 10.2373 9.17678 10.5302 9.46967L14.5302 13.4697C14.8231 13.7626 14.8231 14.2374 14.5302 14.5303C14.2373 14.8232 13.7624 14.8232 13.4695 14.5303L9.46952 10.5303C9.17662 10.2374 9.17662 9.76256 9.46952 9.46967Z" fill="#343CED"/>
<path d="M3.73913 3.74C3.19577 4.1772 2 4.36336 2 4.50306C2 4.64275 3.18419 4.68883 3.73913 5.04061C4.40192 5.46076 4.21717 7 4.5 7C4.78283 7 4.64195 5.4654 5.26087 5.04061C5.73582 4.71463 7 4.62899 7 4.50306C7 4.37712 5.73024 4.15062 5.26087 3.74C4.42731 3.01079 4.84677 2 4.5 2C4.15323 2 4.62366 3.02829 3.73913 3.74Z" fill="#343CED"/>
</svg>
