<svg width="20" height="20" viewBox="0 0 20 20" fill="none" xmlns="http://www.w3.org/2000/svg">
<path fill-rule="evenodd" clip-rule="evenodd" d="M1.22039 12.8874C2.00179 12.106 3.0616 11.667 4.16667 11.667H10.8333C11.9384 11.667 12.9982 12.106 13.7796 12.8874C14.561 13.6688 15 14.7286 15 15.8337V17.5003C15 17.9606 14.6269 18.3337 14.1667 18.3337H0.833333C0.373096 18.3337 0 17.9606 0 17.5003V15.8337C0 14.7286 0.438987 13.6688 1.22039 12.8874Z" fill="#1B1B1B"/>
<path fill-rule="evenodd" clip-rule="evenodd" d="M3.3335 5.83366C3.3335 3.53247 5.19898 1.66699 7.50016 1.66699C9.80135 1.66699 11.6668 3.53247 11.6668 5.83366C11.6668 8.13485 9.80135 10.0003 7.50016 10.0003C5.19898 10.0003 3.3335 8.13485 3.3335 5.83366Z" fill="#1B1B1B"/>
<path fill-rule="evenodd" clip-rule="evenodd" d="M15.8597 12.3996C15.9747 11.954 16.4293 11.686 16.8749 11.8011C17.7688 12.0319 18.5607 12.553 19.1263 13.2827C19.6919 14.0123 19.9992 14.9091 19.9999 15.8323L19.9999 17.4996C19.9999 17.9599 19.6268 18.3329 19.1665 18.3329C18.7063 18.3329 18.3332 17.9599 18.3332 17.4996V15.8336C18.3327 15.2797 18.1484 14.7415 17.8091 14.3038C17.4697 13.866 16.9945 13.5533 16.4582 13.4148C16.0126 13.2998 15.7446 12.8452 15.8597 12.3996Z" fill="#1B1B1B"/>
<path fill-rule="evenodd" clip-rule="evenodd" d="M12.5262 2.40125C12.6404 1.95539 13.0944 1.6865 13.5402 1.80066C14.4365 2.03014 15.2309 2.55139 15.7982 3.28223C16.3655 4.01307 16.6734 4.91194 16.6734 5.83711C16.6734 6.76229 16.3655 7.66116 15.7982 8.392C15.2309 9.12284 14.4365 9.64409 13.5402 9.87357C13.0944 9.98773 12.6404 9.71884 12.5262 9.27298C12.4121 8.82713 12.681 8.37315 13.1268 8.25899C13.6646 8.1213 14.1412 7.80855 14.4816 7.37005C14.822 6.93154 15.0067 6.39222 15.0067 5.83711C15.0067 5.28201 14.822 4.74269 14.4816 4.30418C14.1412 3.86568 13.6646 3.55293 13.1268 3.41524C12.681 3.30108 12.4121 2.8471 12.5262 2.40125Z" fill="#1B1B1B"/>
</svg>
