<svg width="20" height="20" viewBox="0 0 20 20" fill="none" xmlns="http://www.w3.org/2000/svg">
<g clip-path="url(#clip0_13561_90796)">
<path fill-rule="evenodd" clip-rule="evenodd" d="M1.14543 12.8134C1.94637 12.0125 3.03267 11.5625 4.16536 11.5625H10.832C11.9647 11.5625 13.051 12.0125 13.852 12.8134C14.6529 13.6143 15.1029 14.7006 15.1029 15.8333V17.5C15.1029 18.0178 14.6831 18.4375 14.1654 18.4375C13.6476 18.4375 13.2279 18.0178 13.2279 17.5V15.8333C13.2279 15.1979 12.9754 14.5885 12.5261 14.1392C12.0768 13.6899 11.4674 13.4375 10.832 13.4375H4.16536C3.52995 13.4375 2.92056 13.6899 2.47125 14.1392C2.02195 14.5885 1.76953 15.1979 1.76953 15.8333V17.5C1.76953 18.0178 1.3498 18.4375 0.832031 18.4375C0.314264 18.4375 -0.105469 18.0178 -0.105469 17.5V15.8333C-0.105469 14.7006 0.344493 13.6143 1.14543 12.8134Z" fill="#1B1B1B"/>
<path fill-rule="evenodd" clip-rule="evenodd" d="M7.5013 3.4375C6.17812 3.4375 5.10547 4.51015 5.10547 5.83333C5.10547 7.15652 6.17812 8.22917 7.5013 8.22917C8.82449 8.22917 9.89714 7.15652 9.89714 5.83333C9.89714 4.51015 8.82449 3.4375 7.5013 3.4375ZM3.23047 5.83333C3.23047 3.47462 5.14259 1.5625 7.5013 1.5625C9.86002 1.5625 11.7721 3.47462 11.7721 5.83333C11.7721 8.19205 9.86002 10.1042 7.5013 10.1042C5.14259 10.1042 3.23047 8.19205 3.23047 5.83333Z" fill="#1B1B1B"/>
<path fill-rule="evenodd" clip-rule="evenodd" d="M15.7585 12.3733C15.888 11.8719 16.3993 11.5705 16.9006 11.6999C17.8168 11.9365 18.6286 12.4707 19.2083 13.2185C19.7881 13.9664 20.103 14.8857 20.1037 15.832L20.1037 17.4993C20.1037 18.0171 19.684 18.4368 19.1662 18.4368C18.6485 18.4368 18.2287 18.0171 18.2287 17.4993V15.833C18.2283 15.3023 18.0516 14.7867 17.7264 14.3673C17.4012 13.9477 16.9459 13.6481 16.4319 13.5154C15.9305 13.3859 15.6291 12.8746 15.7585 12.3733Z" fill="#1B1B1B"/>
<path fill-rule="evenodd" clip-rule="evenodd" d="M12.4241 2.37511C12.5525 1.87352 13.0632 1.57102 13.5648 1.69944C14.4835 1.93466 15.2977 2.46894 15.8792 3.21806C16.4607 3.96717 16.7763 4.88851 16.7763 5.83681C16.7763 6.78512 16.4607 7.70646 15.8792 8.45557C15.2977 9.20468 14.4835 9.73897 13.5648 9.97418C13.0632 10.1026 12.5525 9.8001 12.4241 9.29852C12.2956 8.79693 12.5981 8.2862 13.0997 8.15778C13.6151 8.02583 14.0719 7.72611 14.398 7.30587C14.7242 6.88564 14.9013 6.36879 14.9013 5.83681C14.9013 5.30484 14.7242 4.78799 14.398 4.36776C14.0719 3.94752 13.6151 3.6478 13.0997 3.51585C12.5981 3.38742 12.2956 2.8767 12.4241 2.37511Z" fill="#1B1B1B"/>
</g>
</svg>
