<svg width="16" height="16" viewBox="0 0 16 16" fill="none" xmlns="http://www.w3.org/2000/svg">
<path d="M8 10C10.0711 10 11.75 11.6789 11.75 13.75C11.75 14.1642 11.4142 14.5 11 14.5C10.5858 14.5 10.25 14.1642 10.25 13.75C10.25 12.5074 9.24264 11.5 8 11.5H4C2.75736 11.5 1.75 12.5074 1.75 13.75C1.75 14.1642 1.41421 14.5 1 14.5C0.585786 14.5 0.25 14.1642 0.25 13.75C0.25 11.6789 1.92893 10 4 10H8ZM13 4.25C13.4142 4.25 13.75 4.58579 13.75 5V6.25H15C15.4142 6.25 15.75 6.58579 15.75 7C15.75 7.41421 15.4142 7.75 15 7.75H13.75V9C13.75 9.41421 13.4142 9.75 13 9.75C12.5858 9.75 12.25 9.41421 12.25 9V7.75H11C10.5858 7.75 10.25 7.41421 10.25 7C10.25 6.58579 10.5858 6.25 11 6.25H12.25V5C12.25 4.58579 12.5858 4.25 13 4.25ZM6 1C7.933 1 9.5 2.567 9.5 4.5C9.5 6.433 7.933 8 6 8C4.067 8 2.5 6.433 2.5 4.5C2.5 2.567 4.067 1 6 1ZM6 2.5C4.89543 2.5 4 3.39543 4 4.5C4 5.60457 4.89543 6.5 6 6.5C7.10457 6.5 8 5.60457 8 4.5C8 3.39543 7.10457 2.5 6 2.5Z" fill="#1B1B1B"/>
</svg>
