<svg viewBox="0 0 24 24" fill="none" xmlns="http://www.w3.org/2000/svg">
  <path
    d="M13.0205 22.0522C12.611 22.2862 12.2621 22.472 12 22.6066C11.7379 22.472 11.389 22.2862 10.9795 22.0522C10.0334 21.5116 8.77872 20.7222 7.53087 19.7239C4.96334 17.6699 2.75 14.9942 2.75 12V4.49286L12 1.32143L21.25 4.49286V12C21.25 14.9942 19.0367 17.6699 16.4691 19.7239C15.2213 20.7222 13.9666 21.5116 13.0205 22.0522Z"
    stroke="#333333" stroke-width="2.5" stroke-linecap="round" stroke-linejoin="round" />
  <path fill-rule="evenodd" clip-rule="evenodd"
    d="M16.6785 8.29762C17.1072 8.69444 17.1072 9.33782 16.6785 9.73464L11.3127 14.7024C11.1068 14.8929 10.8277 15 10.5366 15C10.2455 15 9.96633 14.8929 9.76049 14.7024L7.32147 12.4443C6.89284 12.0475 6.89284 11.4041 7.32147 11.0073C7.75009 10.6105 8.44503 10.6105 8.87365 11.0073L10.5366 12.5468L15.1263 8.29762C15.555 7.90079 16.2499 7.90079 16.6785 8.29762Z"
    fill="#333333" />
</svg>
