<svg width="26" height="26" viewBox="0 0 26 26" fill="none" xmlns="http://www.w3.org/2000/svg">
  <mask id="mask0_2532_29642" style="mask-type:alpha" maskUnits="userSpaceOnUse" x="0" y="0" width="26" height="26">
  <rect x="0.5" y="0.5" width="25" height="25" fill="#D9D9D9"/>
  </mask>
  <g mask="url(#mask0_2532_29642)">
  <path d="M15.0296 21.7504L21.2275 19.8233C21.1407 19.6671 21.0149 19.5325 20.8499 19.4197C20.685 19.3068 20.4984 19.2504 20.29 19.2504H15.0296C14.5609 19.2504 14.1876 19.233 13.9098 19.1983C13.6321 19.1636 13.3456 19.0942 13.0505 18.99L11.5661 18.4952C11.2883 18.4084 11.0887 18.2348 10.9671 17.9744C10.8456 17.7139 10.8282 17.4449 10.915 17.1671C11.0018 16.8893 11.1711 16.6853 11.4229 16.5551C11.6746 16.4249 11.9393 16.4032 12.2171 16.49L13.3109 16.8546C13.606 16.9414 13.9402 17.0108 14.3135 17.0629C14.6867 17.115 15.1946 17.1497 15.8369 17.1671H16.1234C16.1234 16.9761 16.0669 16.7938 15.9541 16.6202C15.8413 16.4466 15.7067 16.3337 15.5505 16.2817L9.45671 14.0421H7.79004V19.7712L15.0296 21.7504ZM14.4827 23.7817L7.79004 21.9067C7.65115 22.358 7.37771 22.7226 6.96973 23.0004C6.56174 23.2782 6.14073 23.4171 5.70671 23.4171H3.62337C3.05046 23.4171 2.56 23.2131 2.15202 22.8051C1.74403 22.3971 1.54004 21.9067 1.54004 21.3337V14.0421C1.54004 13.4692 1.74403 12.9787 2.15202 12.5707C2.56 12.1627 3.05046 11.9587 3.62337 11.9587H9.45671C9.57823 11.9587 9.69976 11.9718 9.82129 11.9978C9.94282 12.0238 10.0557 12.0542 10.1598 12.0889L16.2796 14.3546C16.8525 14.5629 17.3169 14.9275 17.6729 15.4483C18.0288 15.9692 18.2067 16.5421 18.2067 17.1671H20.29C21.1581 17.1671 21.8959 17.4535 22.5036 18.0264C23.1112 18.5994 23.415 19.3546 23.415 20.2921C23.415 20.674 23.3152 20.9735 23.1156 21.1905C22.9159 21.4075 22.6077 21.5855 22.1911 21.7244L15.6807 23.7556C15.4897 23.8251 15.29 23.8598 15.0817 23.8598C14.8734 23.8598 14.6737 23.8337 14.4827 23.7817ZM3.62337 21.3337H5.70671V14.0421H3.62337V21.3337ZM17.165 13.2087C16.9046 13.2087 16.6485 13.161 16.3968 13.0655C16.1451 12.97 15.915 12.8268 15.7067 12.6358L12.8421 9.82332C12.3039 9.30249 11.8482 8.72523 11.4749 8.09155C11.1017 7.45787 10.915 6.76777 10.915 6.02124C10.915 5.06638 11.2492 4.25475 11.9176 3.58634C12.586 2.91794 13.3977 2.58374 14.3525 2.58374C14.9081 2.58374 15.4289 2.70093 15.915 2.9353C16.4011 3.16968 16.8178 3.48652 17.165 3.88582C17.5123 3.48652 17.9289 3.16968 18.415 2.9353C18.9012 2.70093 19.422 2.58374 19.9775 2.58374C20.9324 2.58374 21.744 2.91794 22.4124 3.58634C23.0808 4.25475 23.415 5.06638 23.415 6.02124C23.415 6.76777 23.2327 7.45787 22.8682 8.09155C22.5036 8.72523 22.0522 9.30249 21.514 9.82332L18.6234 12.6358C18.415 12.8268 18.185 12.97 17.9333 13.0655C17.6815 13.161 17.4255 13.2087 17.165 13.2087ZM17.165 11.1254L20.0036 8.33895C20.3334 8.00909 20.6373 7.65753 20.915 7.28426C21.1928 6.911 21.3317 6.48999 21.3317 6.02124C21.3317 5.6393 21.2015 5.31812 20.9411 5.0577C20.6807 4.79728 20.3595 4.66707 19.9775 4.66707C19.7345 4.66707 19.5044 4.71482 19.2874 4.8103C19.0704 4.90579 18.8838 5.04902 18.7275 5.23999L17.9723 6.15145C17.764 6.3945 17.4949 6.51603 17.165 6.51603C16.8352 6.51603 16.5661 6.3945 16.3577 6.15145L15.6025 5.23999C15.4463 5.04902 15.2597 4.90579 15.0426 4.8103C14.8256 4.71482 14.5956 4.66707 14.3525 4.66707C13.9706 4.66707 13.6494 4.79728 13.389 5.0577C13.1286 5.31812 12.9984 5.6393 12.9984 6.02124C12.9984 6.48999 13.1373 6.911 13.415 7.28426C13.6928 7.65753 13.9966 8.00909 14.3265 8.33895L17.165 11.1254Z" fill="#333333"/>
  </g>
  </svg>
  