<svg viewBox="0 0 36 36" fill="none" xmlns="http://www.w3.org/2000/svg">
<path d="M16.8635 4.50241C15.8937 4.50092 14.964 4.11503 14.2782 3.4293C13.5924 2.74358 13.2065 1.81396 13.205 0.844202C13.205 0.620306 13.1161 0.40558 12.9577 0.247261C12.7994 0.0889424 12.5847 0 12.3607 0C12.1368 0 11.9221 0.0889424 11.7638 0.247261C11.6054 0.40558 11.5165 0.620306 11.5165 0.844202C11.515 1.81396 11.1291 2.74358 10.4433 3.4293C9.75749 4.11503 8.82779 4.50092 7.85795 4.50241C7.63403 4.50241 7.41929 4.59135 7.26095 4.74967C7.10262 4.90799 7.01367 5.12272 7.01367 5.34661C7.01367 5.57051 7.10262 5.78523 7.26095 5.94355C7.41929 6.10187 7.63403 6.19081 7.85795 6.19081C8.82779 6.1923 9.75749 6.5782 10.4433 7.26392C11.1291 7.94965 11.515 8.87926 11.5165 9.84902C11.5165 10.0729 11.6054 10.2876 11.7638 10.446C11.9221 10.6043 12.1368 10.6932 12.3607 10.6932C12.5847 10.6932 12.7994 10.6043 12.9577 10.446C13.1161 10.2876 13.205 10.0729 13.205 9.84902C13.2065 8.87926 13.5924 7.94965 14.2782 7.26392C14.964 6.5782 15.8937 6.1923 16.8635 6.19081C17.0875 6.19081 17.3022 6.10187 17.4605 5.94355C17.6189 5.78523 17.7078 5.57051 17.7078 5.34661C17.7078 5.12272 17.6189 4.90799 17.4605 4.74967C17.3022 4.59135 17.0875 4.50241 16.8635 4.50241ZM12.3607 6.97874C11.9411 6.32303 11.3842 5.76618 10.7285 5.34661C11.3842 4.92705 11.9411 4.37019 12.3607 3.71449C12.7803 4.37019 13.3372 4.92705 13.993 5.34661C13.3372 5.76618 12.7803 6.32303 12.3607 6.97874Z" fill="#0E6DED"/>
<path d="M30.9358 25.6077C29.966 25.6062 29.0363 25.2203 28.3505 24.5346C27.6647 23.8489 27.2788 22.9193 27.2773 21.9495C27.2773 21.7256 27.1883 21.5109 27.03 21.3526C26.8717 21.1943 26.6569 21.1053 26.433 21.1053C26.2091 21.1053 25.9944 21.1943 25.836 21.3526C25.6777 21.5109 25.5887 21.7256 25.5887 21.9495C25.5872 22.9193 25.2013 23.8489 24.5155 24.5346C23.8298 25.2203 22.9001 25.6062 21.9302 25.6077C21.7063 25.6077 21.4916 25.6967 21.3332 25.855C21.1749 26.0133 21.0859 26.228 21.0859 26.4519C21.0859 26.6758 21.1749 26.8906 21.3332 27.0489C21.4916 27.2072 21.7063 27.2961 21.9302 27.2961C22.9001 27.2976 23.8298 27.6835 24.5155 28.3692C25.2013 29.055 25.5872 29.9846 25.5887 30.9543C25.5887 31.1782 25.6777 31.393 25.836 31.5513C25.9944 31.7096 26.2091 31.7985 26.433 31.7985C26.6569 31.7985 26.8717 31.7096 27.03 31.5513C27.1883 31.393 27.2773 31.1782 27.2773 30.9543C27.2788 29.9846 27.6647 29.055 28.3505 28.3692C29.0363 27.6835 29.966 27.2976 30.9358 27.2961C31.1597 27.2961 31.3745 27.2072 31.5328 27.0489C31.6911 26.8906 31.7801 26.6758 31.7801 26.4519C31.7801 26.228 31.6911 26.0133 31.5328 25.855C31.3745 25.6967 31.1597 25.6077 30.9358 25.6077ZM26.433 28.0841C26.0134 27.4283 25.4565 26.8715 24.8007 26.4519C25.4565 26.0324 26.0134 25.4755 26.433 24.8198C26.8526 25.4755 27.4095 26.0324 28.0653 26.4519C27.4095 26.8715 26.8526 27.4283 26.433 28.0841Z" fill="#0E6DED"/>
<path d="M33.1859 2.2514C32.8127 2.2514 32.4548 2.10315 32.191 1.83926C31.9271 1.57538 31.7788 1.21747 31.7788 0.844275C31.7788 0.620359 31.6899 0.405615 31.5315 0.247282C31.3732 0.0889501 31.1585 0 30.9345 0C30.7106 0 30.4959 0.0889501 30.3375 0.247282C30.1792 0.405615 30.0903 0.620359 30.0903 0.844275C30.0903 1.21747 29.942 1.57538 29.6781 1.83926C29.4142 2.10315 29.0563 2.2514 28.6831 2.2514C28.4592 2.2514 28.2445 2.34035 28.0861 2.49868C27.9278 2.65701 27.8389 2.87176 27.8389 3.09567C27.8389 3.31959 27.9278 3.53433 28.0861 3.69267C28.2445 3.851 28.4592 3.93995 28.6831 3.93995C29.0563 3.93995 29.4142 4.0882 29.6781 4.35209C29.942 4.61597 30.0903 4.97388 30.0903 5.34707C30.0903 5.57099 30.1792 5.78573 30.3375 5.94407C30.4959 6.1024 30.7106 6.19135 30.9345 6.19135C31.1585 6.19135 31.3732 6.1024 31.5315 5.94407C31.6899 5.78573 31.7788 5.57099 31.7788 5.34707C31.7788 4.97388 31.9271 4.61597 32.191 4.35209C32.4548 4.0882 32.8127 3.93995 33.1859 3.93995C33.4099 3.93995 33.6246 3.851 33.7829 3.69267C33.9413 3.53433 34.0302 3.31959 34.0302 3.09567C34.0302 2.87176 33.9413 2.65701 33.7829 2.49868C33.6246 2.34035 33.4099 2.2514 33.1859 2.2514ZM30.9345 3.23076L30.7995 3.09567L30.9345 2.96059L31.0696 3.09567L30.9345 3.23076Z" fill="#0E6DED"/>
<path d="M35.1547 14.9142C34.7815 14.9142 34.4236 14.766 34.1597 14.5021C33.8958 14.2382 33.7476 13.8803 33.7476 13.5071C33.7476 13.2832 33.6586 13.0684 33.5003 12.9101C33.342 12.7518 33.1272 12.6628 32.9033 12.6628C32.6794 12.6628 32.4646 12.7518 32.3063 12.9101C32.148 13.0684 32.059 13.2832 32.059 13.5071C32.059 13.8803 31.9108 14.2382 31.6469 14.5021C31.383 14.766 31.0251 14.9142 30.6519 14.9142C30.428 14.9142 30.2132 15.0032 30.0549 15.1615C29.8966 15.3198 29.8076 15.5346 29.8076 15.7585C29.8076 15.9824 29.8966 16.1971 30.0549 16.3555C30.2132 16.5138 30.428 16.6028 30.6519 16.6028C31.0251 16.6028 31.383 16.751 31.6469 17.0149C31.9108 17.2788 32.059 17.6367 32.059 18.0099C32.059 18.2338 32.148 18.4485 32.3063 18.6069C32.4646 18.7652 32.6794 18.8542 32.9033 18.8542C33.1272 18.8542 33.342 18.7652 33.5003 18.6069C33.6586 18.4485 33.7476 18.2338 33.7476 18.0099C33.7476 17.6367 33.8958 17.2788 34.1597 17.0149C34.4236 16.751 34.7815 16.6028 35.1547 16.6028C35.3786 16.6028 35.5934 16.5138 35.7517 16.3555C35.91 16.1971 35.999 15.9824 35.999 15.7585C35.999 15.5346 35.91 15.3198 35.7517 15.1615C35.5934 15.0032 35.3786 14.9142 35.1547 14.9142ZM32.9033 15.8936L32.7682 15.7585L32.9033 15.6234L33.0384 15.7585L32.9033 15.8936Z" fill="#0E6DED"/>
<path d="M28.0302 7.96934C27.397 7.33697 26.5387 6.98178 25.6438 6.98178C24.7488 6.98178 23.8905 7.33697 23.2573 7.96934L0.968417 30.2563C0.34396 30.8916 -0.00410658 31.748 3.65683e-05 32.6388C0.00417972 33.5297 0.360197 34.3828 0.990537 35.0123C1.62088 35.6419 2.47447 35.9968 3.36537 35.9999C4.25628 36.003 5.11232 35.654 5.74701 35.0288L28.0359 12.7419C28.6675 12.108 29.0218 11.2493 29.0207 10.3545C29.0196 9.45959 28.6634 8.60175 28.0302 7.96934ZM4.14852 33.4417C3.93729 33.6529 3.65081 33.7716 3.35209 33.7716C3.05337 33.7716 2.76688 33.6529 2.55565 33.4417C2.34443 33.2305 2.22576 32.9441 2.22576 32.6454C2.22576 32.3467 2.34443 32.0602 2.55565 31.849L19.2723 15.1338L20.8652 16.7265L4.14852 33.4417ZM26.4317 11.1548L22.4524 15.1338L20.8595 13.5411L24.8445 9.5677C25.0599 9.38329 25.3369 9.28693 25.6202 9.29787C25.9035 9.30882 26.1722 9.42625 26.3727 9.62672C26.5732 9.82718 26.6906 10.0959 26.7016 10.3792C26.7125 10.6625 26.6162 10.9395 26.4317 11.1548Z" fill="#0E6DED"/>
</svg>
