<svg width="16" height="16" viewBox="0 0 17 16" fill="none" xmlns="http://www.w3.org/2000/svg">
    <path clip-rule="evenodd" d="M.823 3.898a1.89 1.89 0 0 1 .632-.417 1.944 1.944 0 0 1-.227-.886c-.006-.54.22-1.025.577-1.365.675-.642 1.691-.696 2.491-.124.088-.193.21-.373.364-.532A1.87 1.87 0 0 1 6.024 0c.55.005 1.055.248 1.448.642l3.29 3.29a3.957 3.957 0 0 1 .76-1.765c.617-.804 1.617-1.035 2.44-.682.856.368 1.36 1.304 1.087 2.337-.23.869-.158 2.121.094 3.042.47 1.22.716 2.443.517 3.678-.204 1.27-.854 2.41-1.927 3.483-1.3 1.3-2.912 1.982-4.566 1.975-1.652-.008-3.255-.702-4.542-1.99l-3.57-3.57C.66 10.046.42 9.545.41 9a1.882 1.882 0 0 1 1.066-1.733l-.56-.56C.52 6.311.28 5.81.27 5.264a1.88 1.88 0 0 1 .552-1.367Zm1.85-.663c-.857-.863.263-1.93 1.12-1.067l4.08 4.079a.489.489 0 0 0 .69-.692L5.582 2.572a1.032 1.032 0 0 1-.3-.526c-.138-.703.697-1.29 1.386-.6l4.248 4.248c.07.07.161.154.262.241.082.07.17.144.26.215.242.191.524-.02.478-.326a6.928 6.928 0 0 1-.083-.83c-.026-.705.085-1.475.592-2.133.611-.796 1.783-.307 1.524.67-.299 1.13-.19 2.626.114 3.693.884 2.263.759 4.103-1.134 5.996-2.207 2.207-5.31 2.174-7.498-.014l-3.57-3.57c-.69-.69-.117-1.537.58-1.404.174.033.354.126.525.297l1.756 1.756a.489.489 0 1 0 .691-.691L1.72 5.9c-.698-.698-.1-1.559.61-1.397.164.037.335.13.496.291l3.249 3.249a.49.49 0 0 0 .693-.691v-.001l-.3-.301-2.94-2.957-.572-.575-.282-.284Z" fill="black" fill-rule="evenodd" stroke-width="0.15" />
</svg>
