<svg width="16" height="16" viewBox="0 0 16 16" fill="none" xmlns="http://www.w3.org/2000/svg">
<path d="M12.6689 10.0005H14.001C14.7372 10.0005 15.3348 10.5973 15.335 11.3335V13.3335L15.3281 13.4702C15.2643 14.0976 14.7651 14.5969 14.1377 14.6606L14.001 14.6675H10.001L9.86523 14.6606C9.19283 14.5925 8.66809 14.0238 8.66797 13.3335V11.3335C8.66814 10.5974 9.26485 10.0007 10.001 10.0005H11.3359V8.6665H4.66895V10.0005H6.00098C6.73725 10.0005 7.33478 10.5973 7.33496 11.3335V13.3335L7.32812 13.4702C7.26428 14.0976 6.76511 14.5969 6.1377 14.6606L6.00098 14.6675H2.00098L1.86523 14.6606C1.19283 14.5925 0.668092 14.0238 0.667969 13.3335V11.3335C0.668144 10.5974 1.26485 10.0007 2.00098 10.0005H3.33594V8.6665C3.33618 7.93044 3.93286 7.33367 4.66895 7.3335H7.33594V6.00049H6.00098L5.86523 5.99365C5.19276 5.9255 4.66797 5.35696 4.66797 4.6665V2.6665C4.66821 1.93044 5.2649 1.33367 6.00098 1.3335H10.001C10.7372 1.3335 11.3347 1.93033 11.335 2.6665V4.6665L11.3281 4.80322C11.2644 5.43071 10.7652 5.92991 10.1377 5.99365L10.001 6.00049H8.66895V7.3335H11.3359C12.0722 7.3335 12.6687 7.93033 12.6689 8.6665V10.0005ZM2.00098 13.3335H6.00098V11.3335H2.00098V13.3335ZM10.001 13.3335H14.001V11.3335H10.001V13.3335ZM6.00098 4.6665H10.001V2.6665H6.00098V4.6665Z" fill="#EF601B"/>
</svg>
